Truculenta-72ptBlack.ufo
<glyph name="exclam" format="2">
  <advance width="286"/>
  <unicode hex="0021"/>
  <outline>
    <contour>
      <point x="88" y="230" type="curve"/>
      <point x="191" y="232" type="line"/>
      <point x="195" y="353"/>
      <point x="197" y="409"/>
      <point x="202" y="478" type="curve" smooth="yes"/>
      <point x="208" y="563"/>
      <point x="210" y="589"/>
      <point x="221" y="711" type="curve"/>
      <point x="65" y="704" type="line"/>
      <point x="71" y="597"/>
      <point x="74" y="553"/>
      <point x="77" y="485" type="curve" smooth="yes"/>
      <point x="80" y="414"/>
      <point x="84" y="339"/>
    </contour>
    <contour>
      <point x="213" y="0" type="line"/>
      <point x="203" y="171" type="line"/>
      <point x="73" y="169" type="line"/>
      <point x="69" y="0" type="line"/>
    </contour>
  </outline>
</glyph>
<glyph name="numbersign" format="2">
  <advance width="775"/>
  <unicode hex="0023"/>
  <outline>
    <contour>
      <point x="93" y="3" type="line"/>
      <point x="229" y="0" type="line"/>
      <point x="311" y="369" type="line"/>
      <point x="392" y="696" type="line"/>
      <point x="258" y="699" type="line"/>
      <point x="193" y="390" type="line"/>
    </contour>
    <contour>
      <point x="40" y="140" type="line"/>
      <point x="133" y="142"/>
      <point x="257" y="145"/>
      <point x="381" y="144" type="curve" smooth="yes"/>
      <point x="510" y="143"/>
      <point x="595" y="144"/>
      <point x="689" y="142" type="curve"/>
      <point x="684" y="260" type="line"/>
      <point x="590" y="258"/>
      <point x="505" y="257"/>
      <point x="384" y="257" type="curve" smooth="yes"/>
      <point x="269" y="257"/>
      <point x="135" y="258"/>
      <point x="42" y="260" type="curve"/>
    </contour>
    <contour>
      <point x="377" y="2" type="line"/>
      <point x="513" y="-2" type="line"/>
      <point x="592" y="358" type="line"/>
      <point x="673" y="682" type="line"/>
      <point x="539" y="690" type="line"/>
      <point x="477" y="390" type="line"/>
    </contour>
    <contour>
      <point x="90" y="427" type="line"/>
      <point x="183" y="428"/>
      <point x="308" y="432"/>
      <point x="432" y="431" type="curve" smooth="yes"/>
      <point x="560" y="430"/>
      <point x="630" y="430"/>
      <point x="735" y="428" type="curve"/>
      <point x="735" y="547" type="line"/>
      <point x="631" y="544"/>
      <point x="555" y="544"/>
      <point x="434" y="544" type="curve" smooth="yes"/>
      <point x="319" y="544"/>
      <point x="174" y="546"/>
      <point x="81" y="547" type="curve"/>
    </contour>
  </outline>
</glyph>
<glyph name="quotesingle" format="2">
  <advance width="254"/>
  <unicode hex="0027"/>
  <outline>
    <contour>
      <point x="72" y="489" type="curve"/>
      <point x="175" y="505" type="line"/>
      <point x="175" y="501"/>
      <point x="178" y="578"/>
      <point x="181" y="619" type="curve" smooth="yes"/>
      <point x="186" y="660"/>
      <point x="194" y="706"/>
      <point x="194" y="704" type="curve"/>
      <point x="60" y="697" type="line"/>
      <point x="59" y="699"/>
      <point x="65" y="652"/>
      <point x="67" y="601" type="curve" smooth="yes"/>
      <point x="69" y="544"/>
      <point x="72" y="486"/>
    </contour>
  </outline>
</glyph>
<glyph name="parenleft" format="2">
  <advance width="367"/>
  <unicode hex="0028"/>
  <outline>
    <contour>
      <point x="275" y="-162" type="curve"/>
      <point x="302" y="-63" type="line"/>
      <point x="201" y="-19"/>
      <point x="183" y="100"/>
      <point x="183" y="281" type="curve" smooth="yes"/>
      <point x="183" y="463"/>
      <point x="200" y="585"/>
      <point x="302" y="626" type="curve"/>
      <point x="275" y="725" type="line"/>
      <point x="145" y="699"/>
      <point x="57" y="578"/>
      <point x="57" y="281" type="curve" smooth="yes"/>
      <point x="57" y="-15"/>
      <point x="145" y="-136"/>
    </contour>
  </outline>
</glyph>
<glyph name="parenright" format="2">
  <advance width="367"/>
  <unicode hex="0029"/>
  <outline>
    <contour>
      <point x="92" y="725" type="curve"/>
      <point x="65" y="626" type="line"/>
      <point x="166" y="582"/>
      <point x="184" y="463"/>
      <point x="184" y="282" type="curve" smooth="yes"/>
      <point x="184" y="100"/>
      <point x="167" y="-22"/>
      <point x="65" y="-63" type="curve"/>
      <point x="92" y="-162" type="line"/>
      <point x="222" y="-136"/>
      <point x="310" y="-15"/>
      <point x="310" y="282" type="curve" smooth="yes"/>
      <point x="310" y="578"/>
      <point x="222" y="699"/>
    </contour>
  </outline>
</glyph>
<glyph name="asterisk" format="2">
  <advance width="559"/>
  <unicode hex="002A"/>
  <outline>
    <contour>
      <point x="409" y="404" type="curve"/>
      <point x="494" y="478" type="line"/>
      <point x="396" y="529"/>
      <point x="356" y="538"/>
      <point x="281" y="586" type="curve" smooth="yes"/>
      <point x="232" y="617"/>
      <point x="204" y="645"/>
      <point x="130" y="705" type="curve"/>
      <point x="65" y="617" type="line"/>
      <point x="60" y="619"/>
      <point x="195" y="555"/>
      <point x="249" y="524" type="curve" smooth="yes"/>
      <point x="300" y="496"/>
      <point x="413" y="401"/>
    </contour>
    <contour>
      <point x="118" y="389" type="line"/>
      <point x="113" y="385"/>
      <point x="250" y="494"/>
      <point x="301" y="524" type="curve" smooth="yes"/>
      <point x="355" y="556"/>
      <point x="480" y="613"/>
      <point x="476" y="611" type="curve"/>
      <point x="437" y="709" type="line"/>
      <point x="355" y="647"/>
      <point x="312" y="611"/>
      <point x="248" y="570" type="curve" smooth="yes"/>
      <point x="177" y="524"/>
      <point x="147" y="510"/>
      <point x="81" y="468" type="curve"/>
    </contour>
    <contour>
      <point x="333" y="336" type="line"/>
      <point x="333" y="331"/>
      <point x="313" y="494"/>
      <point x="313" y="562" type="curve" smooth="yes"/>
      <point x="313" y="632"/>
      <point x="331" y="756"/>
      <point x="331" y="752" type="curve"/>
      <point x="223" y="759" type="line"/>
      <point x="222" y="764"/>
      <point x="237" y="628"/>
      <point x="238" y="561" type="curve" smooth="yes"/>
      <point x="239" y="497"/>
      <point x="223" y="341"/>
      <point x="224" y="347" type="curve"/>
    </contour>
  </outline>
</glyph>
<glyph name="comma" format="2">
  <advance width="248"/>
  <unicode hex="002C"/>
  <outline>
    <contour>
      <point x="124" y="-159" type="line"/>
      <point x="174" y="-109"/>
      <point x="183" y="-52"/>
      <point x="183" y="19" type="curve" smooth="yes"/>
      <point x="183" y="172" type="line"/>
      <point x="65" y="165" type="line"/>
      <point x="67" y="4" type="line"/>
      <point x="120" y="1" type="line"/>
      <point x="120" y="-40"/>
      <point x="114" y="-79"/>
      <point x="75" y="-125" type="curve"/>
    </contour>
  </outline>
</glyph>
<glyph name="hyphen" format="2">
  <advance width="369"/>
  <unicode hex="002D"/>
  <outline>
    <contour>
      <point x="60" y="239" type="line"/>
      <point x="60" y="239"/>
      <point x="121" y="241"/>
      <point x="180" y="241" type="curve" smooth="yes"/>
      <point x="236" y="241"/>
      <point x="309" y="239"/>
      <point x="309" y="239" type="curve"/>
      <point x="306" y="341" type="line"/>
      <point x="306" y="341"/>
      <point x="248" y="337"/>
      <point x="186" y="338" type="curve" smooth="yes"/>
      <point x="124" y="339"/>
      <point x="66" y="341"/>
      <point x="66" y="341" type="curve"/>
    </contour>
  </outline>
</glyph>
<glyph name="slash" format="2">
  <advance width="362"/>
  <unicode hex="002F"/>
  <outline>
    <contour>
      <point x="10" y="-1" type="curve"/>
      <point x="137" y="0" type="line"/>
      <point x="171" y="119"/>
      <point x="208" y="236"/>
      <point x="250" y="366" type="curve" smooth="yes"/>
      <point x="291" y="492"/>
      <point x="320" y="597"/>
      <point x="352" y="698" type="curve"/>
      <point x="223" y="700" type="line"/>
      <point x="196" y="579"/>
      <point x="170" y="483"/>
      <point x="133" y="367" type="curve" smooth="yes"/>
      <point x="93" y="241"/>
      <point x="58" y="128"/>
    </contour>
  </outline>
</glyph>
<glyph name="zero" format="2">
  <advance width="492"/>
  <unicode hex="0030"/>
  <outline>
    <contour>
      <point x="237" y="-10" type="curve" smooth="yes"/>
      <point x="422" y="-10"/>
      <point x="463" y="162"/>
      <point x="463" y="342" type="curve" smooth="yes"/>
      <point x="463" y="530"/>
      <point x="447" y="707"/>
      <point x="253" y="707" type="curve" smooth="yes"/>
      <point x="65" y="707"/>
      <point x="29" y="517"/>
      <point x="29" y="343" type="curve" smooth="yes"/>
      <point x="29" y="156"/>
      <point x="55" y="-10"/>
    </contour>
    <contour>
      <point x="243" y="102" type="curve" smooth="yes"/>
      <point x="175" y="102"/>
      <point x="163" y="150"/>
      <point x="163" y="338" type="curve" smooth="yes"/>
      <point x="163" y="513"/>
      <point x="182" y="592"/>
      <point x="250" y="592" type="curve" smooth="yes"/>
      <point x="317" y="592"/>
      <point x="331" y="524"/>
      <point x="331" y="353" type="curve" smooth="yes"/>
      <point x="331" y="192"/>
      <point x="317" y="102"/>
    </contour>
  </outline>
</glyph>
<glyph name="one" format="2">
  <advance width="290"/>
  <unicode hex="0031"/>
  <outline>
    <contour>
      <point x="123" y="0" type="curve"/>
      <point x="267" y="0" type="line"/>
      <point x="265" y="91"/>
      <point x="262" y="165"/>
      <point x="262" y="341" type="curve" smooth="yes"/>
      <point x="262" y="517"/>
      <point x="266" y="609"/>
      <point x="268" y="694" type="curve"/>
      <point x="195" y="694" type="line"/>
      <point x="126" y="621" type="line"/>
      <point x="127" y="545"/>
      <point x="128" y="421"/>
      <point x="128" y="342" type="curve" smooth="yes"/>
      <point x="128" y="223"/>
      <point x="128" y="98"/>
    </contour>
    <contour>
      <point x="4" y="532" type="line"/>
      <point x="55" y="531"/>
      <point x="166" y="535"/>
      <point x="213" y="555" type="curve"/>
      <point x="195" y="694" type="line"/>
      <point x="157" y="662"/>
      <point x="38" y="641"/>
      <point x="-2" y="636" type="curve"/>
    </contour>
  </outline>
</glyph>
<glyph name="two" format="2">
  <advance width="461"/>
  <unicode hex="0032"/>
  <outline>
    <contour>
      <point x="147" y="75" type="line"/>
      <point x="236" y="149"/>
      <point x="437" y="313"/>
      <point x="437" y="500" type="curve" smooth="yes"/>
      <point x="437" y="637"/>
      <point x="364" y="700"/>
      <point x="242" y="700" type="curve" smooth="yes"/>
      <point x="86" y="700"/>
      <point x="36" y="596"/>
      <point x="36" y="478" type="curve" smooth="yes"/>
      <point x="36" y="447"/>
      <point x="39" y="415"/>
      <point x="45" y="384" type="curve"/>
      <point x="172" y="385" type="line"/>
      <point x="167" y="415"/>
      <point x="163" y="446"/>
      <point x="163" y="476" type="curve" smooth="yes"/>
      <point x="163" y="543"/>
      <point x="182" y="585"/>
      <point x="234" y="585" type="curve" smooth="yes"/>
      <point x="278" y="585"/>
      <point x="304" y="564"/>
      <point x="304" y="495" type="curve" smooth="yes"/>
      <point x="304" y="343"/>
      <point x="125" y="204"/>
      <point x="19" y="109" type="curve"/>
    </contour>
    <contour>
      <point x="17" y="-6" type="line"/>
      <point x="24" y="-5"/>
      <point x="225" y="0"/>
      <point x="230" y="0" type="curve" smooth="yes"/>
      <point x="256" y="0"/>
      <point x="436" y="0"/>
      <point x="445" y="0" type="curve"/>
      <point x="444" y="119" type="line"/>
      <point x="415" y="112"/>
      <point x="293" y="112"/>
      <point x="241" y="110" type="curve" smooth="yes"/>
      <point x="214" y="109"/>
      <point x="117" y="109"/>
      <point x="19" y="109" type="curve"/>
    </contour>
  </outline>
</glyph>
<glyph name="three" format="2">
  <advance width="425"/>
  <unicode hex="0033"/>
  <outline>
    <contour>
      <point x="202" y="-10" type="curve" smooth="yes"/>
      <point x="347" y="-10"/>
      <point x="414" y="66"/>
      <point x="416" y="167" type="curve" smooth="yes"/>
      <point x="417" y="225"/>
      <point x="395" y="286"/>
      <point x="309" y="304" type="curve"/>
      <point x="371" y="337"/>
      <point x="418" y="398"/>
      <point x="418" y="501" type="curve" smooth="yes"/>
      <point x="418" y="607"/>
      <point x="375" y="697"/>
      <point x="210" y="697" type="curve" smooth="yes"/>
      <point x="71" y="697"/>
      <point x="16" y="613"/>
      <point x="16" y="510" type="curve"/>
      <point x="147" y="509" type="line"/>
      <point x="148" y="547"/>
      <point x="162" y="582"/>
      <point x="212" y="582" type="curve" smooth="yes"/>
      <point x="266" y="582"/>
      <point x="285" y="546"/>
      <point x="285" y="487" type="curve" smooth="yes"/>
      <point x="285" y="394"/>
      <point x="250" y="345"/>
      <point x="157" y="345" type="curve" smooth="yes"/>
      <point x="103" y="345"/>
      <point x="97" y="345"/>
      <point x="79" y="346" type="curve"/>
      <point x="79" y="241" type="line"/>
      <point x="100" y="242"/>
      <point x="107" y="242"/>
      <point x="165" y="242" type="curve" smooth="yes"/>
      <point x="235" y="242"/>
      <point x="285" y="235"/>
      <point x="283" y="170" type="curve" smooth="yes"/>
      <point x="282" y="126"/>
      <point x="256" y="101"/>
      <point x="205" y="101" type="curve" smooth="yes"/>
      <point x="158" y="101"/>
      <point x="133" y="120"/>
      <point x="134" y="155" type="curve"/>
      <point x="2" y="155" type="line"/>
      <point x="2" y="55"/>
      <point x="57" y="-10"/>
    </contour>
  </outline>
</glyph>
<glyph name="four" format="2">
  <advance width="464"/>
  <unicode hex="0034"/>
  <outline>
    <contour>
      <point x="119" y="189" type="line"/>
      <point x="144" y="252"/>
      <point x="175" y="321"/>
      <point x="206" y="393" type="curve" smooth="yes"/>
      <point x="242" y="475"/>
      <point x="277" y="554"/>
      <point x="306" y="615" type="curve"/>
      <point x="323" y="661"/>
      <point x="385" y="698"/>
      <point x="383" y="696" type="curve"/>
      <point x="203" y="702" type="line"/>
      <point x="169" y="620"/>
      <point x="137" y="534"/>
      <point x="99" y="448" type="curve" smooth="yes"/>
      <point x="66" y="374"/>
      <point x="33" y="305"/>
      <point x="1" y="234" type="curve"/>
    </contour>
    <contour>
      <point x="17" y="109" type="line"/>
      <point x="13" y="109"/>
      <point x="171" y="113"/>
      <point x="235" y="114" type="curve" smooth="yes"/>
      <point x="303" y="115"/>
      <point x="425" y="113"/>
      <point x="460" y="114" type="curve"/>
      <point x="459" y="241" type="line"/>
      <point x="423" y="236"/>
      <point x="304" y="235"/>
      <point x="233" y="232" type="curve" smooth="yes"/>
      <point x="164" y="229"/>
      <point x="55" y="230"/>
      <point x="1" y="234" type="curve"/>
    </contour>
    <contour>
      <point x="241" y="-3" type="curve"/>
      <point x="382" y="0" type="line"/>
      <point x="381" y="58"/>
      <point x="379" y="121"/>
      <point x="379" y="306" type="curve" smooth="yes"/>
      <point x="379" y="483"/>
      <point x="380" y="601"/>
      <point x="383" y="696" type="curve"/>
      <point x="246" y="686" type="line"/>
      <point x="251" y="536"/>
      <point x="246" y="362"/>
      <point x="246" y="256" type="curve" smooth="yes"/>
      <point x="246" y="199"/>
      <point x="244" y="176"/>
    </contour>
  </outline>
</glyph>
<glyph name="five" format="2">
  <advance width="447"/>
  <unicode hex="0035"/>
  <outline>
    <contour>
      <point x="209" y="-10" type="curve" smooth="yes"/>
      <point x="375" y="-10"/>
      <point x="442" y="110"/>
      <point x="442" y="238" type="curve" smooth="yes"/>
      <point x="442" y="392"/>
      <point x="371" y="464"/>
      <point x="253" y="464" type="curve" smooth="yes"/>
      <point x="176" y="464"/>
      <point x="127" y="418"/>
      <point x="99" y="345" type="curve"/>
      <point x="152" y="297" type="line"/>
      <point x="169" y="332"/>
      <point x="195" y="348"/>
      <point x="229" y="348" type="curve" smooth="yes"/>
      <point x="284" y="348"/>
      <point x="309" y="311"/>
      <point x="309" y="235" type="curve" smooth="yes"/>
      <point x="309" y="179"/>
      <point x="287" y="104"/>
      <point x="215" y="104" type="curve" smooth="yes"/>
      <point x="156" y="104"/>
      <point x="136" y="142"/>
      <point x="139" y="192" type="curve"/>
      <point x="7" y="185" type="line"/>
      <point x="1" y="76"/>
      <point x="58" y="-10"/>
    </contour>
    <contour>
      <point x="152" y="297" type="line"/>
      <point x="152" y="291"/>
      <point x="158" y="423"/>
      <point x="160" y="502" type="curve" smooth="yes"/>
      <point x="162" y="582"/>
      <point x="162" y="624"/>
      <point x="168" y="695" type="curve"/>
      <point x="28" y="703" type="line"/>
      <point x="28" y="708"/>
      <point x="30" y="593"/>
      <point x="28" y="505" type="curve" smooth="yes"/>
      <point x="26" y="421"/>
      <point x="18" y="288"/>
      <point x="18" y="293" type="curve"/>
    </contour>
    <contour>
      <point x="61" y="579" type="line"/>
      <point x="59" y="579"/>
      <point x="130" y="581"/>
      <point x="227" y="581" type="curve" smooth="yes"/>
      <point x="274" y="581"/>
      <point x="379" y="580"/>
      <point x="406" y="579" type="curve"/>
      <point x="410" y="697" type="line"/>
      <point x="385" y="696"/>
      <point x="275" y="697"/>
      <point x="225" y="698" type="curve" smooth="yes"/>
      <point x="131" y="699"/>
      <point x="124" y="699"/>
      <point x="27" y="703" type="curve"/>
    </contour>
  </outline>
</glyph>
<glyph name="six" format="2">
  <advance width="472"/>
  <unicode hex="0036"/>
  <outline>
    <contour>
      <point x="242" y="-10" type="curve" smooth="yes"/>
      <point x="385" y="-10"/>
      <point x="450" y="87"/>
      <point x="450" y="207" type="curve" smooth="yes"/>
      <point x="450" y="336"/>
      <point x="377" y="405"/>
      <point x="263" y="405" type="curve" smooth="yes"/>
      <point x="189" y="405"/>
      <point x="120" y="359"/>
      <point x="108" y="251" type="curve"/>
      <point x="151" y="200" type="line"/>
      <point x="151" y="263"/>
      <point x="191" y="291"/>
      <point x="242" y="291" type="curve" smooth="yes"/>
      <point x="291" y="291"/>
      <point x="318" y="261"/>
      <point x="318" y="201" type="curve" smooth="yes"/>
      <point x="318" y="148"/>
      <point x="291" y="107"/>
      <point x="237" y="107" type="curve" smooth="yes"/>
      <point x="173" y="107"/>
      <point x="151" y="151"/>
      <point x="151" y="200" type="curve" smooth="yes"/>
      <point x="151" y="437"/>
      <point x="155" y="598"/>
      <point x="246" y="598" type="curve" smooth="yes"/>
      <point x="295" y="598"/>
      <point x="310" y="564"/>
      <point x="310" y="511" type="curve" smooth="yes"/>
      <point x="310" y="488"/>
      <point x="307" y="464"/>
      <point x="304" y="443" type="curve"/>
      <point x="436" y="445" type="line"/>
      <point x="440" y="471"/>
      <point x="442" y="496"/>
      <point x="442" y="521" type="curve" smooth="yes"/>
      <point x="442" y="629"/>
      <point x="397" y="713"/>
      <point x="248" y="713" type="curve" smooth="yes"/>
      <point x="87" y="713"/>
      <point x="18" y="586"/>
      <point x="18" y="321" type="curve" smooth="yes"/>
      <point x="18" y="94"/>
      <point x="72" y="-10"/>
    </contour>
  </outline>
</glyph>
<glyph name="seven" format="2">
  <advance width="369"/>
  <unicode hex="0037"/>
  <outline>
    <contour>
      <point x="59" y="-1" type="curve"/>
      <point x="207" y="0" type="line"/>
      <point x="198" y="117"/>
      <point x="210" y="230"/>
      <point x="235" y="330" type="curve" smooth="yes"/>
      <point x="260" y="429"/>
      <point x="299" y="517"/>
      <point x="346" y="588" type="curve"/>
      <point x="346" y="700" type="line"/>
      <point x="234" y="611"/>
      <point x="159" y="504"/>
      <point x="117" y="383" type="curve" smooth="yes"/>
      <point x="76" y="266"/>
      <point x="59" y="136"/>
    </contour>
    <contour>
      <point x="0" y="577" type="line"/>
      <point x="28" y="579"/>
      <point x="106" y="579"/>
      <point x="155" y="579" type="curve" smooth="yes"/>
      <point x="204" y="579"/>
      <point x="308" y="581"/>
      <point x="338" y="581" type="curve"/>
      <point x="346" y="700" type="line"/>
      <point x="320" y="698"/>
      <point x="219" y="697"/>
      <point x="168" y="698" type="curve" smooth="yes"/>
      <point x="117" y="699"/>
      <point x="37" y="699"/>
      <point x="-1" y="700" type="curve"/>
    </contour>
  </outline>
</glyph>
<glyph name="eight" format="2">
  <advance width="450"/>
  <unicode hex="0038"/>
  <outline>
    <contour>
      <point x="217" y="249" type="curve" smooth="yes"/>
      <point x="368" y="249"/>
      <point x="430" y="344"/>
      <point x="430" y="472" type="curve" smooth="yes"/>
      <point x="430" y="624"/>
      <point x="372" y="707"/>
      <point x="229" y="707" type="curve" smooth="yes"/>
      <point x="85" y="707"/>
      <point x="21" y="617"/>
      <point x="21" y="462" type="curve" smooth="yes"/>
      <point x="21" y="347"/>
      <point x="86" y="249"/>
    </contour>
    <contour>
      <point x="215" y="-10" type="curve" smooth="yes"/>
      <point x="382" y="-10"/>
      <point x="449" y="65"/>
      <point x="449" y="164" type="curve" smooth="yes"/>
      <point x="449" y="284"/>
      <point x="376" y="353"/>
      <point x="230" y="353" type="curve" smooth="yes"/>
      <point x="79" y="353"/>
      <point x="1" y="278"/>
      <point x="1" y="156" type="curve" smooth="yes"/>
      <point x="1" y="67"/>
      <point x="70" y="-10"/>
    </contour>
    <contour>
      <point x="221" y="94" type="curve" smooth="yes"/>
      <point x="151" y="94"/>
      <point x="133" y="123"/>
      <point x="133" y="169" type="curve" smooth="yes"/>
      <point x="133" y="214"/>
      <point x="160" y="249"/>
      <point x="225" y="249" type="curve" smooth="yes"/>
      <point x="295" y="249"/>
      <point x="317" y="222"/>
      <point x="317" y="168" type="curve" smooth="yes"/>
      <point x="317" y="123"/>
      <point x="292" y="94"/>
    </contour>
    <contour>
      <point x="225" y="353" type="curve" smooth="yes"/>
      <point x="178" y="353"/>
      <point x="155" y="396"/>
      <point x="155" y="474" type="curve" smooth="yes"/>
      <point x="155" y="558"/>
      <point x="175" y="597"/>
      <point x="228" y="597" type="curve" smooth="yes"/>
      <point x="282" y="597"/>
      <point x="297" y="567"/>
      <point x="297" y="467" type="curve" smooth="yes"/>
      <point x="297" y="402"/>
      <point x="275" y="353"/>
    </contour>
  </outline>
</glyph>
<glyph name="nine" format="2">
  <advance width="472"/>
  <unicode hex="0039"/>
  <outline>
    <contour>
      <point x="214" y="-10" type="curve" smooth="yes"/>
      <point x="386" y="-10"/>
      <point x="450" y="117"/>
      <point x="450" y="382" type="curve" smooth="yes"/>
      <point x="450" y="609"/>
      <point x="398" y="713"/>
      <point x="228" y="713" type="curve" smooth="yes"/>
      <point x="75" y="713"/>
      <point x="18" y="596"/>
      <point x="18" y="466" type="curve" smooth="yes"/>
      <point x="18" y="327"/>
      <point x="81" y="238"/>
      <point x="205" y="238" type="curve" smooth="yes"/>
      <point x="279" y="238"/>
      <point x="348" y="284"/>
      <point x="360" y="392" type="curve"/>
      <point x="317" y="476" type="line"/>
      <point x="317" y="384"/>
      <point x="277" y="352"/>
      <point x="226" y="352" type="curve" smooth="yes"/>
      <point x="172" y="352"/>
      <point x="150" y="397"/>
      <point x="150" y="472" type="curve" smooth="yes"/>
      <point x="150" y="542"/>
      <point x="172" y="596"/>
      <point x="231" y="596" type="curve" smooth="yes"/>
      <point x="295" y="596"/>
      <point x="317" y="547"/>
      <point x="317" y="476" type="curve" smooth="yes"/>
      <point x="317" y="239"/>
      <point x="318" y="105"/>
      <point x="222" y="105" type="curve" smooth="yes"/>
      <point x="177" y="105"/>
      <point x="160" y="130"/>
      <point x="160" y="168" type="curve" smooth="yes"/>
      <point x="160" y="179"/>
      <point x="162" y="190"/>
      <point x="164" y="200" type="curve"/>
      <point x="32" y="198" type="line"/>
      <point x="29" y="183"/>
      <point x="27" y="167"/>
      <point x="27" y="152" type="curve" smooth="yes"/>
      <point x="27" y="65"/>
      <point x="81" y="-10"/>
    </contour>
  </outline>
</glyph>
<glyph name="colon" format="2">
  <advance width="252"/>
  <unicode hex="003A"/>
  <outline>
    <contour>
      <point x="187" y="0" type="line"/>
      <point x="187" y="179" type="line"/>
      <point x="65" y="166" type="line"/>
      <point x="68" y="0" type="line"/>
    </contour>
    <contour>
      <point x="187" y="373" type="line"/>
      <point x="187" y="551" type="line"/>
      <point x="65" y="538" type="line"/>
      <point x="68" y="373" type="line"/>
    </contour>
  </outline>
</glyph>
<glyph name="semicolon" format="2">
  <advance width="250"/>
  <unicode hex="003B"/>
  <outline>
    <contour>
      <point x="122" y="-159" type="line"/>
      <point x="171" y="-109"/>
      <point x="180" y="-52"/>
      <point x="180" y="19" type="curve" smooth="yes"/>
      <point x="180" y="172" type="line"/>
      <point x="65" y="165" type="line"/>
      <point x="67" y="4" type="line"/>
      <point x="117" y="1" type="line"/>
      <point x="117" y="-40"/>
      <point x="111" y="-79"/>
      <point x="72" y="-125" type="curve"/>
    </contour>
    <contour>
      <point x="185" y="373" type="line"/>
      <point x="185" y="551" type="line"/>
      <point x="69" y="538" type="line"/>
      <point x="72" y="373" type="line"/>
    </contour>
  </outline>
</glyph>
<glyph name="less" format="2">
  <advance width="500"/>
  <unicode hex="003C"/>
  <outline>
    <contour>
      <point x="489" y="496" type="line"/>
      <point x="394" y="468"/>
      <point x="320" y="443"/>
      <point x="253" y="426" type="curve" smooth="yes"/>
      <point x="153" y="399"/>
      <point x="97" y="381"/>
      <point x="18" y="358" type="curve"/>
      <point x="21" y="253" type="line"/>
      <point x="132" y="278"/>
      <point x="186" y="296"/>
      <point x="278" y="320" type="curve" smooth="yes"/>
      <point x="364" y="344"/>
      <point x="419" y="359"/>
      <point x="487" y="377" type="curve"/>
    </contour>
    <contour>
      <point x="487" y="109" type="curve"/>
      <point x="490" y="230" type="line"/>
      <point x="437" y="242"/>
      <point x="370" y="261"/>
      <point x="281" y="286" type="curve" smooth="yes"/>
      <point x="188" y="312"/>
      <point x="86" y="342"/>
      <point x="18" y="358" type="curve"/>
      <point x="21" y="253" type="line"/>
      <point x="102" y="231"/>
      <point x="149" y="212"/>
      <point x="247" y="183" type="curve" smooth="yes"/>
      <point x="321" y="161"/>
      <point x="425" y="131"/>
    </contour>
  </outline>
</glyph>
<glyph name="question" format="2">
  <advance width="526"/>
  <unicode hex="003F"/>
  <outline>
    <contour>
      <point x="326" y="213" type="line"/>
      <point x="318" y="248"/>
      <point x="315" y="270"/>
      <point x="315" y="286" type="curve" smooth="yes"/>
      <point x="315" y="315"/>
      <point x="339" y="335"/>
      <point x="369" y="359" type="curve" smooth="yes"/>
      <point x="413" y="395"/>
      <point x="469" y="441"/>
      <point x="469" y="543" type="curve" smooth="yes"/>
      <point x="469" y="640"/>
      <point x="408" y="716"/>
      <point x="271" y="716" type="curve" smooth="yes"/>
      <point x="119" y="716"/>
      <point x="57" y="628"/>
      <point x="57" y="525" type="curve" smooth="yes"/>
      <point x="57" y="496"/>
      <point x="62" y="466"/>
      <point x="72" y="436" type="curve"/>
      <point x="205" y="435" type="line"/>
      <point x="198" y="459"/>
      <point x="191" y="488"/>
      <point x="191" y="517" type="curve" smooth="yes"/>
      <point x="191" y="562"/>
      <point x="212" y="601"/>
      <point x="265" y="601" type="curve" smooth="yes"/>
      <point x="304" y="601"/>
      <point x="336" y="580"/>
      <point x="336" y="535" type="curve" smooth="yes"/>
      <point x="336" y="486"/>
      <point x="315" y="457"/>
      <point x="288" y="434" type="curve" smooth="yes"/>
      <point x="245" y="395"/>
      <point x="188" y="369"/>
      <point x="188" y="285" type="curve" smooth="yes"/>
      <point x="188" y="266"/>
      <point x="191" y="246"/>
      <point x="198" y="214" type="curve"/>
    </contour>
    <contour>
      <point x="333" y="-3" type="line"/>
      <point x="321" y="167" type="line"/>
      <point x="197" y="165" type="line"/>
      <point x="196" y="0" type="line"/>
    </contour>
  </outline>
</glyph>
<glyph name="A" format="2">
  <advance width="437"/>
  <unicode hex="0041"/>
  <anchor x="218" y="0" name="bottom"/>
  <anchor x="359" y="-1" name="ogonek"/>
  <anchor x="219" y="693" name="top"/>
  <outline>
    <contour>
      <point x="285" y="-5" type="curve"/>
      <point x="442" y="0" type="line"/>
      <point x="420" y="103"/>
      <point x="395" y="229"/>
      <point x="371" y="365" type="curve" smooth="yes"/>
      <point x="352" y="474"/>
      <point x="332" y="589"/>
      <point x="314" y="705" type="curve"/>
      <point x="126" y="697" type="line"/>
      <point x="204" y="638" type="line"/>
      <point x="215" y="574"/>
      <point x="226" y="468"/>
      <point x="244" y="349" type="curve" smooth="yes"/>
      <point x="262" y="233"/>
      <point x="272" y="105"/>
    </contour>
    <contour>
      <point x="118" y="114" type="line"/>
      <point x="314" y="121" type="line"/>
      <point x="314" y="229" type="line"/>
      <point x="118" y="232" type="line"/>
    </contour>
    <contour>
      <point x="148" y="6" type="line"/>
      <point x="162" y="112"/>
      <point x="173" y="237"/>
      <point x="191" y="351" type="curve" smooth="yes"/>
      <point x="209" y="467"/>
      <point x="219" y="570"/>
      <point x="230" y="630" type="curve"/>
      <point x="314" y="705" type="line"/>
      <point x="126" y="697" type="line"/>
      <point x="106" y="582"/>
      <point x="85" y="465"/>
      <point x="65" y="355" type="curve" smooth="yes"/>
      <point x="41" y="225"/>
      <point x="18" y="104"/>
      <point x="-2" y="7" type="curve"/>
    </contour>
  </outline>
</glyph>
<glyph name="B" format="2">
  <advance width="432"/>
  <unicode hex="0042"/>
  <outline>
    <contour>
      <point x="111" y="210" type="line"/>
      <point x="286" y="210"/>
      <point x="428" y="273"/>
      <point x="428" y="467" type="curve" smooth="yes"/>
      <point x="428" y="669"/>
      <point x="351" y="719"/>
      <point x="162" y="719" type="curve" smooth="yes"/>
      <point x="123" y="719"/>
      <point x="68" y="717"/>
      <point x="18" y="713" type="curve"/>
      <point x="80" y="602" type="line"/>
      <point x="121" y="607"/>
      <point x="155" y="611"/>
      <point x="183" y="611" type="curve" smooth="yes"/>
      <point x="254" y="611"/>
      <point x="283" y="575"/>
      <point x="283" y="464" type="curve" smooth="yes"/>
      <point x="283" y="306"/>
      <point x="240" y="285"/>
      <point x="107" y="285" type="curve"/>
    </contour>
    <contour>
      <point x="168" y="-10" type="curve" smooth="yes"/>
      <point x="341" y="-10"/>
      <point x="435" y="21"/>
      <point x="435" y="132" type="curve" smooth="yes"/>
      <point x="435" y="224"/>
      <point x="352" y="286"/>
      <point x="107" y="285" type="curve"/>
      <point x="111" y="179" type="line"/>
      <point x="144" y="180"/>
      <point x="173" y="182"/>
      <point x="199" y="182" type="curve" smooth="yes"/>
      <point x="249" y="182"/>
      <point x="290" y="183"/>
      <point x="290" y="139" type="curve" smooth="yes"/>
      <point x="290" y="91"/>
      <point x="248" y="90"/>
      <point x="204" y="90" type="curve" smooth="yes"/>
      <point x="170" y="90"/>
      <point x="130" y="94"/>
      <point x="88" y="99" type="curve"/>
      <point x="22" y="-5" type="line"/>
      <point x="71" y="-8"/>
      <point x="127" y="-10"/>
    </contour>
    <contour>
      <point x="22" y="-5" type="curve"/>
      <point x="169" y="3" type="line"/>
      <point x="169" y="3"/>
      <point x="166" y="238"/>
      <point x="166" y="353" type="curve"/>
      <point x="166" y="468"/>
      <point x="168" y="704"/>
      <point x="168" y="704" type="curve"/>
      <point x="18" y="713" type="line"/>
      <point x="18" y="713"/>
      <point x="26" y="525"/>
      <point x="26" y="355" type="curve"/>
      <point x="26" y="187"/>
      <point x="22" y="-5"/>
    </contour>
  </outline>
</glyph>
<glyph name="C" format="2">
  <advance width="426"/>
  <unicode hex="0043"/>
  <anchor x="219" y="0" name="bottom"/>
  <anchor x="227" y="693" name="top"/>
  <outline>
    <contour>
      <point x="210" y="-3" type="curve"/>
      <point x="346" y="-3"/>
      <point x="402" y="57"/>
      <point x="402" y="173" type="curve" smooth="yes"/>
      <point x="402" y="188"/>
      <point x="401" y="205"/>
      <point x="399" y="223" type="curve"/>
      <point x="264" y="221" type="line"/>
      <point x="265" y="206"/>
      <point x="266" y="193"/>
      <point x="266" y="182" type="curve" smooth="yes"/>
      <point x="266" y="134"/>
      <point x="255" y="112"/>
      <point x="226" y="112" type="curve" smooth="yes"/>
      <point x="197" y="112"/>
      <point x="184" y="134"/>
      <point x="178" y="184" type="curve" smooth="yes"/>
      <point x="174" y="219"/>
      <point x="174" y="267"/>
      <point x="174" y="330" type="curve" smooth="yes"/>
      <point x="174" y="411"/>
      <point x="174" y="474"/>
      <point x="179" y="518" type="curve" smooth="yes"/>
      <point x="185" y="569"/>
      <point x="199" y="595"/>
      <point x="226" y="595" type="curve" smooth="yes"/>
      <point x="257" y="595"/>
      <point x="265" y="566"/>
      <point x="265" y="510" type="curve" smooth="yes"/>
      <point x="265" y="470"/>
      <point x="261" y="417"/>
      <point x="258" y="350" type="curve"/>
      <point x="398" y="350" type="line"/>
      <point x="403" y="401"/>
      <point x="406" y="447"/>
      <point x="406" y="489" type="curve" smooth="yes"/>
      <point x="406" y="626"/>
      <point x="369" y="708"/>
      <point x="228" y="708" type="curve" smooth="yes"/>
      <point x="130" y="708"/>
      <point x="77" y="654"/>
      <point x="50" y="568" type="curve" smooth="yes"/>
      <point x="32" y="511"/>
      <point x="25" y="440"/>
      <point x="25" y="362" type="curve" smooth="yes"/>
      <point x="25" y="271"/>
      <point x="29" y="189"/>
      <point x="47" y="127" type="curve" smooth="yes"/>
      <point x="70" y="47"/>
      <point x="117" y="-3"/>
    </contour>
  </outline>
</glyph>
<glyph name="D" format="2">
  <advance width="447"/>
  <unicode hex="0044"/>
  <anchor x="173" y="348" name="center"/>
  <anchor x="227" y="693" name="top"/>
  <outline>
    <contour>
      <point x="148" y="-11" type="curve" smooth="yes"/>
      <point x="398" y="-11"/>
      <point x="433" y="91"/>
      <point x="433" y="355" type="curve" smooth="yes"/>
      <point x="433" y="608"/>
      <point x="388" y="708"/>
      <point x="186" y="708" type="curve" smooth="yes"/>
      <point x="145" y="708"/>
      <point x="87" y="704"/>
      <point x="32" y="695" type="curve"/>
      <point x="104" y="589" type="line"/>
      <point x="140" y="597"/>
      <point x="180" y="602"/>
      <point x="204" y="602" type="curve" smooth="yes"/>
      <point x="281" y="602"/>
      <point x="283" y="525"/>
      <point x="283" y="362" type="curve" smooth="yes"/>
      <point x="283" y="186"/>
      <point x="289" y="92"/>
      <point x="195" y="92" type="curve" smooth="yes"/>
      <point x="172" y="92"/>
      <point x="125" y="94"/>
      <point x="93" y="100" type="curve"/>
      <point x="35" y="-6" type="line"/>
      <point x="72" y="-9"/>
      <point x="117" y="-11"/>
    </contour>
    <contour>
      <point x="35" y="-6" type="curve"/>
      <point x="182" y="-4" type="line"/>
      <point x="181" y="98"/>
      <point x="179" y="265"/>
      <point x="179" y="350" type="curve"/>
      <point x="179" y="456"/>
      <point x="180" y="579"/>
      <point x="182" y="691" type="curve"/>
      <point x="32" y="695" type="line"/>
      <point x="35" y="610"/>
      <point x="39" y="457"/>
      <point x="39" y="350" type="curve"/>
      <point x="39" y="227"/>
      <point x="37" y="74"/>
    </contour>
  </outline>
</glyph>
<glyph name="E" format="2">
  <advance width="393"/>
  <unicode hex="0045"/>
  <anchor x="202" y="0" name="bottom"/>
  <anchor x="310" y="-1" name="ogonek"/>
  <anchor x="204" y="693" name="top"/>
  <outline>
    <contour>
      <point x="36" y="-1" type="curve"/>
      <point x="182" y="3" type="line"/>
      <point x="182" y="3"/>
      <point x="179" y="223"/>
      <point x="179" y="341" type="curve"/>
      <point x="179" y="457"/>
      <point x="182" y="688"/>
      <point x="182" y="688" type="curve"/>
      <point x="32" y="702" type="line"/>
      <point x="32" y="702"/>
      <point x="40" y="513"/>
      <point x="40" y="342" type="curve"/>
      <point x="40" y="173"/>
      <point x="36" y="-1"/>
    </contour>
    <contour>
      <point x="36" y="-1" type="line"/>
      <point x="373" y="0" type="line"/>
      <point x="372" y="95" type="line"/>
      <point x="104" y="100" type="line"/>
    </contour>
    <contour>
      <point x="100" y="180" type="line"/>
      <point x="368" y="184" type="line"/>
      <point x="370" y="293" type="line"/>
      <point x="100" y="296" type="line"/>
    </contour>
    <contour>
      <point x="91" y="591" type="line"/>
      <point x="361" y="592" type="line"/>
      <point x="361" y="693" type="line"/>
      <point x="32" y="702" type="line"/>
    </contour>
  </outline>
</glyph>
<glyph name="F" format="2">
  <advance width="370"/>
  <unicode hex="0046"/>
  <outline>
    <contour>
      <point x="38" y="4" type="curve"/>
      <point x="191" y="4" type="line"/>
      <point x="191" y="4"/>
      <point x="188" y="235"/>
      <point x="188" y="361" type="curve"/>
      <point x="188" y="477"/>
      <point x="191" y="693"/>
      <point x="191" y="693" type="curve"/>
      <point x="34" y="707" type="line"/>
      <point x="34" y="707"/>
      <point x="42" y="532"/>
      <point x="42" y="361" type="curve"/>
      <point x="42" y="192"/>
      <point x="38" y="4"/>
    </contour>
    <contour>
      <point x="102" y="249" type="line"/>
      <point x="359" y="252" type="line"/>
      <point x="357" y="366" type="line"/>
      <point x="102" y="369" type="line"/>
    </contour>
    <contour>
      <point x="90" y="591" type="line"/>
      <point x="354" y="591" type="line"/>
      <point x="357" y="698" type="line"/>
      <point x="34" y="707" type="line"/>
    </contour>
  </outline>
</glyph>
<glyph name="G" format="2">
  <advance width="429"/>
  <unicode hex="0047"/>
  <anchor x="218" y="-8" name="bottom"/>
  <anchor x="224" y="693" name="top"/>
  <outline>
    <contour>
      <point x="19" y="340" type="curve" smooth="yes"/>
      <point x="19" y="260"/>
      <point x="24" y="186"/>
      <point x="41" y="127" type="curve" smooth="yes"/>
      <point x="65" y="45"/>
      <point x="113" y="-8"/>
      <point x="209" y="-8" type="curve" smooth="yes"/>
      <point x="274" y="-8"/>
      <point x="308" y="13"/>
      <point x="329" y="42" type="curve"/>
      <point x="344" y="0" type="line"/>
      <point x="409" y="0" type="line"/>
      <point x="407" y="286" type="line"/>
      <point x="231" y="288" type="line"/>
      <point x="231" y="190" type="line"/>
      <point x="288" y="192" type="line"/>
      <point x="289" y="183"/>
      <point x="290" y="175"/>
      <point x="290" y="168" type="curve" smooth="yes"/>
      <point x="290" y="126"/>
      <point x="270" y="108"/>
      <point x="233" y="108" type="curve" smooth="yes"/>
      <point x="197" y="108"/>
      <point x="181" y="138"/>
      <point x="174" y="189" type="curve" smooth="yes"/>
      <point x="168" y="232"/>
      <point x="168" y="291"/>
      <point x="168" y="361" type="curve" smooth="yes"/>
      <point x="168" y="426"/>
      <point x="168" y="483"/>
      <point x="175" y="525" type="curve" smooth="yes"/>
      <point x="181" y="572"/>
      <point x="197" y="601"/>
      <point x="225" y="601" type="curve" smooth="yes"/>
      <point x="258" y="601"/>
      <point x="266" y="570"/>
      <point x="266" y="516" type="curve" smooth="yes"/>
      <point x="266" y="479"/>
      <point x="261" y="432"/>
      <point x="256" y="378" type="curve"/>
      <point x="396" y="377" type="line"/>
      <point x="403" y="426"/>
      <point x="407" y="471"/>
      <point x="407" y="511" type="curve" smooth="yes"/>
      <point x="407" y="636"/>
      <point x="365" y="714"/>
      <point x="232" y="714" type="curve" smooth="yes"/>
      <point x="131" y="714"/>
      <point x="76" y="658"/>
      <point x="47" y="570" type="curve" smooth="yes"/>
      <point x="26" y="507"/>
      <point x="19" y="427"/>
    </contour>
  </outline>
</glyph>
<glyph name="H" format="2">
  <advance width="472"/>
  <unicode hex="0048"/>
  <anchor x="236" y="0" name="bottom"/>
  <anchor x="235" y="459" name="center"/>
  <anchor x="235" y="693" name="top"/>
  <outline>
    <contour>
      <point x="276" y="0" type="curve"/>
      <point x="432" y="0" type="line"/>
      <point x="429" y="97"/>
      <point x="428" y="241"/>
      <point x="428" y="383" type="curve" smooth="yes"/>
      <point x="428" y="518"/>
      <point x="432" y="619"/>
      <point x="435" y="708" type="curve"/>
      <point x="280" y="706" type="line"/>
      <point x="282" y="627"/>
      <point x="283" y="463"/>
      <point x="283" y="381" type="curve" smooth="yes"/>
      <point x="283" y="297"/>
      <point x="280" y="118"/>
    </contour>
    <contour>
      <point x="99" y="290" type="line"/>
      <point x="99" y="182" type="line"/>
      <point x="379" y="177" type="line"/>
      <point x="379" y="296" type="line"/>
    </contour>
    <contour>
      <point x="40" y="2" type="curve"/>
      <point x="191" y="3" type="line"/>
      <point x="191" y="80"/>
      <point x="188" y="285"/>
      <point x="188" y="352" type="curve" smooth="yes"/>
      <point x="188" y="440"/>
      <point x="191" y="623"/>
      <point x="191" y="698" type="curve"/>
      <point x="37" y="694" type="line"/>
      <point x="39" y="621"/>
      <point x="44" y="480"/>
      <point x="44" y="353" type="curve" smooth="yes"/>
      <point x="44" y="233"/>
      <point x="43" y="98"/>
    </contour>
  </outline>
</glyph>
<glyph name="I" format="2">
  <advance width="209"/>
  <unicode hex="0049"/>
  <anchor x="105" y="0" name="bottom"/>
  <anchor x="92" y="0" name="ogonek"/>
  <anchor x="107" y="693" name="top"/>
  <outline>
    <contour>
      <point x="30" y="702" type="line"/>
      <point x="31" y="626"/>
      <point x="34" y="470"/>
      <point x="34" y="396" type="curve"/>
      <point x="34" y="296"/>
      <point x="26" y="0"/>
      <point x="26" y="0" type="curve"/>
      <point x="181" y="1" type="line"/>
      <point x="181" y="1"/>
      <point x="178" y="212"/>
      <point x="178" y="398" type="curve"/>
      <point x="178" y="585"/>
      <point x="184" y="704"/>
      <point x="184" y="704" type="curve"/>
    </contour>
  </outline>
</glyph>
<glyph name="K" format="2">
  <advance width="419"/>
  <unicode hex="004B"/>
  <anchor x="236" y="0" name="bottom"/>
  <outline>
    <contour>
      <point x="290" y="1" type="curve"/>
      <point x="464" y="6" type="line"/>
      <point x="370" y="128"/>
      <point x="315" y="209"/>
      <point x="259" y="297" type="curve"/>
      <point x="309" y="401"/>
      <point x="398" y="592"/>
      <point x="459" y="705" type="curve"/>
      <point x="306" y="702" type="line"/>
      <point x="263" y="596"/>
      <point x="192" y="422"/>
      <point x="120" y="271" type="curve"/>
      <point x="178" y="191"/>
      <point x="235" y="102"/>
    </contour>
    <contour>
      <point x="33" y="2" type="curve"/>
      <point x="184" y="3" type="line"/>
      <point x="184" y="80"/>
      <point x="181" y="285"/>
      <point x="181" y="352" type="curve" smooth="yes"/>
      <point x="181" y="440"/>
      <point x="184" y="623"/>
      <point x="184" y="698" type="curve"/>
      <point x="30" y="704" type="line"/>
      <point x="32" y="631"/>
      <point x="37" y="480"/>
      <point x="37" y="353" type="curve" smooth="yes"/>
      <point x="37" y="233"/>
      <point x="36" y="98"/>
    </contour>
  </outline>
</glyph>
<glyph name="L" format="2">
  <advance width="358"/>
  <unicode hex="004C"/>
  <anchor x="178" y="0" name="bottom"/>
  <anchor x="166" y="350" name="center"/>
  <anchor x="105" y="693" name="top"/>
  <anchor x="200" y="478" name="topright"/>
  <outline>
    <contour>
      <point x="36" y="-4" type="curve"/>
      <point x="182" y="3" type="line"/>
      <point x="182" y="3"/>
      <point x="180" y="226"/>
      <point x="180" y="343" type="curve"/>
      <point x="180" y="459"/>
      <point x="182" y="703"/>
      <point x="182" y="703" type="curve"/>
      <point x="32" y="696" type="line"/>
      <point x="32" y="696"/>
      <point x="40" y="516"/>
      <point x="40" y="345" type="curve"/>
      <point x="40" y="176"/>
      <point x="36" y="-4"/>
    </contour>
    <contour>
      <point x="36" y="-4" type="line"/>
      <point x="368" y="-1" type="line"/>
      <point x="368" y="97" type="line"/>
      <point x="104" y="100" type="line"/>
    </contour>
  </outline>
</glyph>
<glyph name="M" format="2">
  <advance width="644"/>
  <unicode hex="004D"/>
  <outline>
    <contour>
      <point x="34" y="-1" type="curve"/>
      <point x="170" y="-1" type="line"/>
      <point x="169" y="38"/>
      <point x="169" y="155"/>
      <point x="168" y="256" type="curve" smooth="yes"/>
      <point x="167" y="329"/>
      <point x="167" y="394"/>
      <point x="167" y="413" type="curve"/>
      <point x="177" y="364"/>
      <point x="188" y="313"/>
      <point x="200" y="256" type="curve" smooth="yes"/>
      <point x="214" y="188"/>
      <point x="230" y="110"/>
      <point x="250" y="18" type="curve"/>
      <point x="388" y="12" type="line"/>
      <point x="402" y="84"/>
      <point x="419" y="168"/>
      <point x="435" y="249" type="curve" smooth="yes"/>
      <point x="448" y="314"/>
      <point x="461" y="377"/>
      <point x="472" y="428" type="curve"/>
      <point x="472" y="362"/>
      <point x="472" y="303"/>
      <point x="472" y="251" type="curve" smooth="yes"/>
      <point x="472" y="118"/>
      <point x="472" y="32"/>
      <point x="471" y="0" type="curve"/>
      <point x="611" y="-2" type="line"/>
      <point x="610" y="66"/>
      <point x="609" y="206"/>
      <point x="608" y="345" type="curve" smooth="yes"/>
      <point x="608" y="492"/>
      <point x="608" y="637"/>
      <point x="610" y="697" type="curve"/>
      <point x="418" y="697" type="line"/>
      <point x="388" y="531"/>
      <point x="374" y="462"/>
      <point x="352" y="351" type="curve" smooth="yes"/>
      <point x="343" y="308"/>
      <point x="333" y="260"/>
      <point x="321" y="198" type="curve"/>
      <point x="313" y="239"/>
      <point x="303" y="291"/>
      <point x="292" y="349" type="curve" smooth="yes"/>
      <point x="271" y="461"/>
      <point x="245" y="593"/>
      <point x="225" y="704" type="curve"/>
      <point x="35" y="702" type="line"/>
      <point x="36" y="615"/>
      <point x="36" y="487"/>
      <point x="36" y="360" type="curve" smooth="yes"/>
      <point x="36" y="221"/>
      <point x="36" y="82"/>
    </contour>
  </outline>
</glyph>
<glyph name="P" format="2">
  <advance width="407"/>
  <unicode hex="0050"/>
  <outline>
    <contour>
      <point x="117" y="210" type="line"/>
      <point x="297" y="210"/>
      <point x="417" y="280"/>
      <point x="417" y="476" type="curve" smooth="yes"/>
      <point x="417" y="670"/>
      <point x="332" y="718"/>
      <point x="159" y="718" type="curve" smooth="yes"/>
      <point x="121" y="718"/>
      <point x="69" y="716"/>
      <point x="23" y="712" type="curve"/>
      <point x="85" y="599" type="line"/>
      <point x="122" y="605"/>
      <point x="163" y="609"/>
      <point x="189" y="609" type="curve" smooth="yes"/>
      <point x="250" y="609"/>
      <point x="273" y="574"/>
      <point x="273" y="473" type="curve" smooth="yes"/>
      <point x="273" y="368"/>
      <point x="242" y="307"/>
      <point x="117" y="321" type="curve"/>
    </contour>
    <contour>
      <point x="27" y="-5" type="curve"/>
      <point x="173" y="5" type="line"/>
      <point x="172" y="105"/>
      <point x="170" y="269"/>
      <point x="170" y="354" type="curve"/>
      <point x="168" y="464"/>
      <point x="167" y="620"/>
      <point x="172" y="702" type="curve"/>
      <point x="23" y="712" type="line"/>
      <point x="26" y="631"/>
      <point x="31" y="477"/>
      <point x="31" y="352" type="curve"/>
      <point x="31" y="228"/>
      <point x="29" y="75"/>
    </contour>
  </outline>
</glyph>
<glyph name="R" format="2">
  <advance width="433"/>
  <unicode hex="0052"/>
  <anchor x="228" y="0" name="bottom"/>
  <anchor x="215" y="693" name="top"/>
  <outline>
    <contour>
      <point x="122" y="220" type="line"/>
      <point x="302" y="220"/>
      <point x="422" y="290"/>
      <point x="422" y="481" type="curve" smooth="yes"/>
      <point x="422" y="673"/>
      <point x="335" y="718"/>
      <point x="164" y="718" type="curve" smooth="yes"/>
      <point x="126" y="718"/>
      <point x="74" y="716"/>
      <point x="28" y="712" type="curve"/>
      <point x="90" y="599" type="line"/>
      <point x="127" y="605"/>
      <point x="164" y="609"/>
      <point x="190" y="609" type="curve" smooth="yes"/>
      <point x="249" y="609"/>
      <point x="278" y="577"/>
      <point x="278" y="478" type="curve" smooth="yes"/>
      <point x="278" y="378"/>
      <point x="228" y="317"/>
      <point x="122" y="331" type="curve"/>
    </contour>
    <contour>
      <point x="32" y="-5" type="curve"/>
      <point x="178" y="5" type="line"/>
      <point x="177" y="105"/>
      <point x="175" y="269"/>
      <point x="175" y="354" type="curve"/>
      <point x="173" y="464"/>
      <point x="172" y="635"/>
      <point x="177" y="702" type="curve"/>
      <point x="28" y="712" type="line"/>
      <point x="31" y="631"/>
      <point x="36" y="477"/>
      <point x="36" y="352" type="curve"/>
      <point x="36" y="228"/>
      <point x="34" y="75"/>
    </contour>
    <contour>
      <point x="306" y="-6" type="curve"/>
      <point x="472" y="-3" type="line"/>
      <point x="411" y="106"/>
      <point x="373" y="206"/>
      <point x="335" y="305" type="curve"/>
      <point x="201" y="274" type="line"/>
      <point x="240" y="175"/>
      <point x="275" y="86"/>
    </contour>
  </outline>
</glyph>
<glyph name="S" format="2">
  <advance width="422"/>
  <unicode hex="0053"/>
  <anchor x="208" y="0" name="bottom"/>
  <anchor x="218" y="693" name="top"/>
  <outline>
    <contour>
      <point x="208" y="-10" type="curve" smooth="yes"/>
      <point x="366" y="-10"/>
      <point x="426" y="74"/>
      <point x="426" y="164" type="curve" smooth="yes"/>
      <point x="426" y="288"/>
      <point x="333" y="332"/>
      <point x="241" y="375" type="curve" smooth="yes"/>
      <point x="176" y="405"/>
      <point x="138" y="432"/>
      <point x="138" y="501" type="curve" smooth="yes"/>
      <point x="138" y="559"/>
      <point x="159" y="598"/>
      <point x="211" y="598" type="curve" smooth="yes"/>
      <point x="264" y="598"/>
      <point x="280" y="559"/>
      <point x="280" y="491" type="curve" smooth="yes"/>
      <point x="280" y="464"/>
      <point x="278" y="432"/>
      <point x="274" y="396" type="curve"/>
      <point x="417" y="396" type="line"/>
      <point x="423" y="432"/>
      <point x="427" y="465"/>
      <point x="427" y="495" type="curve" smooth="yes"/>
      <point x="427" y="624"/>
      <point x="366" y="705"/>
      <point x="216" y="705" type="curve" smooth="yes"/>
      <point x="59" y="705"/>
      <point x="-4" y="610"/>
      <point x="-4" y="493" type="curve" smooth="yes"/>
      <point x="-4" y="353"/>
      <point x="83" y="294"/>
      <point x="173" y="252" type="curve" smooth="yes"/>
      <point x="242" y="220"/>
      <point x="283" y="207"/>
      <point x="283" y="159" type="curve" smooth="yes"/>
      <point x="283" y="123"/>
      <point x="264" y="95"/>
      <point x="204" y="95" type="curve" smooth="yes"/>
      <point x="160" y="95"/>
      <point x="131" y="124"/>
      <point x="131" y="175" type="curve" smooth="yes"/>
      <point x="131" y="191"/>
      <point x="134" y="210"/>
      <point x="141" y="231" type="curve"/>
      <point x="6" y="231" type="line"/>
      <point x="1" y="209"/>
      <point x="-2" y="187"/>
      <point x="-2" y="167" type="curve" smooth="yes"/>
      <point x="-2" y="61"/>
      <point x="70" y="-10"/>
    </contour>
  </outline>
</glyph>
<glyph name="U" format="2">
  <advance width="455"/>
  <unicode hex="0055"/>
  <anchor x="228" y="0" name="bottom"/>
  <anchor x="258" y="0" name="ogonek"/>
  <anchor x="229" y="693" name="top"/>
  <anchor x="333" y="703" name="topright"/>
  <outline>
    <contour>
      <point x="227" y="-10" type="curve"/>
      <point x="382" y="-10"/>
      <point x="421" y="109"/>
      <point x="421" y="195" type="curve" smooth="yes"/>
      <point x="421" y="225"/>
      <point x="421" y="308"/>
      <point x="420" y="422" type="curve"/>
      <point x="420" y="554"/>
      <point x="422" y="617"/>
      <point x="423" y="706" type="curve"/>
      <point x="274" y="707" type="line"/>
      <point x="276" y="645"/>
      <point x="279" y="551"/>
      <point x="280" y="424" type="curve"/>
      <point x="280" y="302"/>
      <point x="279" y="259"/>
      <point x="279" y="239" type="curve" smooth="yes"/>
      <point x="279" y="174"/>
      <point x="277" y="112"/>
      <point x="230" y="112" type="curve" smooth="yes"/>
      <point x="183" y="112"/>
      <point x="175" y="155"/>
      <point x="175" y="252" type="curve" smooth="yes"/>
      <point x="175" y="292"/>
      <point x="175" y="349"/>
      <point x="176" y="426" type="curve"/>
      <point x="177" y="494"/>
      <point x="178" y="607"/>
      <point x="181" y="695" type="curve"/>
      <point x="33" y="696" type="line"/>
      <point x="36" y="603"/>
      <point x="36" y="522"/>
      <point x="36" y="432" type="curve"/>
      <point x="36" y="364"/>
      <point x="35" y="263"/>
      <point x="35" y="193" type="curve" smooth="yes"/>
      <point x="35" y="79"/>
      <point x="86" y="-10"/>
    </contour>
  </outline>
</glyph>
<glyph name="V" format="2">
  <advance width="430"/>
  <unicode hex="0056"/>
  <outline>
    <contour>
      <point x="-5" y="704" type="line"/>
      <point x="17" y="601"/>
      <point x="45" y="467"/>
      <point x="69" y="331" type="curve" smooth="yes"/>
      <point x="88" y="222"/>
      <point x="111" y="107"/>
      <point x="132" y="-9" type="curve"/>
      <point x="304" y="-1" type="line"/>
      <point x="323" y="114"/>
      <point x="347" y="231"/>
      <point x="367" y="341" type="curve" smooth="yes"/>
      <point x="391" y="471"/>
      <point x="422" y="608"/>
      <point x="442" y="705" type="curve"/>
      <point x="293" y="697" type="line"/>
      <point x="281" y="591"/>
      <point x="264" y="459"/>
      <point x="247" y="345" type="curve" smooth="yes"/>
      <point x="236" y="273"/>
      <point x="228" y="205"/>
      <point x="220" y="150" type="curve"/>
      <point x="213" y="207"/>
      <point x="204" y="274"/>
      <point x="194" y="347" type="curve" smooth="yes"/>
      <point x="178" y="463"/>
      <point x="162" y="591"/>
      <point x="153" y="701" type="curve"/>
    </contour>
  </outline>
</glyph>
<glyph name="W" format="2">
  <advance width="733"/>
  <unicode hex="0057"/>
  <anchor x="376" y="693" name="top"/>
  <outline>
    <contour>
      <point x="282" y="-11" type="line"/>
      <point x="297" y="59"/>
      <point x="328" y="214"/>
      <point x="349" y="327" type="curve" smooth="yes"/>
      <point x="358" y="375"/>
      <point x="366" y="415"/>
      <point x="371" y="439" type="curve"/>
      <point x="373" y="427"/>
      <point x="382" y="378"/>
      <point x="394" y="317" type="curve" smooth="yes"/>
      <point x="417" y="199"/>
      <point x="445" y="35"/>
      <point x="454" y="-8" type="curve"/>
      <point x="611" y="-11" type="line"/>
      <point x="634" y="115"/>
      <point x="661" y="261"/>
      <point x="684" y="390" type="curve" smooth="yes"/>
      <point x="709" y="530"/>
      <point x="732" y="649"/>
      <point x="742" y="703" type="curve"/>
      <point x="591" y="695" type="line"/>
      <point x="587" y="638"/>
      <point x="572" y="512"/>
      <point x="558" y="395" type="curve" smooth="yes"/>
      <point x="547" y="303"/>
      <point x="536" y="217"/>
      <point x="530" y="175" type="curve"/>
      <point x="519" y="232"/>
      <point x="507" y="295"/>
      <point x="495" y="360" type="curve" smooth="yes"/>
      <point x="478" y="454"/>
      <point x="460" y="554"/>
      <point x="445" y="657" type="curve"/>
      <point x="303" y="657" type="line"/>
      <point x="293" y="599"/>
      <point x="271" y="488"/>
      <point x="250" y="377" type="curve" smooth="yes"/>
      <point x="236" y="304"/>
      <point x="222" y="231"/>
      <point x="210" y="173" type="curve"/>
      <point x="205" y="213"/>
      <point x="196" y="292"/>
      <point x="186" y="380" type="curve" smooth="yes"/>
      <point x="173" y="497"/>
      <point x="160" y="629"/>
      <point x="153" y="706" type="curve"/>
      <point x="-4" y="707" type="line"/>
      <point x="9" y="634"/>
      <point x="37" y="478"/>
      <point x="64" y="329" type="curve" smooth="yes"/>
      <point x="91" y="179"/>
      <point x="118" y="37"/>
      <point x="126" y="-8" type="curve"/>
    </contour>
  </outline>
</glyph>
<glyph name="X" format="2">
  <advance width="413"/>
  <unicode hex="0058"/>
  <outline>
    <contour>
      <point x="-35" y="-2" type="curve"/>
      <point x="115" y="-1" type="line"/>
      <point x="159" y="102"/>
      <point x="200" y="201"/>
      <point x="246" y="298" type="curve" smooth="yes"/>
      <point x="312" y="432"/>
      <point x="379" y="561"/>
      <point x="447" y="691" type="curve"/>
      <point x="297" y="692" type="line"/>
      <point x="262" y="610"/>
      <point x="223" y="512"/>
      <point x="173" y="411" type="curve" smooth="yes"/>
      <point x="106" y="271"/>
      <point x="32" y="123"/>
    </contour>
    <contour>
      <point x="293" y="-11" type="curve"/>
      <point x="449" y="-7" type="line"/>
      <point x="370" y="151"/>
      <point x="300" y="304"/>
      <point x="233" y="447" type="curve" smooth="yes"/>
      <point x="193" y="532"/>
      <point x="161" y="612"/>
      <point x="129" y="688" type="curve"/>
      <point x="-26" y="690" type="line"/>
      <point x="27" y="588"/>
      <point x="98" y="444"/>
      <point x="169" y="291" type="curve" smooth="yes"/>
      <point x="215" y="191"/>
      <point x="256" y="87"/>
    </contour>
  </outline>
</glyph>
<glyph name="Y" format="2">
  <advance width="379"/>
  <unicode hex="0059"/>
  <anchor x="189" y="0" name="bottom"/>
  <anchor x="191" y="693" name="top"/>
  <outline>
    <contour>
      <point x="115" y="0" type="curve"/>
      <point x="264" y="1" type="line"/>
      <point x="259" y="70"/>
      <point x="258" y="130"/>
      <point x="258" y="224" type="curve"/>
      <point x="116" y="234" type="line"/>
      <point x="119" y="134"/>
      <point x="117" y="48"/>
    </contour>
    <contour>
      <point x="-39" y="704" type="line"/>
      <point x="-18" y="637"/>
      <point x="11" y="544"/>
      <point x="39" y="448" type="curve" smooth="yes"/>
      <point x="73" y="332"/>
      <point x="110" y="215"/>
      <point x="131" y="137" type="curve"/>
      <point x="244" y="136" type="line"/>
      <point x="262" y="200"/>
      <point x="309" y="345"/>
      <point x="352" y="481" type="curve" smooth="yes"/>
      <point x="379" y="567"/>
      <point x="407" y="648"/>
      <point x="424" y="698" type="curve"/>
      <point x="271" y="694" type="line"/>
      <point x="258" y="636"/>
      <point x="242" y="568"/>
      <point x="228" y="505" type="curve" smooth="yes"/>
      <point x="214" y="444"/>
      <point x="200" y="389"/>
      <point x="190" y="354" type="curve"/>
      <point x="184" y="376"/>
      <point x="171" y="432"/>
      <point x="157" y="496" type="curve" smooth="yes"/>
      <point x="141" y="567"/>
      <point x="126" y="648"/>
      <point x="116" y="704" type="curve"/>
    </contour>
  </outline>
</glyph>
<glyph name="Z" format="2">
  <advance width="363"/>
  <unicode hex="005A"/>
  <anchor x="187" y="693" name="top"/>
  <outline>
    <contour>
      <point x="5" y="693" type="curve"/>
      <point x="1" y="581" type="line"/>
      <point x="46" y="581"/>
      <point x="64" y="584"/>
      <point x="139" y="584" type="curve" smooth="yes"/>
      <point x="160" y="584"/>
      <point x="186" y="583"/>
      <point x="205" y="584" type="curve"/>
      <point x="167" y="493"/>
      <point x="140" y="426"/>
      <point x="111" y="360" type="curve" smooth="yes"/>
      <point x="79" y="287"/>
      <point x="44" y="215"/>
      <point x="-8" y="111" type="curve"/>
      <point x="-1" y="1" type="line"/>
      <point x="30" y="2"/>
      <point x="124" y="3"/>
      <point x="179" y="3" type="curve" smooth="yes"/>
      <point x="258" y="3"/>
      <point x="317" y="0"/>
      <point x="367" y="0" type="curve"/>
      <point x="368" y="114" type="line"/>
      <point x="313" y="114"/>
      <point x="300" y="111"/>
      <point x="224" y="111" type="curve" smooth="yes"/>
      <point x="194" y="111"/>
      <point x="165" y="111"/>
      <point x="138" y="111" type="curve"/>
      <point x="169" y="181"/>
      <point x="199" y="247"/>
      <point x="235" y="328" type="curve" smooth="yes"/>
      <point x="266" y="397"/>
      <point x="303" y="478"/>
      <point x="353" y="581" type="curve"/>
      <point x="354" y="695" type="line"/>
      <point x="289" y="694"/>
      <point x="229" y="693"/>
      <point x="188" y="692" type="curve" smooth="yes"/>
      <point x="137" y="691"/>
      <point x="74" y="694"/>
    </contour>
  </outline>
</glyph>
<glyph name="bracketleft" format="2">
  <advance width="414"/>
  <unicode hex="005B"/>
  <outline>
    <contour>
      <point x="59" y="-139" type="curve"/>
      <point x="184" y="-128" type="line"/>
      <point x="179" y="123"/>
      <point x="179" y="172"/>
      <point x="179" y="296" type="curve" smooth="yes"/>
      <point x="179" y="393"/>
      <point x="182" y="460"/>
      <point x="184" y="671" type="curve"/>
      <point x="60" y="692" type="line"/>
      <point x="60" y="700"/>
      <point x="64" y="509"/>
      <point x="64" y="303" type="curve" smooth="yes"/>
      <point x="64" y="98"/>
      <point x="62" y="-85"/>
    </contour>
    <contour>
      <point x="59" y="-139" type="line"/>
      <point x="47" y="-139"/>
      <point x="101" y="-138"/>
      <point x="341" y="-130" type="curve"/>
      <point x="349" y="-9" type="line"/>
      <point x="178" y="-16"/>
      <point x="109" y="-21"/>
      <point x="87" y="-24" type="curve"/>
    </contour>
    <contour>
      <point x="76" y="594" type="line"/>
      <point x="122" y="595"/>
      <point x="353" y="596"/>
      <point x="348" y="596" type="curve"/>
      <point x="337" y="702" type="line"/>
      <point x="166" y="695"/>
      <point x="77" y="692"/>
      <point x="60" y="692" type="curve"/>
    </contour>
  </outline>
</glyph>
<glyph name="backslash" format="2">
  <advance width="362"/>
  <unicode hex="005C"/>
  <outline>
    <contour>
      <point x="352" y="-1" type="line"/>
      <point x="304" y="128"/>
      <point x="269" y="241"/>
      <point x="229" y="367" type="curve" smooth="yes"/>
      <point x="192" y="483"/>
      <point x="166" y="579"/>
      <point x="139" y="700" type="curve"/>
      <point x="10" y="698" type="line"/>
      <point x="42" y="597"/>
      <point x="71" y="492"/>
      <point x="112" y="366" type="curve" smooth="yes"/>
      <point x="154" y="236"/>
      <point x="191" y="119"/>
      <point x="225" y="0" type="curve"/>
    </contour>
  </outline>
</glyph>
<glyph name="bracketright" format="2">
  <advance width="414"/>
  <unicode hex="005D"/>
  <outline>
    <contour>
      <point x="354" y="-129" type="line"/>
      <point x="354" y="-137"/>
      <point x="350" y="54"/>
      <point x="350" y="260" type="curve" smooth="yes"/>
      <point x="350" y="465"/>
      <point x="352" y="648"/>
      <point x="355" y="702" type="curve"/>
      <point x="230" y="691" type="line"/>
      <point x="235" y="440"/>
      <point x="235" y="391"/>
      <point x="235" y="267" type="curve" smooth="yes"/>
      <point x="235" y="170"/>
      <point x="232" y="103"/>
      <point x="230" y="-108" type="curve"/>
    </contour>
    <contour>
      <point x="77" y="-139" type="line"/>
      <point x="248" y="-132"/>
      <point x="337" y="-129"/>
      <point x="354" y="-129" type="curve"/>
      <point x="338" y="-31" type="line"/>
      <point x="292" y="-32"/>
      <point x="61" y="-33"/>
      <point x="66" y="-33" type="curve"/>
    </contour>
    <contour>
      <point x="65" y="572" type="line"/>
      <point x="236" y="579"/>
      <point x="305" y="584"/>
      <point x="327" y="587" type="curve"/>
      <point x="355" y="702" type="line"/>
      <point x="261" y="699"/>
      <point x="167" y="696"/>
      <point x="73" y="693" type="curve"/>
    </contour>
  </outline>
</glyph>
<glyph name="underscore" format="2">
  <advance width="404"/>
  <unicode hex="005F"/>
  <outline>
    <contour>
      <point x="32" y="-129" type="line"/>
      <point x="32" y="-129"/>
      <point x="136" y="-126"/>
      <point x="203" y="-125" type="curve" smooth="yes"/>
      <point x="275" y="-124"/>
      <point x="372" y="-126"/>
      <point x="372" y="-126" type="curve"/>
      <point x="374" y="-32" type="line"/>
      <point x="374" y="-32"/>
      <point x="272" y="-35"/>
      <point x="197" y="-36" type="curve" smooth="yes"/>
      <point x="123" y="-37"/>
      <point x="30" y="-34"/>
      <point x="30" y="-34" type="curve"/>
    </contour>
  </outline>
</glyph>
<glyph name="grave" format="2">
  <advance width="215"/>
  <unicode hex="0060"/>
  <anchor x="115" y="555" name="_top"/>
  <outline>
    <contour>
      <point x="174" y="593" type="curve"/>
      <point x="214" y="653" type="line"/>
      <point x="187" y="669"/>
      <point x="158" y="686"/>
      <point x="129" y="704" type="curve" smooth="yes"/>
      <point x="100" y="722"/>
      <point x="70" y="743"/>
      <point x="42" y="764" type="curve"/>
      <point x="-8" y="684" type="line"/>
      <point x="26" y="668"/>
      <point x="58" y="654"/>
      <point x="88" y="639" type="curve" smooth="yes"/>
      <point x="117" y="624"/>
      <point x="145" y="610"/>
    </contour>
  </outline>
</glyph>
<glyph name="a" format="2">
  <advance width="358"/>
  <unicode hex="0061"/>
  <anchor x="168" y="0" name="bottom"/>
  <anchor x="282" y="-1" name="ogonek"/>
  <anchor x="177" y="555" name="top"/>
  <outline>
    <contour>
      <point x="220" y="0" type="line"/>
      <point x="340" y="0" type="line"/>
      <point x="338" y="264" type="line"/>
      <point x="341" y="384" type="line" smooth="yes"/>
      <point x="343" y="469"/>
      <point x="312" y="565"/>
      <point x="180" y="565" type="curve" smooth="yes"/>
      <point x="61" y="565"/>
      <point x="17" y="495"/>
      <point x="17" y="415" type="curve" smooth="yes"/>
      <point x="17" y="396"/>
      <point x="19" y="377"/>
      <point x="24" y="358" type="curve"/>
      <point x="150" y="365" type="line"/>
      <point x="146" y="379"/>
      <point x="142" y="397"/>
      <point x="142" y="414" type="curve" smooth="yes"/>
      <point x="142" y="441"/>
      <point x="151" y="462"/>
      <point x="179" y="462" type="curve" smooth="yes"/>
      <point x="204" y="462"/>
      <point x="214" y="446"/>
      <point x="215" y="425" type="curve" smooth="yes"/>
      <point x="224" y="85" type="line"/>
    </contour>
    <contour>
      <point x="128" y="-9" type="curve" smooth="yes"/>
      <point x="238" y="-9"/>
      <point x="264" y="153"/>
      <point x="264" y="351" type="curve"/>
      <point x="219" y="283" type="line"/>
      <point x="219" y="145"/>
      <point x="192" y="100"/>
      <point x="163" y="100" type="curve" smooth="yes"/>
      <point x="140" y="100"/>
      <point x="135" y="122"/>
      <point x="135" y="147" type="curve" smooth="yes"/>
      <point x="135" y="190"/>
      <point x="151" y="207"/>
      <point x="186" y="234" type="curve" smooth="yes"/>
      <point x="227" y="265"/>
      <point x="258" y="302"/>
      <point x="270" y="390" type="curve"/>
      <point x="215" y="425" type="line"/>
      <point x="215" y="370"/>
      <point x="196" y="337"/>
      <point x="153" y="312" type="curve" smooth="yes"/>
      <point x="83" y="271"/>
      <point x="7" y="235"/>
      <point x="7" y="122" type="curve" smooth="yes"/>
      <point x="7" y="46"/>
      <point x="48" y="-9"/>
    </contour>
  </outline>
</glyph>
<glyph name="b" format="2">
  <advance width="400"/>
  <unicode hex="0062"/>
  <outline>
    <contour>
      <point x="231" y="-7" type="curve" smooth="yes"/>
      <point x="298" y="-7"/>
      <point x="339" y="44"/>
      <point x="360" y="122" type="curve" smooth="yes"/>
      <point x="381" y="201"/>
      <point x="387" y="331"/>
      <point x="375" y="421" type="curve" smooth="yes"/>
      <point x="364" y="507"/>
      <point x="328" y="565"/>
      <point x="248" y="565" type="curve" smooth="yes"/>
      <point x="156" y="565"/>
      <point x="125" y="448"/>
      <point x="125" y="270" type="curve"/>
      <point x="162" y="312" type="line"/>
      <point x="162" y="425"/>
      <point x="187" y="462"/>
      <point x="208" y="462" type="curve" smooth="yes"/>
      <point x="232" y="462"/>
      <point x="239" y="430"/>
      <point x="240" y="379" type="curve" smooth="yes"/>
      <point x="241" y="337"/>
      <point x="241" y="192"/>
      <point x="238" y="159" type="curve" smooth="yes"/>
      <point x="234" y="117"/>
      <point x="224" y="88"/>
      <point x="203" y="88" type="curve" smooth="yes"/>
      <point x="177" y="88"/>
      <point x="162" y="130"/>
      <point x="162" y="258" type="curve"/>
      <point x="125" y="276" type="line"/>
      <point x="125" y="113"/>
      <point x="134" y="-7"/>
    </contour>
    <contour>
      <point x="146" y="-2" type="line"/>
      <point x="160" y="100" type="line"/>
      <point x="162" y="171"/>
      <point x="162" y="277"/>
      <point x="162" y="343" type="curve"/>
      <point x="162" y="465"/>
      <point x="164" y="584"/>
      <point x="165" y="690" type="curve"/>
      <point x="20" y="686" type="line"/>
      <point x="26" y="555"/>
      <point x="27" y="452"/>
      <point x="28" y="344" type="curve" smooth="yes"/>
      <point x="29" y="255"/>
      <point x="25" y="50"/>
      <point x="23" y="0" type="curve"/>
    </contour>
  </outline>
</glyph>
<glyph name="c" format="2">
  <advance width="373"/>
  <unicode hex="0063"/>
  <anchor x="201" y="0" name="bottom"/>
  <anchor x="189" y="555" name="top"/>
  <outline>
    <contour>
      <point x="189" y="-9" type="curve" smooth="yes"/>
      <point x="314" y="-9"/>
      <point x="362" y="48"/>
      <point x="362" y="158" type="curve" smooth="yes"/>
      <point x="362" y="167"/>
      <point x="362" y="177"/>
      <point x="361" y="188" type="curve"/>
      <point x="227" y="188" type="line"/>
      <point x="231" y="169"/>
      <point x="234" y="153"/>
      <point x="234" y="139" type="curve" smooth="yes"/>
      <point x="234" y="107"/>
      <point x="222" y="89"/>
      <point x="195" y="89" type="curve" smooth="yes"/>
      <point x="170" y="89"/>
      <point x="159" y="109"/>
      <point x="155" y="153" type="curve" smooth="yes"/>
      <point x="152" y="186"/>
      <point x="151" y="231"/>
      <point x="151" y="290" type="curve" smooth="yes"/>
      <point x="151" y="339"/>
      <point x="151" y="378"/>
      <point x="155" y="407" type="curve" smooth="yes"/>
      <point x="161" y="448"/>
      <point x="169" y="469"/>
      <point x="193" y="469" type="curve" smooth="yes"/>
      <point x="221" y="469"/>
      <point x="229" y="435"/>
      <point x="229" y="373" type="curve" smooth="yes"/>
      <point x="229" y="354"/>
      <point x="228" y="333"/>
      <point x="227" y="309" type="curve"/>
      <point x="362" y="306" type="line"/>
      <point x="364" y="326"/>
      <point x="365" y="345"/>
      <point x="365" y="364" type="curve" smooth="yes"/>
      <point x="365" y="482"/>
      <point x="325" y="564"/>
      <point x="198" y="564" type="curve" smooth="yes"/>
      <point x="99" y="564"/>
      <point x="51" y="513"/>
      <point x="29" y="428" type="curve" smooth="yes"/>
      <point x="18" y="385"/>
      <point x="14" y="333"/>
      <point x="14" y="275" type="curve" smooth="yes"/>
      <point x="14" y="213"/>
      <point x="18" y="156"/>
      <point x="32" y="110" type="curve" smooth="yes"/>
      <point x="54" y="37"/>
      <point x="99" y="-9"/>
    </contour>
  </outline>
</glyph>
<glyph name="d" format="2">
  <advance width="394"/>
  <unicode hex="0064"/>
  <anchor x="279" y="624" name="center"/>
  <anchor x="361" y="409" name="topright"/>
  <outline>
    <contour>
      <point x="20" y="273" type="curve" smooth="yes"/>
      <point x="20" y="212"/>
      <point x="22" y="155"/>
      <point x="31" y="109" type="curve" smooth="yes"/>
      <point x="45" y="37"/>
      <point x="80" y="-10"/>
      <point x="157" y="-10" type="curve" smooth="yes"/>
      <point x="194" y="-10"/>
      <point x="228" y="12"/>
      <point x="249" y="59" type="curve"/>
      <point x="254" y="-2" type="line"/>
      <point x="375" y="0" type="line"/>
      <point x="371" y="86"/>
      <point x="369" y="228"/>
      <point x="370" y="344" type="curve" smooth="yes"/>
      <point x="371" y="455"/>
      <point x="371" y="571"/>
      <point x="378" y="696" type="curve"/>
      <point x="240" y="690" type="line"/>
      <point x="241" y="643"/>
      <point x="241" y="575"/>
      <point x="242" y="528" type="curve"/>
      <point x="226" y="551"/>
      <point x="204" y="565"/>
      <point x="168" y="565" type="curve" smooth="yes"/>
      <point x="91" y="565"/>
      <point x="52" y="511"/>
      <point x="34" y="433" type="curve" smooth="yes"/>
      <point x="23" y="386"/>
      <point x="20" y="331"/>
    </contour>
    <contour>
      <point x="156" y="277" type="curve" smooth="yes"/>
      <point x="156" y="319"/>
      <point x="156" y="360"/>
      <point x="159" y="395" type="curve" smooth="yes"/>
      <point x="163" y="441"/>
      <point x="174" y="473"/>
      <point x="198" y="473" type="curve" smooth="yes"/>
      <point x="220" y="473"/>
      <point x="229" y="443"/>
      <point x="233" y="398" type="curve" smooth="yes"/>
      <point x="236" y="365"/>
      <point x="236" y="323"/>
      <point x="236" y="279" type="curve" smooth="yes"/>
      <point x="236" y="238"/>
      <point x="234" y="195"/>
      <point x="229" y="161" type="curve" smooth="yes"/>
      <point x="223" y="123"/>
      <point x="212" y="96"/>
      <point x="193" y="96" type="curve" smooth="yes"/>
      <point x="168" y="96"/>
      <point x="160" y="126"/>
      <point x="157" y="175" type="curve" smooth="yes"/>
      <point x="155" y="203"/>
      <point x="156" y="238"/>
    </contour>
  </outline>
</glyph>
<glyph name="e" format="2">
  <advance width="375"/>
  <unicode hex="0065"/>
  <anchor x="197" y="0" name="bottom"/>
  <anchor x="223" y="-1" name="ogonek"/>
  <anchor x="191" y="555" name="top"/>
  <outline>
    <contour>
      <point x="195" y="-12" type="curve" smooth="yes"/>
      <point x="308" y="-12"/>
      <point x="363" y="45"/>
      <point x="363" y="145" type="curve" smooth="yes"/>
      <point x="363" y="158"/>
      <point x="362" y="173"/>
      <point x="360" y="188" type="curve"/>
      <point x="226" y="188" type="line"/>
      <point x="230" y="169"/>
      <point x="233" y="150"/>
      <point x="233" y="135" type="curve" smooth="yes"/>
      <point x="233" y="108"/>
      <point x="224" y="89"/>
      <point x="197" y="89" type="curve" smooth="yes"/>
      <point x="169" y="89"/>
      <point x="158" y="112"/>
      <point x="153" y="152" type="curve" smooth="yes"/>
      <point x="149" y="186"/>
      <point x="150" y="234"/>
      <point x="150" y="291" type="curve" smooth="yes"/>
      <point x="150" y="329"/>
      <point x="150" y="363"/>
      <point x="151" y="390" type="curve" smooth="yes"/>
      <point x="153" y="440"/>
      <point x="163" y="469"/>
      <point x="192" y="469" type="curve" smooth="yes"/>
      <point x="221" y="469"/>
      <point x="228" y="433"/>
      <point x="228" y="381" type="curve" smooth="yes"/>
      <point x="228" y="363"/>
      <point x="227" y="344"/>
      <point x="226" y="323" type="curve"/>
      <point x="355" y="241" type="line"/>
      <point x="360" y="283"/>
      <point x="363" y="325"/>
      <point x="363" y="361" type="curve" smooth="yes"/>
      <point x="363" y="487"/>
      <point x="324" y="564"/>
      <point x="199" y="564" type="curve" smooth="yes"/>
      <point x="102" y="564"/>
      <point x="53" y="512"/>
      <point x="29" y="427" type="curve" smooth="yes"/>
      <point x="17" y="384"/>
      <point x="13" y="332"/>
      <point x="13" y="275" type="curve" smooth="yes"/>
      <point x="13" y="210"/>
      <point x="19" y="153"/>
      <point x="34" y="106" type="curve" smooth="yes"/>
      <point x="58" y="32"/>
      <point x="107" y="-12"/>
    </contour>
    <contour>
      <point x="50" y="233" type="line"/>
      <point x="151" y="240"/>
      <point x="355" y="241"/>
      <point x="355" y="241" type="curve"/>
      <point x="326" y="339" type="line"/>
      <point x="46" y="337" type="line"/>
    </contour>
  </outline>
</glyph>
<glyph name="g" format="2">
  <advance width="396"/>
  <unicode hex="0067"/>
  <anchor x="205" y="555" name="top"/>
  <outline>
    <contour>
      <point x="178" y="-166" type="curve" smooth="yes"/>
      <point x="335" y="-166"/>
      <point x="366" y="-73"/>
      <point x="366" y="19" type="curve" smooth="yes"/>
      <point x="366" y="126"/>
      <point x="366" y="164"/>
      <point x="366" y="278" type="curve" smooth="yes"/>
      <point x="366" y="393"/>
      <point x="375" y="466"/>
      <point x="385" y="555" type="curve"/>
      <point x="270" y="555" type="line"/>
      <point x="256" y="500"/>
      <point x="233" y="400"/>
      <point x="233" y="277" type="curve"/>
      <point x="233" y="146"/>
      <point x="233" y="37"/>
      <point x="233" y="-16" type="curve" smooth="yes"/>
      <point x="233" y="-47"/>
      <point x="224" y="-76"/>
      <point x="190" y="-76" type="curve" smooth="yes"/>
      <point x="172" y="-76"/>
      <point x="159" y="-71"/>
      <point x="159" y="-52" type="curve" smooth="yes"/>
      <point x="159" y="-47"/>
      <point x="159" y="-41"/>
      <point x="160" y="-36" type="curve"/>
      <point x="31" y="-52" type="line"/>
      <point x="31" y="-58"/>
      <point x="31" y="-63"/>
      <point x="31" y="-69" type="curve" smooth="yes"/>
      <point x="31" y="-132"/>
      <point x="86" y="-166"/>
    </contour>
    <contour>
      <point x="161" y="-10" type="curve" smooth="yes"/>
      <point x="271" y="-10"/>
      <point x="286" y="194"/>
      <point x="286" y="269" type="curve"/>
      <point x="233" y="276" type="line"/>
      <point x="233" y="159"/>
      <point x="227" y="91"/>
      <point x="192" y="91" type="curve" smooth="yes"/>
      <point x="174" y="91"/>
      <point x="166" y="113"/>
      <point x="162" y="149" type="curve" smooth="yes"/>
      <point x="158" y="183"/>
      <point x="159" y="229"/>
      <point x="160" y="283" type="curve" smooth="yes"/>
      <point x="161" y="319"/>
      <point x="161" y="351"/>
      <point x="163" y="378" type="curve" smooth="yes"/>
      <point x="167" y="432"/>
      <point x="175" y="464"/>
      <point x="197" y="464" type="curve" smooth="yes"/>
      <point x="234" y="464"/>
      <point x="233" y="394"/>
      <point x="233" y="278" type="curve"/>
      <point x="286" y="269" type="line"/>
      <point x="286" y="489"/>
      <point x="247" y="563"/>
      <point x="180" y="563" type="curve" smooth="yes"/>
      <point x="100" y="563"/>
      <point x="57" y="508"/>
      <point x="38" y="426" type="curve" smooth="yes"/>
      <point x="28" y="383"/>
      <point x="23" y="334"/>
      <point x="23" y="281" type="curve" smooth="yes"/>
      <point x="23" y="220"/>
      <point x="27" y="160"/>
      <point x="39" y="110" type="curve" smooth="yes"/>
      <point x="56" y="39"/>
      <point x="92" y="-10"/>
    </contour>
  </outline>
</glyph>
<glyph name="h" format="2">
  <advance width="405"/>
  <unicode hex="0068"/>
  <anchor x="195" y="0" name="bottom"/>
  <anchor x="157" y="620" name="center"/>
  <anchor x="86" y="669" name="top"/>
  <outline>
    <contour>
      <point x="25" y="1" type="curve"/>
      <point x="169" y="1" type="line"/>
      <point x="168" y="82"/>
      <point x="165" y="201"/>
      <point x="165" y="316" type="curve"/>
      <point x="159" y="447"/>
      <point x="158" y="496"/>
      <point x="157" y="690" type="curve"/>
      <point x="29" y="690" type="line"/>
      <point x="30" y="470"/>
      <point x="31" y="415"/>
      <point x="31" y="286" type="curve" smooth="yes"/>
      <point x="31" y="159"/>
      <point x="29" y="76"/>
    </contour>
    <contour>
      <point x="380" y="0" type="line"/>
      <point x="377" y="81"/>
      <point x="375" y="123"/>
      <point x="375" y="231" type="curve" smooth="yes"/>
      <point x="375" y="291"/>
      <point x="375" y="329"/>
      <point x="375" y="393" type="curve" smooth="yes"/>
      <point x="375" y="528"/>
      <point x="321" y="561"/>
      <point x="255" y="561" type="curve" smooth="yes"/>
      <point x="162" y="561"/>
      <point x="122" y="463"/>
      <point x="122" y="267" type="curve"/>
      <point x="165" y="316" type="line"/>
      <point x="165" y="436"/>
      <point x="190" y="456"/>
      <point x="212" y="456" type="curve" smooth="yes"/>
      <point x="233" y="456"/>
      <point x="241" y="432"/>
      <point x="241" y="382" type="curve" smooth="yes"/>
      <point x="241" y="319"/>
      <point x="241" y="287"/>
      <point x="241" y="227" type="curve" smooth="yes"/>
      <point x="241" y="116"/>
      <point x="239" y="79"/>
      <point x="235" y="1" type="curve"/>
    </contour>
  </outline>
</glyph>
<glyph name="i" format="2">
  <advance width="204"/>
  <unicode hex="0069"/>
  <anchor x="98" y="0" name="bottom"/>
  <anchor x="91" y="1" name="ogonek"/>
  <outline>
    <contour>
      <point x="176" y="0" type="line"/>
      <point x="172" y="91"/>
      <point x="170" y="192"/>
      <point x="170" y="285" type="curve" smooth="yes"/>
      <point x="170" y="404"/>
      <point x="172" y="513"/>
      <point x="174" y="554" type="curve"/>
      <point x="28" y="555" type="line"/>
      <point x="30" y="507"/>
      <point x="36" y="405"/>
      <point x="36" y="286" type="curve" smooth="yes"/>
      <point x="36" y="183"/>
      <point x="33" y="81"/>
      <point x="28" y="2" type="curve"/>
    </contour>
    <contour>
      <point x="172" y="643" type="line"/>
      <point x="172" y="763" type="line"/>
      <point x="30" y="755" type="line"/>
      <point x="33" y="634" type="line"/>
    </contour>
  </outline>
</glyph>
<glyph name="j" format="2">
  <advance width="188"/>
  <unicode hex="006A"/>
  <outline>
    <contour>
      <point x="-62" y="-167" type="line"/>
      <point x="40" y="-178"/>
      <point x="157" y="-127"/>
      <point x="160" y="4" type="curve" smooth="yes"/>
      <point x="162" y="105"/>
      <point x="160" y="143"/>
      <point x="160" y="286" type="curve"/>
      <point x="161" y="426"/>
      <point x="159" y="513"/>
      <point x="162" y="555" type="curve"/>
      <point x="18" y="555" type="line"/>
      <point x="23" y="482"/>
      <point x="27" y="374"/>
      <point x="30" y="271" type="curve" smooth="yes"/>
      <point x="34" y="148"/>
      <point x="34" y="41"/>
      <point x="28" y="-3" type="curve" smooth="yes"/>
      <point x="23" y="-43"/>
      <point x="1" y="-68"/>
      <point x="-64" y="-68" type="curve"/>
    </contour>
    <contour>
      <point x="20" y="634" type="line"/>
      <point x="159" y="643" type="line"/>
      <point x="159" y="763" type="line"/>
      <point x="17" y="755" type="line"/>
    </contour>
  </outline>
</glyph>
<glyph name="l" format="2">
  <advance width="191"/>
  <unicode hex="006C"/>
  <anchor x="99" y="0" name="bottom"/>
  <anchor x="97" y="359" name="center"/>
  <anchor x="98" y="693" name="top"/>
  <anchor x="238" y="473" name="topright"/>
  <outline>
    <contour>
      <point x="23" y="0" type="curve"/>
      <point x="162" y="11" type="line"/>
      <point x="161" y="58"/>
      <point x="160" y="160"/>
      <point x="160" y="264" type="curve" smooth="yes"/>
      <point x="160" y="396"/>
      <point x="162" y="547"/>
      <point x="163" y="691" type="curve"/>
      <point x="26" y="692" type="line"/>
      <point x="28" y="599"/>
      <point x="31" y="403"/>
      <point x="31" y="266" type="curve" smooth="yes"/>
      <point x="31" y="117"/>
      <point x="29" y="82"/>
    </contour>
  </outline>
</glyph>
<glyph name="m" format="2">
  <advance width="613"/>
  <unicode hex="006D"/>
  <outline>
    <contour>
      <point x="236" y="1" type="curve"/>
      <point x="381" y="1" type="line"/>
      <point x="378" y="82"/>
      <point x="376" y="212"/>
      <point x="376" y="320" type="curve" smooth="yes"/>
      <point x="376" y="392"/>
      <point x="393" y="561"/>
      <point x="252" y="561" type="curve" smooth="yes"/>
      <point x="159" y="561"/>
      <point x="125" y="463"/>
      <point x="125" y="267" type="curve"/>
      <point x="168" y="316" type="line"/>
      <point x="168" y="425"/>
      <point x="193" y="456"/>
      <point x="213" y="456" type="curve" smooth="yes"/>
      <point x="235" y="456"/>
      <point x="242" y="434"/>
      <point x="242" y="390" type="curve" smooth="yes"/>
      <point x="242" y="327"/>
      <point x="242" y="287"/>
      <point x="242" y="227" type="curve" smooth="yes"/>
      <point x="242" y="116"/>
      <point x="240" y="79"/>
    </contour>
    <contour>
      <point x="28" y="1" type="curve"/>
      <point x="172" y="1" type="line"/>
      <point x="171" y="82"/>
      <point x="168" y="201"/>
      <point x="168" y="316" type="curve"/>
      <point x="162" y="447"/>
      <point x="161" y="538"/>
      <point x="160" y="562" type="curve"/>
      <point x="32" y="555" type="line"/>
      <point x="33" y="505"/>
      <point x="34" y="415"/>
      <point x="34" y="286" type="curve" smooth="yes"/>
      <point x="34" y="159"/>
      <point x="32" y="76"/>
    </contour>
    <contour>
      <point x="576" y="0" type="line"/>
      <point x="579" y="85"/>
      <point x="580" y="151"/>
      <point x="582" y="235" type="curve" smooth="yes"/>
      <point x="583" y="279"/>
      <point x="583" y="328"/>
      <point x="583" y="387" type="curve" smooth="yes"/>
      <point x="583" y="528"/>
      <point x="529" y="565"/>
      <point x="463" y="565" type="curve" smooth="yes"/>
      <point x="359" y="565"/>
      <point x="333" y="467"/>
      <point x="333" y="271" type="curve"/>
      <point x="376" y="320" type="line"/>
      <point x="376" y="429"/>
      <point x="393" y="460"/>
      <point x="424" y="460" type="curve" smooth="yes"/>
      <point x="442" y="460"/>
      <point x="449" y="438"/>
      <point x="449" y="394" type="curve" smooth="yes"/>
      <point x="449" y="326"/>
      <point x="448" y="279"/>
      <point x="447" y="231" type="curve" smooth="yes"/>
      <point x="445" y="154"/>
      <point x="441" y="93"/>
      <point x="440" y="13" type="curve"/>
    </contour>
  </outline>
</glyph>
<glyph name="n" format="2">
  <advance width="410"/>
  <unicode hex="006E"/>
  <anchor x="203" y="0" name="bottom"/>
  <anchor x="212" y="555" name="top"/>
  <anchor x="128" y="565" name="topright"/>
  <outline>
    <contour>
      <point x="384" y="0" type="line"/>
      <point x="381" y="81"/>
      <point x="379" y="123"/>
      <point x="379" y="231" type="curve" smooth="yes"/>
      <point x="379" y="291"/>
      <point x="379" y="329"/>
      <point x="379" y="393" type="curve" smooth="yes"/>
      <point x="379" y="528"/>
      <point x="325" y="561"/>
      <point x="259" y="561" type="curve" smooth="yes"/>
      <point x="166" y="561"/>
      <point x="126" y="463"/>
      <point x="126" y="267" type="curve"/>
      <point x="169" y="316" type="line"/>
      <point x="169" y="436"/>
      <point x="194" y="456"/>
      <point x="216" y="456" type="curve" smooth="yes"/>
      <point x="237" y="456"/>
      <point x="245" y="432"/>
      <point x="245" y="382" type="curve" smooth="yes"/>
      <point x="245" y="319"/>
      <point x="245" y="287"/>
      <point x="245" y="227" type="curve" smooth="yes"/>
      <point x="245" y="116"/>
      <point x="243" y="79"/>
      <point x="239" y="1" type="curve"/>
    </contour>
    <contour>
      <point x="29" y="1" type="curve"/>
      <point x="173" y="1" type="line"/>
      <point x="172" y="82"/>
      <point x="169" y="201"/>
      <point x="169" y="316" type="curve"/>
      <point x="163" y="447"/>
      <point x="162" y="538"/>
      <point x="161" y="562" type="curve"/>
      <point x="33" y="555" type="line"/>
      <point x="34" y="505"/>
      <point x="35" y="415"/>
      <point x="35" y="286" type="curve" smooth="yes"/>
      <point x="35" y="159"/>
      <point x="33" y="76"/>
    </contour>
  </outline>
</glyph>
<glyph name="o" format="2">
  <advance width="398"/>
  <unicode hex="006F"/>
  <anchor x="202" y="0" name="bottom"/>
  <anchor x="201" y="276" name="center"/>
  <anchor x="221" y="-4" name="ogonek"/>
  <anchor x="200" y="555" name="top"/>
  <anchor x="226" y="555" name="topright"/>
  <outline>
    <contour>
      <point x="192" y="-10" type="curve" smooth="yes"/>
      <point x="284" y="-10"/>
      <point x="331" y="34"/>
      <point x="354" y="109" type="curve" smooth="yes"/>
      <point x="368" y="156"/>
      <point x="373" y="216"/>
      <point x="373" y="284" type="curve" smooth="yes"/>
      <point x="373" y="342"/>
      <point x="370" y="396"/>
      <point x="359" y="440" type="curve" smooth="yes"/>
      <point x="340" y="518"/>
      <point x="298" y="568"/>
      <point x="211" y="568" type="curve" smooth="yes"/>
      <point x="121" y="568"/>
      <point x="72" y="524"/>
      <point x="47" y="451" type="curve" smooth="yes"/>
      <point x="31" y="406"/>
      <point x="25" y="349"/>
      <point x="25" y="285" type="curve" smooth="yes"/>
      <point x="25" y="220"/>
      <point x="29" y="163"/>
      <point x="41" y="116" type="curve" smooth="yes"/>
      <point x="61" y="38"/>
      <point x="104" y="-10"/>
    </contour>
    <contour>
      <point x="200" y="94" type="curve" smooth="yes"/>
      <point x="178" y="94"/>
      <point x="169" y="117"/>
      <point x="165" y="158" type="curve" smooth="yes"/>
      <point x="162" y="189"/>
      <point x="162" y="227"/>
      <point x="162" y="278" type="curve" smooth="yes"/>
      <point x="162" y="330"/>
      <point x="161" y="369"/>
      <point x="164" y="402" type="curve" smooth="yes"/>
      <point x="168" y="444"/>
      <point x="177" y="468"/>
      <point x="200" y="468" type="curve" smooth="yes"/>
      <point x="221" y="468"/>
      <point x="229" y="446"/>
      <point x="233" y="401" type="curve" smooth="yes"/>
      <point x="236" y="369"/>
      <point x="236" y="332"/>
      <point x="236" y="278" type="curve" smooth="yes"/>
      <point x="236" y="226"/>
      <point x="237" y="187"/>
      <point x="234" y="155" type="curve" smooth="yes"/>
      <point x="230" y="116"/>
      <point x="221" y="94"/>
    </contour>
  </outline>
</glyph>
<glyph name="p" format="2">
  <advance width="404"/>
  <unicode hex="0070"/>
  <outline>
    <contour>
      <point x="25" y="-166" type="curve"/>
      <point x="175" y="-160" type="line"/>
      <point x="169" y="21" type="line"/>
      <point x="184" y="1"/>
      <point x="204" y="-10"/>
      <point x="232" y="-10" type="curve" smooth="yes"/>
      <point x="309" y="-10"/>
      <point x="350" y="46"/>
      <point x="370" y="127" type="curve" smooth="yes"/>
      <point x="381" y="172"/>
      <point x="385" y="226"/>
      <point x="385" y="282" type="curve" smooth="yes"/>
      <point x="385" y="323"/>
      <point x="384" y="363"/>
      <point x="380" y="398" type="curve" smooth="yes"/>
      <point x="369" y="497"/>
      <point x="341" y="565"/>
      <point x="258" y="565" type="curve" smooth="yes"/>
      <point x="214" y="565"/>
      <point x="185" y="542"/>
      <point x="164" y="498" type="curve"/>
      <point x="165" y="560" type="line"/>
      <point x="31" y="555" type="line"/>
      <point x="31" y="483"/>
      <point x="34" y="328"/>
      <point x="34" y="204" type="curve" smooth="yes"/>
      <point x="34" y="62"/>
      <point x="28" y="-66"/>
    </contour>
    <contour>
      <point x="168" y="223" type="curve" smooth="yes"/>
      <point x="168" y="298" type="line" smooth="yes"/>
      <point x="168" y="396"/>
      <point x="182" y="459"/>
      <point x="212" y="459" type="curve" smooth="yes"/>
      <point x="238" y="459"/>
      <point x="246" y="431"/>
      <point x="248" y="375" type="curve" smooth="yes"/>
      <point x="249" y="348"/>
      <point x="249" y="316"/>
      <point x="249" y="278" type="curve" smooth="yes"/>
      <point x="249" y="234"/>
      <point x="249" y="194"/>
      <point x="246" y="161" type="curve" smooth="yes"/>
      <point x="242" y="113"/>
      <point x="231" y="82"/>
      <point x="207" y="82" type="curve" smooth="yes"/>
      <point x="180" y="82"/>
      <point x="168" y="135"/>
    </contour>
  </outline>
</glyph>
<glyph name="q" format="2">
  <advance width="393"/>
  <unicode hex="0071"/>
  <outline>
    <contour>
      <point x="17" y="275" type="curve" smooth="yes"/>
      <point x="17" y="209"/>
      <point x="20" y="149"/>
      <point x="32" y="101" type="curve" smooth="yes"/>
      <point x="50" y="32"/>
      <point x="85" y="-12"/>
      <point x="155" y="-12" type="curve" smooth="yes"/>
      <point x="188" y="-12"/>
      <point x="222" y="8"/>
      <point x="239" y="35" type="curve"/>
      <point x="242" y="-160" type="line"/>
      <point x="374" y="-164" type="line"/>
      <point x="370" y="-73"/>
      <point x="367" y="81"/>
      <point x="367" y="219" type="curve" smooth="yes"/>
      <point x="367" y="362"/>
      <point x="371" y="483"/>
      <point x="373" y="568" type="curve"/>
      <point x="245" y="565" type="line"/>
      <point x="246" y="494" type="line"/>
      <point x="227" y="540"/>
      <point x="199" y="563"/>
      <point x="153" y="563" type="curve" smooth="yes"/>
      <point x="87" y="563"/>
      <point x="52" y="521"/>
      <point x="34" y="455" type="curve" smooth="yes"/>
      <point x="21" y="406"/>
      <point x="17" y="344"/>
    </contour>
    <contour>
      <point x="153" y="281" type="curve" smooth="yes"/>
      <point x="153" y="326"/>
      <point x="152" y="365"/>
      <point x="155" y="396" type="curve" smooth="yes"/>
      <point x="158" y="437"/>
      <point x="167" y="462"/>
      <point x="191" y="462" type="curve" smooth="yes"/>
      <point x="208" y="462"/>
      <point x="219" y="438"/>
      <point x="225" y="403" type="curve" smooth="yes"/>
      <point x="231" y="369"/>
      <point x="233" y="325"/>
      <point x="233" y="280" type="curve" smooth="yes"/>
      <point x="233" y="236"/>
      <point x="233" y="195"/>
      <point x="230" y="162" type="curve" smooth="yes"/>
      <point x="227" y="115"/>
      <point x="217" y="85"/>
      <point x="195" y="85" type="curve" smooth="yes"/>
      <point x="169" y="85"/>
      <point x="159" y="115"/>
      <point x="155" y="165" type="curve" smooth="yes"/>
      <point x="153" y="196"/>
      <point x="153" y="236.007"/>
    </contour>
  </outline>
</glyph>
<glyph name="r" format="2">
  <advance width="336"/>
  <unicode hex="0072"/>
  <anchor x="88" y="0" name="bottom"/>
  <anchor x="186" y="555" name="top"/>
  <outline>
    <contour>
      <point x="202" y="247" type="curve"/>
      <point x="322" y="248" type="line"/>
      <point x="339" y="309"/>
      <point x="350" y="370"/>
      <point x="350" y="423" type="curve" smooth="yes"/>
      <point x="350" y="509"/>
      <point x="321" y="571"/>
      <point x="238" y="571" type="curve" smooth="yes"/>
      <point x="170" y="571"/>
      <point x="111" y="507"/>
      <point x="111" y="283" type="curve"/>
      <point x="158" y="326" type="line"/>
      <point x="158" y="393"/>
      <point x="166" y="468"/>
      <point x="203" y="468" type="curve" smooth="yes"/>
      <point x="220" y="468"/>
      <point x="227" y="454"/>
      <point x="227" y="419" type="curve" smooth="yes"/>
      <point x="227" y="376"/>
      <point x="222" y="315"/>
    </contour>
    <contour>
      <point x="15" y="-2" type="curve"/>
      <point x="162" y="0" type="line"/>
      <point x="160" y="98"/>
      <point x="158" y="212"/>
      <point x="158" y="326" type="curve"/>
      <point x="151" y="443"/>
      <point x="149" y="507"/>
      <point x="148" y="567" type="curve"/>
      <point x="16" y="560" type="line"/>
      <point x="20" y="507"/>
      <point x="27" y="414"/>
      <point x="24" y="285" type="curve" smooth="yes"/>
      <point x="22" y="185"/>
      <point x="20" y="98"/>
    </contour>
  </outline>
</glyph>
<glyph name="s" format="2">
  <advance width="349"/>
  <unicode hex="0073"/>
  <anchor x="177" y="0" name="bottom"/>
  <anchor x="174" y="555" name="top"/>
  <outline>
    <contour>
      <point x="167" y="-10" type="curve"/>
      <point x="278" y="-10"/>
      <point x="345" y="44"/>
      <point x="345" y="142" type="curve" smooth="yes"/>
      <point x="345" y="234"/>
      <point x="295" y="270"/>
      <point x="200" y="331" type="curve" smooth="yes"/>
      <point x="163" y="355"/>
      <point x="143" y="367"/>
      <point x="143" y="425" type="curve" smooth="yes"/>
      <point x="143" y="460"/>
      <point x="158" y="475"/>
      <point x="175" y="475" type="curve" smooth="yes"/>
      <point x="201" y="475"/>
      <point x="209" y="454"/>
      <point x="209" y="418" type="curve" smooth="yes"/>
      <point x="209" y="399"/>
      <point x="207" y="378"/>
      <point x="204" y="356" type="curve"/>
      <point x="338" y="356" type="line"/>
      <point x="340" y="373"/>
      <point x="341" y="389"/>
      <point x="341" y="404" type="curve" smooth="yes"/>
      <point x="341" y="507"/>
      <point x="294" y="573"/>
      <point x="181" y="573" type="curve" smooth="yes"/>
      <point x="82" y="573"/>
      <point x="8" y="516"/>
      <point x="8" y="414" type="curve" smooth="yes"/>
      <point x="8" y="318"/>
      <point x="47" y="272"/>
      <point x="133" y="215" type="curve" smooth="yes"/>
      <point x="181" y="183"/>
      <point x="207" y="172"/>
      <point x="207" y="127" type="curve" smooth="yes"/>
      <point x="207" y="104"/>
      <point x="195" y="90"/>
      <point x="175" y="90" type="curve" smooth="yes"/>
      <point x="150" y="90"/>
      <point x="142" y="104"/>
      <point x="142" y="128" type="curve" smooth="yes"/>
      <point x="142" y="139"/>
      <point x="144" y="151"/>
      <point x="146" y="166" type="curve"/>
      <point x="12" y="165" type="line"/>
      <point x="10" y="152"/>
      <point x="9" y="140"/>
      <point x="9" y="128" type="curve" smooth="yes"/>
      <point x="9" y="40"/>
      <point x="65" y="-10"/>
    </contour>
  </outline>
</glyph>
<glyph name="t" format="2">
  <advance width="357"/>
  <unicode hex="0074"/>
  <anchor x="181" y="0" name="bottom"/>
  <anchor x="155" y="373" name="center"/>
  <anchor x="173" y="555" name="topright"/>
  <outline>
    <contour>
      <point x="180" y="-10" type="curve" smooth="yes"/>
      <point x="305" y="-10"/>
      <point x="352" y="58"/>
      <point x="352" y="183" type="curve" smooth="yes"/>
      <point x="352" y="217"/>
      <point x="348" y="255"/>
      <point x="342" y="297" type="curve"/>
      <point x="214" y="298" type="line"/>
      <point x="219" y="250"/>
      <point x="222" y="202"/>
      <point x="222" y="162" type="curve" smooth="yes"/>
      <point x="222" y="108"/>
      <point x="210" y="85"/>
      <point x="189" y="85" type="curve" smooth="yes"/>
      <point x="169" y="85"/>
      <point x="165" y="107"/>
      <point x="165" y="146" type="curve" smooth="yes"/>
      <point x="165" y="188"/>
      <point x="167" y="235"/>
      <point x="170" y="288" type="curve" smooth="yes"/>
      <point x="175" y="385"/>
      <point x="185" y="499"/>
      <point x="195" y="627" type="curve"/>
      <point x="48" y="626" type="line"/>
      <point x="48" y="502"/>
      <point x="39" y="395"/>
      <point x="33" y="298" type="curve" smooth="yes"/>
      <point x="30" y="248"/>
      <point x="28" y="201"/>
      <point x="28" y="155" type="curve" smooth="yes"/>
      <point x="28" y="46"/>
      <point x="70" y="-10"/>
    </contour>
    <contour>
      <point x="-7" y="435" type="line"/>
      <point x="-7" y="435"/>
      <point x="75" y="441"/>
      <point x="128" y="442" type="curve" smooth="yes"/>
      <point x="178" y="443"/>
      <point x="334" y="445"/>
      <point x="334" y="445" type="curve"/>
      <point x="338" y="555" type="line"/>
      <point x="338" y="555"/>
      <point x="163" y="552"/>
      <point x="114" y="552" type="curve" smooth="yes"/>
      <point x="82" y="552"/>
      <point x="20" y="553"/>
      <point x="3" y="553" type="curve"/>
    </contour>
  </outline>
</glyph>
<glyph name="v" format="2">
  <advance width="364"/>
  <unicode hex="0076"/>
  <outline>
    <contour>
      <point x="2" y="566" type="line"/>
      <point x="22" y="457"/>
      <point x="42" y="364"/>
      <point x="55" y="276" type="curve" smooth="yes"/>
      <point x="68" y="185"/>
      <point x="82" y="98"/>
      <point x="96" y="0" type="curve"/>
      <point x="269" y="-4" type="line"/>
      <point x="285" y="94"/>
      <point x="298" y="181"/>
      <point x="312" y="270" type="curve" smooth="yes"/>
      <point x="326" y="360"/>
      <point x="347" y="453"/>
      <point x="368" y="562" type="curve"/>
      <point x="234" y="555" type="line"/>
      <point x="225" y="471"/>
      <point x="215" y="377"/>
      <point x="205" y="288" type="curve" smooth="yes"/>
      <point x="198" y="227"/>
      <point x="193" y="198"/>
      <point x="185" y="129" type="curve"/>
      <point x="177" y="201"/>
      <point x="173" y="233"/>
      <point x="167" y="297" type="curve" smooth="yes"/>
      <point x="159" y="385"/>
      <point x="150" y="479"/>
      <point x="142" y="566" type="curve"/>
    </contour>
  </outline>
</glyph>
<glyph name="w" format="2">
  <advance width="588"/>
  <unicode hex="0077"/>
  <anchor x="295" y="555" name="top"/>
  <outline>
    <contour>
      <point x="94" y="-2" type="curve"/>
      <point x="253" y="2" type="line"/>
      <point x="264" y="81"/>
      <point x="267" y="112"/>
      <point x="281" y="216" type="curve" smooth="yes"/>
      <point x="287" y="261"/>
      <point x="291" y="303"/>
      <point x="295" y="332" type="curve"/>
      <point x="297" y="316"/>
      <point x="302" y="269"/>
      <point x="308" y="214" type="curve" smooth="yes"/>
      <point x="317" y="130"/>
      <point x="328" y="29"/>
      <point x="331" y="0" type="curve"/>
      <point x="490" y="-4" type="line"/>
      <point x="505" y="81"/>
      <point x="525" y="202"/>
      <point x="545" y="313" type="curve" smooth="yes"/>
      <point x="563" y="415"/>
      <point x="585" y="508"/>
      <point x="594" y="555" type="curve"/>
      <point x="458" y="559" type="line"/>
      <point x="450" y="488"/>
      <point x="442" y="406"/>
      <point x="433" y="328" type="curve" smooth="yes"/>
      <point x="425" y="258"/>
      <point x="418" y="192"/>
      <point x="411" y="143" type="curve"/>
      <point x="407" y="184"/>
      <point x="403" y="230"/>
      <point x="400" y="280" type="curve" smooth="yes"/>
      <point x="396" y="351"/>
      <point x="388" y="429"/>
      <point x="382" y="504" type="curve"/>
      <point x="215" y="504" type="line"/>
      <point x="210" y="448"/>
      <point x="203" y="361"/>
      <point x="193" y="274" type="curve" smooth="yes"/>
      <point x="188" y="229"/>
      <point x="183" y="184"/>
      <point x="177" y="143" type="curve"/>
      <point x="173" y="196"/>
      <point x="166" y="261"/>
      <point x="160" y="329" type="curve" smooth="yes"/>
      <point x="153" y="403"/>
      <point x="146" y="482"/>
      <point x="141" y="555" type="curve"/>
      <point x="-1" y="555" type="line"/>
      <point x="11" y="486"/>
      <point x="31" y="400"/>
      <point x="45" y="311" type="curve" smooth="yes"/>
      <point x="62" y="206"/>
      <point x="79" y="95"/>
    </contour>
  </outline>
</glyph>
<glyph name="x" format="2">
  <advance width="316"/>
  <unicode hex="0078"/>
  <outline>
    <contour>
      <point x="91" y="-4" type="line"/>
      <point x="137" y="103"/>
      <point x="163" y="157"/>
      <point x="221" y="281" type="curve" smooth="yes"/>
      <point x="278" y="403"/>
      <point x="302" y="455"/>
      <point x="349" y="558" type="curve"/>
      <point x="224" y="558" type="line"/>
      <point x="189" y="468"/>
      <point x="170" y="428"/>
      <point x="109" y="299" type="curve" smooth="yes"/>
      <point x="50" y="174"/>
      <point x="21" y="117"/>
      <point x="-40" y="-2" type="curve"/>
    </contour>
    <contour>
      <point x="237" y="0" type="curve"/>
      <point x="366" y="3" type="line"/>
      <point x="314" y="103"/>
      <point x="275" y="176"/>
      <point x="214" y="299" type="curve" smooth="yes"/>
      <point x="151" y="426"/>
      <point x="131" y="471"/>
      <point x="95" y="558" type="curve"/>
      <point x="-37" y="555" type="line"/>
      <point x="12" y="459"/>
      <point x="37" y="402"/>
      <point x="98" y="281" type="curve" smooth="yes"/>
      <point x="159" y="161"/>
      <point x="200" y="85"/>
    </contour>
  </outline>
</glyph>
<glyph name="y" format="2">
  <advance width="369"/>
  <unicode hex="0079"/>
  <anchor x="326" y="29" name="bottom"/>
  <anchor x="184" y="555" name="top"/>
  <outline>
    <contour>
      <point x="225" y="-164" type="line"/>
      <point x="250" y="-38"/>
      <point x="284" y="119"/>
      <point x="319" y="276" type="curve" smooth="yes"/>
      <point x="341" y="374"/>
      <point x="364" y="472"/>
      <point x="387" y="563" type="curve"/>
      <point x="242" y="563" type="line"/>
      <point x="233" y="486"/>
      <point x="222" y="397"/>
      <point x="206" y="304" type="curve" smooth="yes"/>
      <point x="180" y="155"/>
      <point x="135" y="-6"/>
      <point x="90" y="-156" type="curve"/>
    </contour>
    <contour>
      <point x="145" y="-35" type="curve"/>
      <point x="234" y="23" type="line"/>
      <point x="207" y="133"/>
      <point x="192" y="217"/>
      <point x="175" y="307" type="curve" smooth="yes"/>
      <point x="161" y="380"/>
      <point x="148" y="456"/>
      <point x="130" y="553" type="curve"/>
      <point x="-20" y="551" type="line"/>
      <point x="11" y="446"/>
      <point x="37" y="353"/>
      <point x="60" y="270" type="curve" smooth="yes"/>
      <point x="90" y="160"/>
      <point x="120" y="64"/>
    </contour>
  </outline>
</glyph>
<glyph name="z" format="2">
  <advance width="287"/>
  <unicode hex="007A"/>
  <anchor x="147" y="555" name="top"/>
  <outline>
    <contour>
      <point x="93" y="10" type="line"/>
      <point x="111" y="53"/>
      <point x="150" y="142"/>
      <point x="190" y="231" type="curve" smooth="yes"/>
      <point x="225" y="309"/>
      <point x="260" y="386"/>
      <point x="282" y="434" type="curve"/>
      <point x="182" y="535" type="line"/>
      <point x="152" y="460"/>
      <point x="116" y="376"/>
      <point x="84" y="299" type="curve" smooth="yes"/>
      <point x="51" y="221"/>
      <point x="20" y="151"/>
      <point x="1" y="111" type="curve"/>
    </contour>
    <contour>
      <point x="2" y="-4" type="line"/>
      <point x="2" y="-4"/>
      <point x="97" y="0"/>
      <point x="145" y="0" type="curve"/>
      <point x="195" y="-1"/>
      <point x="286" y="0"/>
      <point x="286" y="0" type="curve"/>
      <point x="291" y="113" type="line"/>
      <point x="291" y="113"/>
      <point x="208" y="111"/>
      <point x="160" y="110" type="curve"/>
      <point x="116" y="110"/>
      <point x="1" y="111"/>
      <point x="1" y="111" type="curve"/>
    </contour>
    <contour>
      <point x="4" y="434" type="line"/>
      <point x="4" y="434"/>
      <point x="80" y="436"/>
      <point x="129" y="436" type="curve"/>
      <point x="182" y="436"/>
      <point x="282" y="434"/>
      <point x="282" y="434" type="curve"/>
      <point x="279" y="555" type="line"/>
      <point x="279" y="555"/>
      <point x="181" y="552"/>
      <point x="145" y="552" type="curve"/>
      <point x="95" y="551"/>
      <point x="9" y="552"/>
      <point x="9" y="552" type="curve"/>
    </contour>
  </outline>
</glyph>
<glyph name="braceleft" format="2">
  <advance width="514"/>
  <unicode hex="007B"/>
  <outline>
    <contour>
      <point x="313" y="-146" type="curve" smooth="yes"/>
      <point x="356" y="-146"/>
      <point x="403" y="-135"/>
      <point x="449" y="-112" type="curve"/>
      <point x="425" y="-7" type="line"/>
      <point x="386" y="-28"/>
      <point x="357" y="-42"/>
      <point x="326" y="-42" type="curve" smooth="yes"/>
      <point x="293" y="-42"/>
      <point x="267" y="-22"/>
      <point x="267" y="27" type="curve" smooth="yes"/>
      <point x="267" y="50"/>
      <point x="288" y="131"/>
      <point x="288" y="177" type="curve" smooth="yes"/>
      <point x="288" y="228"/>
      <point x="261" y="255"/>
      <point x="212" y="279" type="curve"/>
      <point x="260" y="300"/>
      <point x="286" y="322"/>
      <point x="286" y="374" type="curve" smooth="yes"/>
      <point x="286" y="432"/>
      <point x="255" y="511"/>
      <point x="255" y="545" type="curve" smooth="yes"/>
      <point x="255" y="592"/>
      <point x="277" y="612"/>
      <point x="309" y="612" type="curve" smooth="yes"/>
      <point x="337" y="612"/>
      <point x="364" y="600"/>
      <point x="405" y="580" type="curve"/>
      <point x="435" y="685" type="line"/>
      <point x="389" y="708"/>
      <point x="341" y="719"/>
      <point x="299" y="719" type="curve" smooth="yes"/>
      <point x="203" y="719"/>
      <point x="135" y="671"/>
      <point x="135" y="570" type="curve" smooth="yes"/>
      <point x="135" y="513"/>
      <point x="167" y="443"/>
      <point x="167" y="384" type="curve" smooth="yes"/>
      <point x="167" y="332"/>
      <point x="114" y="315"/>
      <point x="57" y="323" type="curve"/>
      <point x="69" y="224" type="line"/>
      <point x="122" y="231"/>
      <point x="167" y="215"/>
      <point x="167" y="161" type="curve" smooth="yes"/>
      <point x="167" y="112"/>
      <point x="145" y="53"/>
      <point x="145" y="3" type="curve" smooth="yes"/>
      <point x="145" y="-96"/>
      <point x="215" y="-146"/>
    </contour>
  </outline>
</glyph>
<glyph name="braceright" format="2">
  <advance width="514"/>
  <unicode hex="007D"/>
  <outline>
    <contour>
      <point x="215" y="-146" type="curve" smooth="yes"/>
      <point x="311" y="-146"/>
      <point x="379" y="-98"/>
      <point x="379" y="3" type="curve" smooth="yes"/>
      <point x="379" y="60"/>
      <point x="347" y="130"/>
      <point x="347" y="189" type="curve" smooth="yes"/>
      <point x="347" y="241"/>
      <point x="400" y="258"/>
      <point x="457" y="250" type="curve"/>
      <point x="445" y="349" type="line"/>
      <point x="392" y="342"/>
      <point x="347" y="358"/>
      <point x="347" y="412" type="curve" smooth="yes"/>
      <point x="347" y="461"/>
      <point x="369" y="520"/>
      <point x="369" y="570" type="curve" smooth="yes"/>
      <point x="369" y="669"/>
      <point x="299" y="719"/>
      <point x="201" y="719" type="curve" smooth="yes"/>
      <point x="158" y="719"/>
      <point x="111" y="708"/>
      <point x="65" y="685" type="curve"/>
      <point x="89" y="580" type="line"/>
      <point x="128" y="601"/>
      <point x="157" y="615"/>
      <point x="188" y="615" type="curve" smooth="yes"/>
      <point x="221" y="615"/>
      <point x="247" y="595"/>
      <point x="247" y="546" type="curve" smooth="yes"/>
      <point x="247" y="523"/>
      <point x="226" y="442"/>
      <point x="226" y="396" type="curve" smooth="yes"/>
      <point x="226" y="345"/>
      <point x="253" y="318"/>
      <point x="302" y="294" type="curve"/>
      <point x="254" y="273"/>
      <point x="228" y="251"/>
      <point x="228" y="199" type="curve" smooth="yes"/>
      <point x="228" y="141"/>
      <point x="259" y="62"/>
      <point x="259" y="28" type="curve" smooth="yes"/>
      <point x="259" y="-19"/>
      <point x="237" y="-39"/>
      <point x="205" y="-39" type="curve" smooth="yes"/>
      <point x="177" y="-39"/>
      <point x="150" y="-27"/>
      <point x="109" y="-7" type="curve"/>
      <point x="79" y="-112" type="line"/>
      <point x="125" y="-135"/>
      <point x="173" y="-146"/>
    </contour>
  </outline>
</glyph>
<glyph name="exclamdown" format="2">
  <advance width="286"/>
  <unicode hex="00A1"/>
  <outline>
    <contour>
      <point x="65" y="-158" type="curve"/>
      <point x="221" y="-150" type="line"/>
      <point x="216" y="-44"/>
      <point x="212" y="1"/>
      <point x="209" y="70" type="curve" smooth="yes"/>
      <point x="206" y="141"/>
      <point x="202" y="214"/>
      <point x="198" y="323" type="curve"/>
      <point x="96" y="321" type="line"/>
      <point x="92" y="200"/>
      <point x="89" y="145"/>
      <point x="84" y="76" type="curve" smooth="yes"/>
      <point x="78" y="-9"/>
      <point x="76" y="-37"/>
    </contour>
    <contour>
      <point x="84" y="382" type="line"/>
      <point x="214" y="385" type="line"/>
      <point x="218" y="554" type="line"/>
      <point x="73" y="544" type="line"/>
    </contour>
  </outline>
</glyph>
<glyph name="sterling" format="2">
  <advance width="500"/>
  <unicode hex="00A3"/>
  <outline>
    <contour>
      <point x="187" y="61" type="line"/>
      <point x="244" y="101"/>
      <point x="260" y="138"/>
      <point x="260" y="184" type="curve" smooth="yes"/>
      <point x="260" y="274"/>
      <point x="186" y="357"/>
      <point x="186" y="498" type="curve" smooth="yes"/>
      <point x="186" y="568"/>
      <point x="220" y="592"/>
      <point x="257" y="592" type="curve" smooth="yes"/>
      <point x="302" y="592"/>
      <point x="318" y="557"/>
      <point x="318" y="519" type="curve" smooth="yes"/>
      <point x="318" y="492"/>
      <point x="313" y="463"/>
      <point x="306" y="435" type="curve"/>
      <point x="437" y="436" type="line"/>
      <point x="447" y="470"/>
      <point x="452" y="503"/>
      <point x="452" y="533" type="curve" smooth="yes"/>
      <point x="452" y="632"/>
      <point x="398" y="706"/>
      <point x="262" y="706" type="curve" smooth="yes"/>
      <point x="121" y="706"/>
      <point x="56" y="622"/>
      <point x="56" y="495" type="curve" smooth="yes"/>
      <point x="56" y="392"/>
      <point x="133" y="278"/>
      <point x="133" y="186" type="curve" smooth="yes"/>
      <point x="133" y="142"/>
      <point x="115" y="113"/>
      <point x="63" y="96" type="curve"/>
    </contour>
    <contour>
      <point x="76" y="-4" type="line"/>
      <point x="73" y="-4"/>
      <point x="158" y="0"/>
      <point x="258" y="0" type="curve" smooth="yes"/>
      <point x="316" y="0"/>
      <point x="440" y="-1"/>
      <point x="437" y="-1" type="curve"/>
      <point x="442" y="99" type="line"/>
      <point x="396" y="97"/>
      <point x="335" y="94"/>
      <point x="270" y="94" type="curve" smooth="yes"/>
      <point x="160" y="94"/>
      <point x="59" y="96"/>
      <point x="63" y="96" type="curve"/>
    </contour>
    <contour>
      <point x="28" y="241" type="line"/>
      <point x="28" y="241"/>
      <point x="119" y="248"/>
      <point x="231" y="248" type="curve" smooth="yes"/>
      <point x="345" y="248"/>
      <point x="365" y="245"/>
      <point x="365" y="245" type="curve"/>
      <point x="384" y="346" type="line"/>
      <point x="267" y="342"/>
      <point x="210" y="339"/>
      <point x="161" y="339" type="curve" smooth="yes"/>
      <point x="114" y="339"/>
      <point x="54" y="340"/>
      <point x="54" y="340" type="curve"/>
    </contour>
  </outline>
</glyph>
<glyph name="brokenbar" format="2">
  <advance width="237"/>
  <unicode hex="00A6"/>
  <outline>
    <contour>
      <point x="57" y="352" type="curve"/>
      <point x="173" y="352" type="line"/>
      <point x="175" y="518"/>
      <point x="183" y="701"/>
      <point x="182" y="694" type="curve"/>
      <point x="55" y="693" type="line"/>
      <point x="55" y="700"/>
      <point x="57" y="516"/>
    </contour>
    <contour>
      <point x="54" y="-134" type="curve"/>
      <point x="183" y="-136" type="line"/>
      <point x="184" y="-143"/>
      <point x="176" y="29"/>
      <point x="174" y="187" type="curve"/>
      <point x="57" y="187" type="line"/>
      <point x="54" y="47"/>
      <point x="53" y="-85"/>
    </contour>
  </outline>
</glyph>
<glyph name="copyright" format="2">
  <advance width="727"/>
  <unicode hex="00A9"/>
  <outline>
    <contour>
      <point x="346" y="42" type="curve" smooth="yes"/>
      <point x="549" y="42"/>
      <point x="679" y="164"/>
      <point x="679" y="404" type="curve" smooth="yes"/>
      <point x="679" y="595"/>
      <point x="574" y="729"/>
      <point x="371" y="729" type="curve" smooth="yes"/>
      <point x="176" y="729"/>
      <point x="48" y="592"/>
      <point x="48" y="374" type="curve" smooth="yes"/>
      <point x="48" y="178"/>
      <point x="148" y="42"/>
    </contour>
    <contour>
      <point x="360" y="181" type="curve" smooth="yes"/>
      <point x="447" y="181"/>
      <point x="480" y="232"/>
      <point x="480" y="306" type="curve" smooth="yes"/>
      <point x="480" y="312"/>
      <point x="480" y="318"/>
      <point x="479" y="325" type="curve"/>
      <point x="391" y="325" type="line"/>
      <point x="394" y="312"/>
      <point x="396" y="300"/>
      <point x="396" y="290" type="curve" smooth="yes"/>
      <point x="396" y="267"/>
      <point x="387" y="252"/>
      <point x="364" y="252" type="curve" smooth="yes"/>
      <point x="339" y="252"/>
      <point x="331" y="278"/>
      <point x="329" y="323" type="curve" smooth="yes"/>
      <point x="328" y="349"/>
      <point x="328" y="382"/>
      <point x="328" y="420" type="curve" smooth="yes"/>
      <point x="328" y="442"/>
      <point x="328" y="463"/>
      <point x="330" y="480" type="curve" smooth="yes"/>
      <point x="334" y="511"/>
      <point x="342" y="530"/>
      <point x="363" y="530" type="curve" smooth="yes"/>
      <point x="386" y="530"/>
      <point x="393" y="505"/>
      <point x="393" y="460" type="curve" smooth="yes"/>
      <point x="393" y="446"/>
      <point x="392" y="431"/>
      <point x="391" y="413" type="curve"/>
      <point x="480" y="410" type="line"/>
      <point x="481" y="425"/>
      <point x="482" y="440"/>
      <point x="482" y="454" type="curve" smooth="yes"/>
      <point x="482" y="538"/>
      <point x="454" y="598"/>
      <point x="366" y="598" type="curve" smooth="yes"/>
      <point x="308" y="598"/>
      <point x="275" y="571"/>
      <point x="257" y="523" type="curve" smooth="yes"/>
      <point x="244" y="488"/>
      <point x="239" y="442"/>
      <point x="239" y="388" type="curve" smooth="yes"/>
      <point x="239" y="340"/>
      <point x="242" y="297"/>
      <point x="253" y="263" type="curve" smooth="yes"/>
      <point x="269" y="213"/>
      <point x="300" y="181"/>
    </contour>
    <contour>
      <point x="352" y="128" type="curve" smooth="yes"/>
      <point x="213" y="128"/>
      <point x="152" y="208"/>
      <point x="152" y="383" type="curve" smooth="yes"/>
      <point x="152" y="476"/>
      <point x="186" y="643"/>
      <point x="367" y="643" type="curve" smooth="yes"/>
      <point x="501" y="643"/>
      <point x="570" y="565"/>
      <point x="570" y="389" type="curve" smooth="yes"/>
      <point x="570" y="217"/>
      <point x="488" y="128"/>
    </contour>
  </outline>
</glyph>
<glyph name="ordfeminine" format="2">
  <advance width="335"/>
  <unicode hex="00AA"/>
  <outline>
    <contour>
      <point x="45" y="530" type="curve" smooth="yes"/>
      <point x="45" y="492"/>
      <point x="80" y="472"/>
      <point x="118" y="472" type="curve" smooth="yes"/>
      <point x="147" y="472"/>
      <point x="179" y="483"/>
      <point x="200" y="506" type="curve"/>
      <point x="205" y="493"/>
      <point x="214" y="482"/>
      <point x="230" y="472" type="curve"/>
      <point x="290" y="500" type="line"/>
      <point x="277" y="511"/>
      <point x="273" y="531"/>
      <point x="273" y="545" type="curve" smooth="yes"/>
      <point x="273" y="624" type="line" smooth="yes"/>
      <point x="273" y="679"/>
      <point x="232" y="703"/>
      <point x="167" y="703" type="curve" smooth="yes"/>
      <point x="92" y="703"/>
      <point x="51" y="670"/>
      <point x="54" y="623" type="curve"/>
      <point x="121" y="618" type="line"/>
      <point x="118" y="635"/>
      <point x="121" y="653"/>
      <point x="162" y="653" type="curve" smooth="yes"/>
      <point x="188" y="653"/>
      <point x="197" y="645"/>
      <point x="197" y="628" type="curve" smooth="yes"/>
      <point x="197" y="614"/>
      <point x="163" y="608"/>
      <point x="127" y="598" type="curve" smooth="yes"/>
      <point x="87" y="588"/>
      <point x="45" y="575"/>
    </contour>
    <contour>
      <point x="120" y="535" type="curve" smooth="yes"/>
      <point x="120" y="546"/>
      <point x="130" y="553"/>
      <point x="143" y="558" type="curve" smooth="yes"/>
      <point x="161" y="566"/>
      <point x="184" y="571"/>
      <point x="196" y="577" type="curve"/>
      <point x="196" y="566" type="line" smooth="yes"/>
      <point x="196" y="529"/>
      <point x="163" y="520"/>
      <point x="141" y="520" type="curve" smooth="yes"/>
      <point x="127" y="520"/>
      <point x="120" y="527"/>
    </contour>
  </outline>
</glyph>
<glyph name="guillemetleft" format="2">
  <advance width="737"/>
  <unicode hex="00AB"/>
  <outline>
    <contour>
      <point x="65" y="215" type="line"/>
      <point x="126" y="252"/>
      <point x="183" y="294"/>
      <point x="243" y="331" type="curve" smooth="yes"/>
      <point x="287" y="358"/>
      <point x="328" y="384"/>
      <point x="372" y="409" type="curve"/>
      <point x="312" y="494" type="line"/>
      <point x="272" y="462"/>
      <point x="231" y="431"/>
      <point x="190" y="402" type="curve" smooth="yes"/>
      <point x="150" y="374"/>
      <point x="108" y="348"/>
      <point x="67" y="321" type="curve"/>
    </contour>
    <contour>
      <point x="311" y="34" type="curve"/>
      <point x="370" y="113" type="line"/>
      <point x="325" y="139"/>
      <point x="285" y="166"/>
      <point x="240" y="197" type="curve" smooth="yes"/>
      <point x="182" y="237"/>
      <point x="126" y="282"/>
      <point x="67" y="321" type="curve"/>
      <point x="65" y="215" type="line"/>
      <point x="105" y="187"/>
      <point x="147" y="160"/>
      <point x="186" y="130" type="curve" smooth="yes"/>
      <point x="226" y="100"/>
      <point x="271" y="67"/>
    </contour>
    <contour>
      <point x="365" y="215" type="line"/>
      <point x="426" y="252"/>
      <point x="483" y="294"/>
      <point x="543" y="331" type="curve" smooth="yes"/>
      <point x="587" y="358"/>
      <point x="628" y="384"/>
      <point x="672" y="409" type="curve"/>
      <point x="612" y="494" type="line"/>
      <point x="572" y="462"/>
      <point x="531" y="431"/>
      <point x="490" y="402" type="curve" smooth="yes"/>
      <point x="450" y="374"/>
      <point x="408" y="348"/>
      <point x="367" y="321" type="curve"/>
    </contour>
    <contour>
      <point x="611" y="34" type="curve"/>
      <point x="670" y="113" type="line"/>
      <point x="625" y="139"/>
      <point x="585" y="166"/>
      <point x="540" y="197" type="curve" smooth="yes"/>
      <point x="482" y="237"/>
      <point x="426" y="282"/>
      <point x="367" y="321" type="curve"/>
      <point x="365" y="215" type="line"/>
      <point x="405" y="187"/>
      <point x="447" y="160"/>
      <point x="486" y="130" type="curve" smooth="yes"/>
      <point x="526" y="100"/>
      <point x="571" y="67"/>
    </contour>
  </outline>
</glyph>
<glyph name="registered" format="2">
  <advance width="470"/>
  <unicode hex="00AE"/>
  <outline>
    <contour>
      <point x="217" y="210" type="curve" smooth="yes"/>
      <point x="374" y="210"/>
      <point x="460" y="320"/>
      <point x="460" y="496" type="curve" smooth="yes"/>
      <point x="460" y="629"/>
      <point x="386" y="724"/>
      <point x="247" y="724" type="curve" smooth="yes"/>
      <point x="93" y="724"/>
      <point x="10" y="618"/>
      <point x="10" y="452" type="curve" smooth="yes"/>
      <point x="10" y="307"/>
      <point x="80" y="210"/>
    </contour>
    <contour>
      <point x="232" y="276" type="curve" smooth="yes"/>
      <point x="134" y="276"/>
      <point x="90" y="334"/>
      <point x="90" y="465" type="curve" smooth="yes"/>
      <point x="90" y="531"/>
      <point x="101" y="653"/>
      <point x="231" y="653" type="curve" smooth="yes"/>
      <point x="332" y="653"/>
      <point x="375" y="603"/>
      <point x="375" y="476" type="curve" smooth="yes"/>
      <point x="375" y="355"/>
      <point x="329" y="276"/>
    </contour>
    <contour>
      <point x="256" y="320" type="curve"/>
      <point x="317" y="321" type="line"/>
      <point x="303" y="362"/>
      <point x="290" y="400"/>
      <point x="278" y="437" type="curve"/>
      <point x="299" y="454"/>
      <point x="311" y="481"/>
      <point x="311" y="520" type="curve" smooth="yes"/>
      <point x="311" y="599"/>
      <point x="276" y="617"/>
      <point x="210" y="617" type="curve" smooth="yes"/>
      <point x="194" y="617"/>
      <point x="177" y="617"/>
      <point x="158" y="615" type="curve"/>
      <point x="160" y="581"/>
      <point x="162" y="518"/>
      <point x="162" y="467" type="curve" smooth="yes"/>
      <point x="162" y="416"/>
      <point x="161" y="353"/>
      <point x="160" y="320" type="curve"/>
      <point x="213" y="324" type="line"/>
      <point x="213" y="354"/>
      <point x="212" y="383"/>
      <point x="212" y="413" type="curve"/>
      <point x="220" y="414"/>
      <point x="226" y="415"/>
      <point x="233" y="416" type="curve"/>
      <point x="244" y="383"/>
      <point x="251" y="351"/>
    </contour>
    <contour>
      <point x="212" y="456" type="curve"/>
      <point x="212" y="460"/>
      <point x="212" y="464"/>
      <point x="212" y="468" type="curve" smooth="yes"/>
      <point x="211" y="499"/>
      <point x="211" y="541"/>
      <point x="212" y="574" type="curve"/>
      <point x="214" y="574"/>
      <point x="216" y="574"/>
      <point x="218" y="574" type="curve" smooth="yes"/>
      <point x="250" y="574"/>
      <point x="259" y="561"/>
      <point x="259" y="519" type="curve" smooth="yes"/>
      <point x="259" y="478"/>
      <point x="247" y="457"/>
    </contour>
  </outline>
</glyph>
<glyph name="twosuperior" format="2">
  <advance width="292"/>
  <unicode hex="00B2"/>
  <outline>
    <contour>
      <point x="126" y="589" type="line"/>
      <point x="188" y="608"/>
      <point x="255" y="661"/>
      <point x="255" y="724" type="curve" smooth="yes"/>
      <point x="255" y="771"/>
      <point x="224" y="805"/>
      <point x="150" y="805" type="curve" smooth="yes"/>
      <point x="77" y="805"/>
      <point x="46" y="764"/>
      <point x="46" y="714" type="curve" smooth="yes"/>
      <point x="46" y="705"/>
      <point x="47" y="696"/>
      <point x="49" y="687" type="curve"/>
      <point x="133" y="690" type="line"/>
      <point x="131" y="699"/>
      <point x="130" y="707"/>
      <point x="130" y="714" type="curve" smooth="yes"/>
      <point x="130" y="732"/>
      <point x="137" y="743"/>
      <point x="149" y="743" type="curve" smooth="yes"/>
      <point x="162" y="743"/>
      <point x="167" y="735"/>
      <point x="167" y="715" type="curve" smooth="yes"/>
      <point x="167" y="669"/>
      <point x="124" y="635"/>
      <point x="48" y="612" type="curve"/>
    </contour>
    <contour>
      <point x="47" y="556" type="line"/>
      <point x="95" y="556"/>
      <point x="128" y="555"/>
      <point x="150" y="555" type="curve" smooth="yes"/>
      <point x="178" y="555"/>
      <point x="201" y="555"/>
      <point x="259" y="554" type="curve"/>
      <point x="258" y="614" type="line"/>
      <point x="245" y="613"/>
      <point x="203" y="612"/>
      <point x="155" y="612" type="curve" smooth="yes"/>
      <point x="128" y="612"/>
      <point x="64" y="612"/>
      <point x="48" y="612" type="curve"/>
    </contour>
  </outline>
</glyph>
<glyph name="threesuperior" format="2">
  <advance width="292"/>
  <unicode hex="00B3"/>
  <outline>
    <contour>
      <point x="140" y="560" type="curve" smooth="yes"/>
      <point x="200" y="560"/>
      <point x="245" y="582"/>
      <point x="245" y="622" type="curve" smooth="yes"/>
      <point x="245" y="646"/>
      <point x="228" y="664"/>
      <point x="198" y="668" type="curve"/>
      <point x="227" y="679"/>
      <point x="249" y="698"/>
      <point x="249" y="733" type="curve" smooth="yes"/>
      <point x="249" y="776"/>
      <point x="217" y="806"/>
      <point x="150" y="806" type="curve" smooth="yes"/>
      <point x="86" y="806"/>
      <point x="44" y="774"/>
      <point x="44" y="725" type="curve" smooth="yes"/>
      <point x="44" y="719"/>
      <point x="44" y="712"/>
      <point x="46" y="705" type="curve"/>
      <point x="131" y="709" type="line"/>
      <point x="130" y="713"/>
      <point x="129" y="717"/>
      <point x="129" y="721" type="curve" smooth="yes"/>
      <point x="129" y="733"/>
      <point x="134" y="743"/>
      <point x="150" y="743" type="curve" smooth="yes"/>
      <point x="165" y="743"/>
      <point x="172" y="734"/>
      <point x="172" y="722" type="curve" smooth="yes"/>
      <point x="172" y="696"/>
      <point x="159" y="686"/>
      <point x="140" y="686" type="curve" smooth="yes"/>
      <point x="125" y="686"/>
      <point x="109" y="685"/>
      <point x="89" y="685" type="curve"/>
      <point x="89" y="645" type="line"/>
      <point x="109" y="645"/>
      <point x="128" y="645"/>
      <point x="138" y="645" type="curve" smooth="yes"/>
      <point x="157" y="645"/>
      <point x="165" y="642"/>
      <point x="165" y="631" type="curve" smooth="yes"/>
      <point x="165" y="622"/>
      <point x="160" y="615"/>
      <point x="146" y="615" type="curve" smooth="yes"/>
      <point x="133" y="615"/>
      <point x="125" y="621"/>
      <point x="125" y="629" type="curve"/>
      <point x="39" y="629" type="line"/>
      <point x="40" y="573"/>
      <point x="81" y="560"/>
    </contour>
  </outline>
</glyph>
<glyph name="paragraph" format="2">
  <advance width="600"/>
  <unicode hex="00B6"/>
  <outline>
    <contour>
      <point x="319" y="193" type="curve"/>
      <point x="378" y="710" type="line"/>
      <point x="340" y="714"/>
      <point x="249" y="715"/>
      <point x="194" y="715" type="curve" smooth="yes"/>
      <point x="69" y="715"/>
      <point x="25" y="632"/>
      <point x="25" y="450" type="curve" smooth="yes"/>
      <point x="25" y="264"/>
      <point x="94" y="187"/>
    </contour>
    <contour>
      <point x="251" y="-113" type="curve"/>
      <point x="375" y="-100" type="line"/>
      <point x="375" y="-108"/>
      <point x="375" y="183"/>
      <point x="375" y="357" type="curve" smooth="yes"/>
      <point x="375" y="532"/>
      <point x="378" y="717"/>
      <point x="378" y="710" type="curve"/>
      <point x="255" y="703" type="line"/>
      <point x="255" y="710"/>
      <point x="261" y="477"/>
      <point x="261" y="359" type="curve" smooth="yes"/>
      <point x="261" y="321"/>
      <point x="258" y="101"/>
    </contour>
    <contour>
      <point x="428" y="-113" type="curve"/>
      <point x="548" y="-100" type="line" smooth="yes"/>
      <point x="556" y="-99"/>
      <point x="544" y="183"/>
      <point x="544" y="357" type="curve" smooth="yes"/>
      <point x="544" y="532"/>
      <point x="554" y="710"/>
      <point x="547" y="710" type="curve" smooth="yes"/>
      <point x="431" y="703" type="line"/>
      <point x="431" y="538"/>
      <point x="430" y="509"/>
      <point x="430" y="359" type="curve" smooth="yes"/>
      <point x="430" y="277"/>
      <point x="433" y="114"/>
    </contour>
  </outline>
</glyph>
<glyph name="cedilla" format="2">
  <advance width="301"/>
  <unicode hex="00B8"/>
  <anchor x="153" y="0" name="_bottom"/>
  <outline>
    <contour>
      <point x="110" y="-172" type="curve" smooth="yes"/>
      <point x="188" y="-172"/>
      <point x="267" y="-154"/>
      <point x="267" y="-98" type="curve" smooth="yes"/>
      <point x="267" y="-52"/>
      <point x="211" y="-31"/>
      <point x="106" y="-32" type="curve"/>
      <point x="84" y="-82" type="line"/>
      <point x="146" y="-80"/>
      <point x="180" y="-88"/>
      <point x="180" y="-99" type="curve" smooth="yes"/>
      <point x="180" y="-104"/>
      <point x="163" y="-110"/>
      <point x="134" y="-110" type="curve" smooth="yes"/>
      <point x="103" y="-110"/>
      <point x="59" y="-108"/>
      <point x="50" y="-106" type="curve"/>
      <point x="33" y="-167" type="line"/>
      <point x="58" y="-169"/>
      <point x="82" y="-172"/>
    </contour>
    <contour>
      <point x="180" y="0" type="line"/>
      <point x="108" y="0" type="line"/>
      <point x="84" y="-82" type="line"/>
      <point x="155" y="-82" type="line"/>
    </contour>
  </outline>
</glyph>
<glyph name="onesuperior" format="2">
  <advance width="292"/>
  <unicode hex="00B9"/>
  <outline>
    <contour>
      <point x="125" y="567" type="curve"/>
      <point x="220" y="567" type="line"/>
      <point x="217" y="662"/>
      <point x="217" y="717"/>
      <point x="221" y="801" type="curve"/>
      <point x="161" y="801" type="line"/>
      <point x="128" y="736" type="line"/>
      <point x="130" y="671"/>
      <point x="129" y="623"/>
    </contour>
    <contour>
      <point x="56" y="696" type="line"/>
      <point x="85" y="692"/>
      <point x="152" y="700"/>
      <point x="186" y="716" type="curve"/>
      <point x="161" y="801" type="line"/>
      <point x="141" y="773"/>
      <point x="71" y="751"/>
      <point x="50" y="754" type="curve"/>
    </contour>
  </outline>
</glyph>
<glyph name="ordmasculine" format="2">
  <advance width="324"/>
  <unicode hex="00BA"/>
  <outline>
    <contour>
      <point x="160" y="469" type="curve" smooth="yes"/>
      <point x="236" y="469"/>
      <point x="279" y="515"/>
      <point x="279" y="590" type="curve" smooth="yes"/>
      <point x="279" y="662"/>
      <point x="239" y="703"/>
      <point x="165" y="703" type="curve" smooth="yes"/>
      <point x="88" y="703"/>
      <point x="45" y="655"/>
      <point x="45" y="590" type="curve" smooth="yes"/>
      <point x="45" y="518"/>
      <point x="85" y="469"/>
    </contour>
    <contour>
      <point x="160" y="528" type="curve" smooth="yes"/>
      <point x="133" y="528"/>
      <point x="123" y="548"/>
      <point x="123" y="589" type="curve" smooth="yes"/>
      <point x="123" y="626"/>
      <point x="133" y="647"/>
      <point x="164" y="647" type="curve" smooth="yes"/>
      <point x="193" y="647"/>
      <point x="201" y="626"/>
      <point x="201" y="593" type="curve" smooth="yes"/>
      <point x="201" y="545"/>
      <point x="188" y="528"/>
    </contour>
  </outline>
</glyph>
<glyph name="guillemetright" format="2">
  <advance width="737"/>
  <unicode hex="00BB"/>
  <outline>
    <contour>
      <point x="670" y="207" type="curve"/>
      <point x="672" y="313" type="line"/>
      <point x="632" y="341"/>
      <point x="590" y="368"/>
      <point x="551" y="398" type="curve" smooth="yes"/>
      <point x="511" y="428"/>
      <point x="466" y="461"/>
      <point x="426" y="494" type="curve"/>
      <point x="367" y="415" type="line"/>
      <point x="412" y="389"/>
      <point x="452" y="362"/>
      <point x="497" y="331" type="curve" smooth="yes"/>
      <point x="555" y="291"/>
      <point x="611" y="246"/>
    </contour>
    <contour>
      <point x="370" y="207" type="curve"/>
      <point x="372" y="313" type="line"/>
      <point x="332" y="341"/>
      <point x="290" y="368"/>
      <point x="251" y="398" type="curve" smooth="yes"/>
      <point x="211" y="428"/>
      <point x="166" y="461"/>
      <point x="126" y="494" type="curve"/>
      <point x="67" y="415" type="line"/>
      <point x="112" y="389"/>
      <point x="152" y="362"/>
      <point x="197" y="331" type="curve" smooth="yes"/>
      <point x="255" y="291"/>
      <point x="311" y="246"/>
    </contour>
    <contour>
      <point x="425" y="34" type="line"/>
      <point x="465" y="66"/>
      <point x="506" y="97"/>
      <point x="547" y="126" type="curve" smooth="yes"/>
      <point x="587" y="154"/>
      <point x="629" y="180"/>
      <point x="670" y="207" type="curve"/>
      <point x="672" y="313" type="line"/>
      <point x="611" y="276"/>
      <point x="554" y="234"/>
      <point x="494" y="197" type="curve" smooth="yes"/>
      <point x="450" y="170"/>
      <point x="409" y="144"/>
      <point x="365" y="119" type="curve"/>
    </contour>
    <contour>
      <point x="125" y="34" type="line"/>
      <point x="165" y="66"/>
      <point x="206" y="97"/>
      <point x="247" y="126" type="curve" smooth="yes"/>
      <point x="287" y="154"/>
      <point x="329" y="180"/>
      <point x="370" y="207" type="curve"/>
      <point x="372" y="313" type="line"/>
      <point x="311" y="276"/>
      <point x="254" y="234"/>
      <point x="194" y="197" type="curve" smooth="yes"/>
      <point x="150" y="170"/>
      <point x="109" y="144"/>
      <point x="65" y="119" type="curve"/>
    </contour>
  </outline>
</glyph>
<glyph name="onequarter" format="2">
  <advance width="696"/>
  <unicode hex="00BC"/>
  <outline>
    <contour>
      <point x="90" y="7" type="curve"/>
      <point x="209" y="-7" type="line"/>
      <point x="272" y="106"/>
      <point x="334" y="220"/>
      <point x="399" y="332" type="curve" smooth="yes"/>
      <point x="468" y="451"/>
      <point x="539" y="569"/>
      <point x="609" y="688" type="curve"/>
      <point x="490" y="704" type="line"/>
      <point x="425" y="585"/>
      <point x="364" y="466"/>
      <point x="296" y="347" type="curve" smooth="yes"/>
      <point x="230" y="231"/>
      <point x="159" y="120"/>
    </contour>
    <contour>
      <point x="157" y="462" type="curve"/>
      <point x="252" y="462" type="line"/>
      <point x="249" y="557"/>
      <point x="249" y="612"/>
      <point x="253" y="696" type="curve"/>
      <point x="193" y="696" type="line"/>
      <point x="173" y="668"/>
      <point x="103" y="646"/>
      <point x="82" y="649" type="curve"/>
      <point x="88" y="591" type="line"/>
      <point x="104" y="589"/>
      <point x="133" y="590"/>
      <point x="161" y="595" type="curve"/>
      <point x="162" y="547"/>
      <point x="160" y="507"/>
    </contour>
    <contour>
      <point x="520" y="-1" type="line"/>
      <point x="596" y="0" type="line"/>
      <point x="596" y="40" type="line"/>
      <point x="628" y="40" type="line"/>
      <point x="628" y="100" type="line"/>
      <point x="595" y="99" type="line"/>
      <point x="595" y="127" type="line" smooth="yes"/>
      <point x="595" y="169"/>
      <point x="596" y="214"/>
      <point x="596" y="235" type="curve"/>
      <point x="477" y="236" type="line"/>
      <point x="467" y="214"/>
      <point x="455" y="190"/>
      <point x="444" y="166" type="curve"/>
      <point x="410" y="98" type="line"/>
      <point x="415" y="39" type="line"/>
      <point x="520" y="40" type="line"/>
    </contour>
    <contour>
      <point x="488" y="97" type="line"/>
      <point x="521" y="182" type="line"/>
      <point x="521" y="97" type="line"/>
    </contour>
  </outline>
</glyph>
<glyph name="onehalf" format="2">
  <advance width="696"/>
  <unicode hex="00BD"/>
  <outline>
    <contour>
      <point x="90" y="7" type="curve"/>
      <point x="209" y="-7" type="line"/>
      <point x="272" y="106"/>
      <point x="334" y="220"/>
      <point x="399" y="332" type="curve" smooth="yes"/>
      <point x="468" y="451"/>
      <point x="539" y="569"/>
      <point x="609" y="688" type="curve"/>
      <point x="490" y="704" type="line"/>
      <point x="425" y="585"/>
      <point x="364" y="466"/>
      <point x="296" y="347" type="curve" smooth="yes"/>
      <point x="230" y="231"/>
      <point x="159" y="120"/>
    </contour>
    <contour>
      <point x="423" y="1" type="line"/>
      <point x="471" y="1"/>
      <point x="504" y="0"/>
      <point x="526" y="0" type="curve"/>
      <point x="635" y="-1" type="line"/>
      <point x="634" y="59" type="line"/>
      <point x="623" y="58"/>
      <point x="594" y="57"/>
      <point x="553" y="57" type="curve"/>
      <point x="596" y="83"/>
      <point x="631" y="123"/>
      <point x="631" y="169" type="curve" smooth="yes"/>
      <point x="631" y="216"/>
      <point x="600" y="250"/>
      <point x="526" y="250" type="curve" smooth="yes"/>
      <point x="453" y="250"/>
      <point x="422" y="209"/>
      <point x="422" y="159" type="curve" smooth="yes"/>
      <point x="422" y="150"/>
      <point x="423" y="141"/>
      <point x="425" y="132" type="curve"/>
      <point x="509" y="135" type="line"/>
      <point x="507" y="144"/>
      <point x="506" y="152"/>
      <point x="506" y="159" type="curve" smooth="yes"/>
      <point x="506" y="177"/>
      <point x="513" y="188"/>
      <point x="525" y="188" type="curve" smooth="yes"/>
      <point x="538" y="188"/>
      <point x="543" y="180"/>
      <point x="543" y="160" type="curve" smooth="yes"/>
      <point x="543" y="114"/>
      <point x="500" y="80"/>
      <point x="424" y="57" type="curve"/>
    </contour>
    <contour>
      <point x="157" y="462" type="curve"/>
      <point x="252" y="462" type="line"/>
      <point x="249" y="557"/>
      <point x="249" y="612"/>
      <point x="253" y="696" type="curve"/>
      <point x="193" y="696" type="line"/>
      <point x="173" y="668"/>
      <point x="103" y="646"/>
      <point x="82" y="649" type="curve"/>
      <point x="88" y="591" type="line"/>
      <point x="104" y="589"/>
      <point x="133" y="590"/>
      <point x="161" y="595" type="curve"/>
      <point x="162" y="547"/>
      <point x="160" y="507"/>
    </contour>
  </outline>
</glyph>
<glyph name="threequarters" format="2">
  <advance width="696"/>
  <unicode hex="00BE"/>
  <outline>
    <contour>
      <point x="90" y="7" type="curve"/>
      <point x="209" y="-7" type="line"/>
      <point x="272" y="106"/>
      <point x="334" y="220"/>
      <point x="399" y="332" type="curve" smooth="yes"/>
      <point x="468" y="451"/>
      <point x="539" y="569"/>
      <point x="609" y="688" type="curve"/>
      <point x="490" y="704" type="line"/>
      <point x="425" y="585"/>
      <point x="364" y="466"/>
      <point x="296" y="347" type="curve" smooth="yes"/>
      <point x="230" y="231"/>
      <point x="159" y="120"/>
    </contour>
    <contour>
      <point x="180" y="456" type="curve" smooth="yes"/>
      <point x="240" y="456"/>
      <point x="285" y="478"/>
      <point x="285" y="518" type="curve" smooth="yes"/>
      <point x="285" y="542"/>
      <point x="268" y="560"/>
      <point x="238" y="564" type="curve"/>
      <point x="267" y="575"/>
      <point x="289" y="594"/>
      <point x="289" y="629" type="curve" smooth="yes"/>
      <point x="289" y="672"/>
      <point x="257" y="702"/>
      <point x="190" y="702" type="curve" smooth="yes"/>
      <point x="126" y="702"/>
      <point x="84" y="670"/>
      <point x="84" y="621" type="curve" smooth="yes"/>
      <point x="84" y="615"/>
      <point x="84" y="608"/>
      <point x="86" y="601" type="curve"/>
      <point x="171" y="605" type="line"/>
      <point x="170" y="609"/>
      <point x="169" y="613"/>
      <point x="169" y="617" type="curve" smooth="yes"/>
      <point x="169" y="629"/>
      <point x="174" y="639"/>
      <point x="190" y="639" type="curve" smooth="yes"/>
      <point x="205" y="639"/>
      <point x="212" y="630"/>
      <point x="212" y="618" type="curve" smooth="yes"/>
      <point x="212" y="592"/>
      <point x="199" y="582"/>
      <point x="180" y="582" type="curve" smooth="yes"/>
      <point x="165" y="582"/>
      <point x="149" y="581"/>
      <point x="129" y="581" type="curve"/>
      <point x="129" y="541" type="line"/>
      <point x="149" y="541"/>
      <point x="168" y="541"/>
      <point x="178" y="541" type="curve" smooth="yes"/>
      <point x="197" y="541"/>
      <point x="205" y="538"/>
      <point x="205" y="527" type="curve" smooth="yes"/>
      <point x="205" y="518"/>
      <point x="200" y="511"/>
      <point x="186" y="511" type="curve" smooth="yes"/>
      <point x="173" y="511"/>
      <point x="165" y="517"/>
      <point x="165" y="525" type="curve"/>
      <point x="79" y="525" type="line"/>
      <point x="80" y="469"/>
      <point x="121" y="456"/>
    </contour>
    <contour>
      <point x="520" y="-1" type="line"/>
      <point x="596" y="0" type="line"/>
      <point x="596" y="40" type="line"/>
      <point x="628" y="40" type="line"/>
      <point x="628" y="100" type="line"/>
      <point x="595" y="99" type="line"/>
      <point x="595" y="127" type="line" smooth="yes"/>
      <point x="595" y="169"/>
      <point x="596" y="214"/>
      <point x="596" y="235" type="curve"/>
      <point x="477" y="236" type="line"/>
      <point x="467" y="214"/>
      <point x="455" y="190"/>
      <point x="444" y="166" type="curve"/>
      <point x="410" y="98" type="line"/>
      <point x="415" y="39" type="line"/>
      <point x="520" y="40" type="line"/>
    </contour>
    <contour>
      <point x="488" y="97" type="line"/>
      <point x="521" y="182" type="line"/>
      <point x="521" y="97" type="line"/>
    </contour>
  </outline>
</glyph>
<glyph name="questiondown" format="2">
  <advance width="526"/>
  <unicode hex="00BF"/>
  <outline>
    <contour>
      <point x="200" y="338" type="line"/>
      <point x="208" y="303"/>
      <point x="211" y="281"/>
      <point x="211" y="265" type="curve" smooth="yes"/>
      <point x="211" y="236"/>
      <point x="187" y="216"/>
      <point x="157" y="192" type="curve" smooth="yes"/>
      <point x="113" y="156"/>
      <point x="57" y="110"/>
      <point x="57" y="8" type="curve" smooth="yes"/>
      <point x="57" y="-89"/>
      <point x="118" y="-165"/>
      <point x="255" y="-165" type="curve" smooth="yes"/>
      <point x="407" y="-165"/>
      <point x="469" y="-77"/>
      <point x="469" y="26" type="curve" smooth="yes"/>
      <point x="469" y="55"/>
      <point x="464" y="85"/>
      <point x="454" y="115" type="curve"/>
      <point x="321" y="116" type="line"/>
      <point x="328" y="92"/>
      <point x="335" y="63"/>
      <point x="335" y="34" type="curve" smooth="yes"/>
      <point x="335" y="-11"/>
      <point x="314" y="-50"/>
      <point x="261" y="-50" type="curve" smooth="yes"/>
      <point x="222" y="-50"/>
      <point x="190" y="-29"/>
      <point x="190" y="16" type="curve" smooth="yes"/>
      <point x="190" y="65"/>
      <point x="211" y="94"/>
      <point x="238" y="117" type="curve" smooth="yes"/>
      <point x="282" y="155"/>
      <point x="338" y="182"/>
      <point x="338" y="266" type="curve" smooth="yes"/>
      <point x="338" y="285"/>
      <point x="335" y="305"/>
      <point x="328" y="337" type="curve"/>
    </contour>
    <contour>
      <point x="330" y="551" type="line"/>
      <point x="193" y="554" type="line"/>
      <point x="205" y="384" type="line"/>
      <point x="329" y="386" type="line"/>
    </contour>
  </outline>
</glyph>
<glyph name="AE" format="2">
  <advance width="623"/>
  <unicode hex="00C6"/>
  <anchor x="400" y="693" name="top"/>
  <outline>
    <contour>
      <point x="-48" y="1" type="curve"/>
      <point x="107" y="0" type="line"/>
      <point x="121" y="42"/>
      <point x="136" y="84"/>
      <point x="150" y="126" type="curve"/>
      <point x="284" y="132" type="line"/>
      <point x="282" y="-6" type="line"/>
      <point x="619" y="0" type="line"/>
      <point x="618" y="95" type="line"/>
      <point x="427" y="99" type="line"/>
      <point x="426" y="181" type="line"/>
      <point x="614" y="184" type="line"/>
      <point x="616" y="293" type="line"/>
      <point x="425" y="295" type="line"/>
      <point x="425" y="341" type="line" smooth="yes"/>
      <point x="425" y="408"/>
      <point x="426" y="514"/>
      <point x="427" y="591" type="curve"/>
      <point x="607" y="592" type="line"/>
      <point x="607" y="693" type="line"/>
      <point x="215" y="702" type="line"/>
      <point x="195" y="641"/>
      <point x="148" y="506"/>
      <point x="90" y="356" type="curve" smooth="yes"/>
      <point x="40" y="227"/>
      <point x="-18" y="78"/>
    </contour>
    <contour>
      <point x="286" y="222" type="line"/>
      <point x="181" y="224" type="line"/>
      <point x="196" y="266"/>
      <point x="210" y="307"/>
      <point x="225" y="349" type="curve" smooth="yes"/>
      <point x="245" y="406"/>
      <point x="262" y="454"/>
      <point x="284" y="515" type="curve"/>
      <point x="286" y="448"/>
      <point x="287" y="372"/>
      <point x="287" y="342" type="curve" smooth="yes"/>
    </contour>
  </outline>
</glyph>
<glyph name="Eth" format="2">
  <advance width="451"/>
  <unicode hex="00D0"/>
  <outline>
    <contour>
      <point x="-12" y="304" type="line"/>
      <point x="6" y="305"/>
      <point x="58" y="306"/>
      <point x="134" y="306" type="curve"/>
      <point x="175" y="306"/>
      <point x="226" y="305"/>
      <point x="253" y="304" type="curve"/>
      <point x="251" y="400" type="line"/>
      <point x="230" y="398"/>
      <point x="185" y="396"/>
      <point x="140" y="397" type="curve"/>
      <point x="76" y="398"/>
      <point x="18" y="399"/>
      <point x="-7" y="400" type="curve"/>
    </contour>
    <component base="D" xOffset="4"/>
  </outline>
</glyph>
<glyph name="Thorn" format="2">
  <advance width="407"/>
  <unicode hex="00DE"/>
  <outline>
    <contour>
      <point x="117" y="133" type="line"/>
      <point x="297" y="133"/>
      <point x="417" y="173"/>
      <point x="417" y="376" type="curve" smooth="yes"/>
      <point x="417" y="562"/>
      <point x="316" y="595"/>
      <point x="159" y="595" type="curve" smooth="yes"/>
      <point x="142" y="595"/>
      <point x="125" y="595"/>
      <point x="107" y="594" type="curve"/>
      <point x="107" y="479" type="line"/>
      <point x="135" y="483"/>
      <point x="158" y="486"/>
      <point x="179" y="486" type="curve" smooth="yes"/>
      <point x="224" y="486"/>
      <point x="273" y="466"/>
      <point x="273" y="373" type="curve" smooth="yes"/>
      <point x="273" y="261"/>
      <point x="223" y="230"/>
      <point x="117" y="244" type="curve"/>
    </contour>
    <contour>
      <point x="27" y="-5" type="curve"/>
      <point x="173" y="5" type="line"/>
      <point x="172" y="108"/>
      <point x="170" y="274"/>
      <point x="170" y="354" type="curve"/>
      <point x="168" y="456"/>
      <point x="167" y="635"/>
      <point x="172" y="702" type="curve"/>
      <point x="23" y="712" type="line"/>
      <point x="26" y="631"/>
      <point x="31" y="477"/>
      <point x="31" y="352" type="curve"/>
      <point x="31" y="228"/>
      <point x="29" y="75"/>
    </contour>
  </outline>
</glyph>
<glyph name="germandbls" format="2">
  <advance width="460"/>
  <unicode hex="00DF"/>
  <outline>
    <contour>
      <point x="8" y="-2" type="curve"/>
      <point x="157" y="1" type="line"/>
      <point x="154" y="36"/>
      <point x="150" y="123"/>
      <point x="150" y="271" type="curve" smooth="yes"/>
      <point x="150" y="373"/>
      <point x="148" y="485"/>
      <point x="152" y="523" type="curve" smooth="yes"/>
      <point x="156" y="563"/>
      <point x="176" y="599"/>
      <point x="227" y="599" type="curve" smooth="yes"/>
      <point x="272" y="599"/>
      <point x="292" y="581"/>
      <point x="292" y="542" type="curve" smooth="yes"/>
      <point x="292" y="470"/>
      <point x="186" y="442"/>
      <point x="186" y="355" type="curve" smooth="yes"/>
      <point x="186" y="293"/>
      <point x="233" y="256"/>
      <point x="273" y="224" type="curve" smooth="yes"/>
      <point x="305" y="199"/>
      <point x="333" y="177"/>
      <point x="333" y="148" type="curve" smooth="yes"/>
      <point x="333" y="104"/>
      <point x="340" y="60"/>
      <point x="202" y="85" type="curve"/>
      <point x="194" y="-1" type="line"/>
      <point x="405" y="-25"/>
      <point x="469" y="53"/>
      <point x="469" y="150" type="curve" smooth="yes"/>
      <point x="469" y="215"/>
      <point x="418" y="257"/>
      <point x="376" y="292" type="curve" smooth="yes"/>
      <point x="346" y="317"/>
      <point x="321" y="338"/>
      <point x="321" y="360" type="curve" smooth="yes"/>
      <point x="321" y="415"/>
      <point x="426" y="448"/>
      <point x="426" y="551" type="curve" smooth="yes"/>
      <point x="426" y="633"/>
      <point x="376" y="701"/>
      <point x="235" y="701" type="curve" smooth="yes"/>
      <point x="86" y="701"/>
      <point x="27" y="616"/>
      <point x="19" y="518" type="curve" smooth="yes"/>
      <point x="17" y="492"/>
      <point x="17" y="329"/>
      <point x="17" y="270" type="curve" smooth="yes"/>
      <point x="17" y="119"/>
      <point x="14" y="98"/>
    </contour>
  </outline>
</glyph>
<glyph name="ae" format="2">
  <advance width="580"/>
  <unicode hex="00E6"/>
  <anchor x="304" y="555" name="top"/>
  <outline>
    <contour>
      <point x="132" y="-9" type="curve" smooth="yes"/>
      <point x="195" y="-9"/>
      <point x="236" y="21"/>
      <point x="262" y="75" type="curve"/>
      <point x="281" y="20"/>
      <point x="319" y="-12"/>
      <point x="394" y="-12" type="curve" smooth="yes"/>
      <point x="507" y="-12"/>
      <point x="562" y="45"/>
      <point x="562" y="145" type="curve" smooth="yes"/>
      <point x="562" y="158"/>
      <point x="561" y="173"/>
      <point x="559" y="188" type="curve"/>
      <point x="425" y="188" type="line"/>
      <point x="429" y="169"/>
      <point x="432" y="150"/>
      <point x="432" y="135" type="curve" smooth="yes"/>
      <point x="432" y="108"/>
      <point x="423" y="89"/>
      <point x="396" y="89" type="curve" smooth="yes"/>
      <point x="368" y="89"/>
      <point x="357" y="112"/>
      <point x="352" y="152" type="curve" smooth="yes"/>
      <point x="349" y="175"/>
      <point x="349" y="204"/>
      <point x="349" y="238" type="curve"/>
      <point x="420" y="239"/>
      <point x="508" y="241"/>
      <point x="554" y="241" type="curve"/>
      <point x="559" y="283"/>
      <point x="562" y="325"/>
      <point x="562" y="361" type="curve" smooth="yes"/>
      <point x="562" y="487"/>
      <point x="522" y="564"/>
      <point x="408" y="564" type="curve" smooth="yes"/>
      <point x="355" y="564"/>
      <point x="317" y="545"/>
      <point x="292" y="510" type="curve"/>
      <point x="268" y="542"/>
      <point x="231" y="565"/>
      <point x="174" y="565" type="curve" smooth="yes"/>
      <point x="68" y="565"/>
      <point x="21" y="495"/>
      <point x="21" y="415" type="curve" smooth="yes"/>
      <point x="21" y="396"/>
      <point x="23" y="377"/>
      <point x="28" y="358" type="curve"/>
      <point x="154" y="365" type="line"/>
      <point x="150" y="379"/>
      <point x="146" y="397"/>
      <point x="146" y="414" type="curve" smooth="yes"/>
      <point x="146" y="441"/>
      <point x="155" y="462"/>
      <point x="183" y="462" type="curve" smooth="yes"/>
      <point x="208" y="462"/>
      <point x="218" y="446"/>
      <point x="219" y="425" type="curve" smooth="yes"/>
      <point x="219" y="370"/>
      <point x="200" y="337"/>
      <point x="157" y="312" type="curve" smooth="yes"/>
      <point x="87" y="271"/>
      <point x="11" y="235"/>
      <point x="11" y="122" type="curve" smooth="yes"/>
      <point x="11" y="46"/>
      <point x="52" y="-9"/>
    </contour>
    <contour>
      <point x="167" y="100" type="curve" smooth="yes"/>
      <point x="144" y="100"/>
      <point x="139" y="122"/>
      <point x="139" y="147" type="curve" smooth="yes"/>
      <point x="139" y="190"/>
      <point x="155" y="207"/>
      <point x="190" y="234" type="curve" smooth="yes"/>
      <point x="202" y="243"/>
      <point x="213" y="252"/>
      <point x="223" y="263" type="curve"/>
      <point x="223" y="256"/>
      <point x="223" y="249"/>
      <point x="223" y="242" type="curve" smooth="yes"/>
      <point x="223" y="138"/>
      <point x="193" y="100"/>
    </contour>
    <contour>
      <point x="349" y="338" type="line"/>
      <point x="349" y="355"/>
      <point x="350" y="373"/>
      <point x="350" y="390" type="curve" smooth="yes"/>
      <point x="352" y="440"/>
      <point x="362" y="469"/>
      <point x="391" y="469" type="curve" smooth="yes"/>
      <point x="420" y="469"/>
      <point x="427" y="433"/>
      <point x="427" y="381" type="curve" smooth="yes"/>
      <point x="427" y="367"/>
      <point x="426" y="353"/>
      <point x="426" y="338" type="curve"/>
    </contour>
  </outline>
</glyph>
<glyph name="eth" format="2">
  <advance width="413"/>
  <unicode hex="00F0"/>
  <outline>
    <contour>
      <point x="189" y="-10" type="curve" smooth="yes"/>
      <point x="390" y="-10"/>
      <point x="397" y="143"/>
      <point x="397" y="322" type="curve" smooth="yes"/>
      <point x="397" y="606"/>
      <point x="252" y="690"/>
      <point x="165" y="720" type="curve"/>
      <point x="114" y="623" type="line"/>
      <point x="205" y="599"/>
      <point x="260" y="516"/>
      <point x="260" y="371" type="curve" smooth="yes"/>
      <point x="260" y="266"/>
      <point x="260" y="244"/>
      <point x="260" y="231" type="curve" smooth="yes"/>
      <point x="260" y="158"/>
      <point x="264" y="83"/>
      <point x="201" y="83" type="curve" smooth="yes"/>
      <point x="151" y="83"/>
      <point x="148" y="118"/>
      <point x="148" y="212" type="curve" smooth="yes"/>
      <point x="148" y="298"/>
      <point x="166" y="331"/>
      <point x="208" y="331" type="curve" smooth="yes"/>
      <point x="251" y="331"/>
      <point x="260" y="289"/>
      <point x="260" y="231" type="curve"/>
      <point x="317" y="316" type="line"/>
      <point x="289" y="370"/>
      <point x="273" y="427"/>
      <point x="192" y="427" type="curve" smooth="yes"/>
      <point x="65" y="427"/>
      <point x="13" y="338"/>
      <point x="13" y="204" type="curve" smooth="yes"/>
      <point x="13" y="91"/>
      <point x="41" y="-10"/>
    </contour>
    <contour>
      <point x="159" y="462" type="line"/>
      <point x="202" y="486"/>
      <point x="235" y="506"/>
      <point x="290" y="540" type="curve" smooth="yes"/>
      <point x="330" y="565"/>
      <point x="371" y="586"/>
      <point x="417" y="606" type="curve"/>
      <point x="371" y="685" type="line"/>
      <point x="332" y="660"/>
      <point x="284" y="634"/>
      <point x="246" y="612" type="curve" smooth="yes"/>
      <point x="181" y="574"/>
      <point x="165" y="566"/>
      <point x="112" y="540" type="curve"/>
    </contour>
  </outline>
</glyph>
<glyph name="divide" format="2">
  <advance width="500"/>
  <unicode hex="00F7"/>
  <outline>
    <contour>
      <point x="65" y="238" type="line"/>
      <point x="111" y="239"/>
      <point x="201" y="240"/>
      <point x="246" y="240" type="curve" smooth="yes"/>
      <point x="287" y="240"/>
      <point x="389" y="238"/>
      <point x="438" y="238" type="curve"/>
      <point x="432" y="341" type="line"/>
      <point x="401" y="340"/>
      <point x="300" y="336"/>
      <point x="254" y="338" type="curve" smooth="yes"/>
      <point x="206" y="340"/>
      <point x="111" y="340"/>
      <point x="71" y="341" type="curve"/>
    </contour>
    <contour>
      <point x="254" y="53" type="curve" smooth="yes"/>
      <point x="295" y="53"/>
      <point x="323" y="85"/>
      <point x="323" y="123" type="curve" smooth="yes"/>
      <point x="323" y="165"/>
      <point x="288" y="197"/>
      <point x="245" y="197" type="curve" smooth="yes"/>
      <point x="205" y="197"/>
      <point x="176" y="168"/>
      <point x="176" y="129" type="curve" smooth="yes"/>
      <point x="176" y="87"/>
      <point x="211" y="53"/>
    </contour>
    <contour>
      <point x="254" y="381" type="curve" smooth="yes"/>
      <point x="293" y="381"/>
      <point x="323" y="413"/>
      <point x="323" y="451" type="curve" smooth="yes"/>
      <point x="323" y="493"/>
      <point x="288" y="525"/>
      <point x="245" y="525" type="curve" smooth="yes"/>
      <point x="205" y="525"/>
      <point x="176" y="496"/>
      <point x="176" y="457" type="curve" smooth="yes"/>
      <point x="176" y="415"/>
      <point x="211" y="381"/>
    </contour>
  </outline>
</glyph>
<glyph name="oslash" format="2">
  <advance width="398"/>
  <unicode hex="00F8"/>
  <anchor x="199" y="555" name="top"/>
  <outline>
    <contour>
      <point x="192" y="-10" type="curve" smooth="yes"/>
      <point x="284" y="-10"/>
      <point x="331" y="34"/>
      <point x="354" y="109" type="curve" smooth="yes"/>
      <point x="368" y="156"/>
      <point x="373" y="216"/>
      <point x="373" y="284" type="curve" smooth="yes"/>
      <point x="373" y="342"/>
      <point x="370" y="396"/>
      <point x="359" y="440" type="curve" smooth="yes"/>
      <point x="340" y="518"/>
      <point x="298" y="568"/>
      <point x="211" y="568" type="curve" smooth="yes"/>
      <point x="121" y="568"/>
      <point x="72" y="524"/>
      <point x="47" y="451" type="curve" smooth="yes"/>
      <point x="31" y="406"/>
      <point x="25" y="349"/>
      <point x="25" y="285" type="curve" smooth="yes"/>
      <point x="25" y="220"/>
      <point x="29" y="163"/>
      <point x="41" y="116" type="curve" smooth="yes"/>
      <point x="61" y="38"/>
      <point x="104" y="-10"/>
    </contour>
    <contour>
      <point x="200" y="94" type="curve" smooth="yes"/>
      <point x="178" y="94"/>
      <point x="169" y="117"/>
      <point x="165" y="158" type="curve" smooth="yes"/>
      <point x="162" y="189"/>
      <point x="162" y="227"/>
      <point x="162" y="278" type="curve" smooth="yes"/>
      <point x="162" y="330"/>
      <point x="161" y="369"/>
      <point x="164" y="402" type="curve" smooth="yes"/>
      <point x="168" y="444"/>
      <point x="177" y="468"/>
      <point x="200" y="468" type="curve" smooth="yes"/>
      <point x="221" y="468"/>
      <point x="229" y="446"/>
      <point x="233" y="401" type="curve" smooth="yes"/>
      <point x="236" y="369"/>
      <point x="236" y="332"/>
      <point x="236" y="278" type="curve" smooth="yes"/>
      <point x="236" y="226"/>
      <point x="237" y="187"/>
      <point x="234" y="155" type="curve" smooth="yes"/>
      <point x="230" y="116"/>
      <point x="221" y="94"/>
    </contour>
    <contour>
      <point x="134" y="-60" type="line"/>
      <point x="163" y="30"/>
      <point x="211" y="176"/>
      <point x="237" y="250" type="curve" smooth="yes"/>
      <point x="263" y="324"/>
      <point x="337" y="496"/>
      <point x="386" y="605" type="curve"/>
      <point x="285" y="639" type="line"/>
      <point x="256" y="555"/>
      <point x="202" y="403"/>
      <point x="162" y="294" type="curve" smooth="yes"/>
      <point x="122" y="185"/>
      <point x="65" y="52"/>
      <point x="34" y="-19" type="curve"/>
    </contour>
  </outline>
</glyph>
<glyph name="thorn" format="2">
  <advance width="414"/>
  <unicode hex="00FE"/>
  <outline>
    <contour>
      <point x="30" y="-166" type="curve"/>
      <point x="180" y="-160" type="line"/>
      <point x="174" y="21" type="line"/>
      <point x="189" y="1"/>
      <point x="209" y="-10"/>
      <point x="237" y="-10" type="curve" smooth="yes"/>
      <point x="314" y="-10"/>
      <point x="355" y="46"/>
      <point x="375" y="127" type="curve" smooth="yes"/>
      <point x="386" y="172"/>
      <point x="390" y="226"/>
      <point x="390" y="282" type="curve" smooth="yes"/>
      <point x="390" y="323"/>
      <point x="389" y="363"/>
      <point x="385" y="398" type="curve" smooth="yes"/>
      <point x="374" y="497"/>
      <point x="346" y="565"/>
      <point x="263" y="565" type="curve" smooth="yes"/>
      <point x="219" y="565"/>
      <point x="190" y="542"/>
      <point x="169" y="498" type="curve"/>
      <point x="169" y="562"/>
      <point x="170" y="626"/>
      <point x="170" y="690" type="curve"/>
      <point x="36" y="690" type="line"/>
      <point x="38" y="487"/>
      <point x="39" y="328"/>
      <point x="39" y="204" type="curve" smooth="yes"/>
      <point x="39" y="62"/>
      <point x="33" y="-66"/>
    </contour>
    <contour>
      <point x="173" y="223" type="curve" smooth="yes"/>
      <point x="173" y="298" type="line" smooth="yes"/>
      <point x="173" y="396"/>
      <point x="187" y="459"/>
      <point x="217" y="459" type="curve" smooth="yes"/>
      <point x="243" y="459"/>
      <point x="251" y="431"/>
      <point x="253" y="375" type="curve" smooth="yes"/>
      <point x="254" y="348"/>
      <point x="254" y="316"/>
      <point x="254" y="278" type="curve" smooth="yes"/>
      <point x="254" y="234"/>
      <point x="254" y="194"/>
      <point x="251" y="161" type="curve" smooth="yes"/>
      <point x="247" y="113"/>
      <point x="236" y="82"/>
      <point x="212" y="82" type="curve" smooth="yes"/>
      <point x="185" y="82"/>
      <point x="173" y="135"/>
    </contour>
  </outline>
</glyph>
<glyph name="Hbar" format="2">
  <advance width="472"/>
  <unicode hex="0126"/>
  <anchor x="235" y="459" name="_center"/>
  <outline>
    <contour>
      <point x="-2" y="410" type="line"/>
      <point x="-2" y="410"/>
      <point x="65" y="412"/>
      <point x="232" y="412" type="curve"/>
      <point x="288" y="412"/>
      <point x="475" y="410"/>
      <point x="475" y="410" type="curve"/>
      <point x="473" y="502" type="line"/>
      <point x="473" y="502"/>
      <point x="300" y="498"/>
      <point x="238" y="499" type="curve"/>
      <point x="150" y="500"/>
      <point x="-1" y="502"/>
      <point x="-1" y="502" type="curve"/>
    </contour>
    <component base="H"/>
  </outline>
</glyph>
<glyph name="kgreenlandic" format="2">
  <advance width="388"/>
  <unicode hex="0138"/>
  <outline>
    <contour>
      <point x="284" y="0" type="curve"/>
      <point x="441" y="3" type="line"/>
      <point x="367" y="103"/>
      <point x="298" y="209"/>
      <point x="244" y="298" type="curve"/>
      <point x="305" y="394"/>
      <point x="358" y="478"/>
      <point x="412" y="559" type="curve"/>
      <point x="267" y="561" type="line"/>
      <point x="229" y="485"/>
      <point x="182" y="401"/>
      <point x="107" y="289" type="curve"/>
      <point x="167" y="197"/>
      <point x="237" y="88"/>
    </contour>
    <contour>
      <point x="23" y="1" type="curve"/>
      <point x="162" y="1" type="line"/>
      <point x="161" y="52"/>
      <point x="160" y="159"/>
      <point x="160" y="264" type="curve"/>
      <point x="160" y="368"/>
      <point x="160" y="494"/>
      <point x="160" y="560" type="curve"/>
      <point x="28" y="555" type="line"/>
      <point x="28" y="494"/>
      <point x="29" y="373"/>
      <point x="29" y="266" type="curve"/>
      <point x="29" y="159"/>
      <point x="26" y="52"/>
    </contour>
  </outline>
</glyph>
<glyph name="lcaron" format="2">
  <advance width="286"/>
  <unicode hex="013E"/>
  <outline>
    <contour>
      <point x="19" y="0" type="curve"/>
      <point x="158" y="11" type="line"/>
      <point x="158" y="11"/>
      <point x="156" y="121"/>
      <point x="156" y="264" type="curve" smooth="yes"/>
      <point x="156" y="396"/>
      <point x="158" y="547"/>
      <point x="159" y="691" type="curve"/>
      <point x="22" y="692" type="line"/>
      <point x="24" y="599"/>
      <point x="27" y="403"/>
      <point x="27" y="266" type="curve" smooth="yes"/>
      <point x="27" y="117"/>
      <point x="25" y="82"/>
    </contour>
    <contour>
      <point x="239" y="446" type="line"/>
      <point x="289" y="486"/>
      <point x="302" y="546"/>
      <point x="302" y="601" type="curve" smooth="yes"/>
      <point x="302" y="641"/>
      <point x="302" y="659"/>
      <point x="302" y="699" type="curve"/>
      <point x="194" y="692" type="line"/>
      <point x="197" y="589" type="line"/>
      <point x="248" y="586" type="line"/>
      <point x="248" y="555"/>
      <point x="243" y="513"/>
      <point x="203" y="477" type="curve"/>
    </contour>
  </outline>
</glyph>
<glyph name="ldot" format="2">
  <advance width="273"/>
  <unicode hex="0140"/>
  <outline>
    <contour>
      <point x="19" y="0" type="curve"/>
      <point x="158" y="11" type="line"/>
      <point x="158" y="11"/>
      <point x="156" y="121"/>
      <point x="156" y="264" type="curve" smooth="yes"/>
      <point x="156" y="396"/>
      <point x="158" y="547"/>
      <point x="159" y="691" type="curve"/>
      <point x="22" y="692" type="line"/>
      <point x="24" y="599"/>
      <point x="27" y="403"/>
      <point x="27" y="266" type="curve" smooth="yes"/>
      <point x="27" y="117"/>
      <point x="25" y="82"/>
    </contour>
    <contour>
      <point x="282" y="301" type="line"/>
      <point x="279" y="412" type="line"/>
      <point x="173" y="406" type="line"/>
      <point x="179" y="303" type="line"/>
    </contour>
  </outline>
</glyph>
<glyph name="napostrophe" format="2">
  <advance width="410"/>
  <unicode hex="0149"/>
  <outline>
    <contour>
      <point x="80" y="584" type="line"/>
      <point x="105" y="605"/>
      <point x="131" y="669"/>
      <point x="131" y="728" type="curve"/>
      <point x="131" y="768"/>
      <point x="132" y="837"/>
      <point x="132" y="837" type="curve"/>
      <point x="18" y="830" type="line"/>
      <point x="23" y="723" type="line"/>
      <point x="76" y="722" type="line"/>
      <point x="75" y="683"/>
      <point x="64" y="640"/>
      <point x="39" y="606" type="curve"/>
    </contour>
    <component base="n"/>
  </outline>
</glyph>
<glyph name="Eng" format="2">
  <advance width="479"/>
  <unicode hex="014A"/>
  <outline>
    <contour>
      <point x="234" y="-167" type="line"/>
      <point x="376" y="-178"/>
      <point x="432" y="-127"/>
      <point x="435" y="4" type="curve"/>
      <point x="436" y="141"/>
      <point x="438" y="279"/>
      <point x="439" y="416" type="curve"/>
      <point x="439" y="533"/>
      <point x="441" y="642"/>
      <point x="444" y="715" type="curve"/>
      <point x="307" y="715" type="line"/>
      <point x="309" y="669"/>
      <point x="310" y="587"/>
      <point x="312" y="505" type="curve" smooth="yes"/>
      <point x="314" y="431"/>
      <point x="314" y="358"/>
      <point x="314" y="312" type="curve"/>
      <point x="306" y="333"/>
      <point x="286" y="390"/>
      <point x="264" y="454" type="curve" smooth="yes"/>
      <point x="229" y="556"/>
      <point x="186" y="678"/>
      <point x="177" y="704" type="curve"/>
      <point x="36" y="704" type="line"/>
      <point x="40" y="592"/>
      <point x="41" y="415"/>
      <point x="41" y="253" type="curve" smooth="yes"/>
      <point x="41" y="158"/>
      <point x="40" y="69"/>
      <point x="39" y="1" type="curve"/>
      <point x="173" y="0" type="line"/>
      <point x="172" y="42"/>
      <point x="172" y="114"/>
      <point x="170" y="199" type="curve" smooth="yes"/>
      <point x="169" y="246"/>
      <point x="170" y="297"/>
      <point x="170" y="349" type="curve"/>
      <point x="180" y="324"/>
      <point x="209" y="256"/>
      <point x="239" y="187" type="curve" smooth="yes"/>
      <point x="266" y="124"/>
      <point x="292" y="60"/>
      <point x="306" y="24" type="curve"/>
      <point x="306" y="-48"/>
      <point x="298" y="-68"/>
      <point x="232" y="-68" type="curve"/>
    </contour>
  </outline>
</glyph>
<glyph name="eng" format="2">
  <advance width="410"/>
  <unicode hex="014B"/>
  <outline>
    <contour>
      <point x="154" y="-167" type="line"/>
      <point x="256" y="-178"/>
      <point x="376" y="-127"/>
      <point x="379" y="4" type="curve" smooth="yes"/>
      <point x="381" y="105"/>
      <point x="379" y="160"/>
      <point x="379" y="231" type="curve" smooth="yes"/>
      <point x="379" y="393" type="line" smooth="yes"/>
      <point x="379" y="528"/>
      <point x="325" y="561"/>
      <point x="259" y="561" type="curve" smooth="yes"/>
      <point x="216" y="561"/>
      <point x="184" y="540"/>
      <point x="163" y="498" type="curve"/>
      <point x="162" y="519"/>
      <point x="162" y="541"/>
      <point x="161" y="562" type="curve"/>
      <point x="33" y="555" type="line"/>
      <point x="34" y="505"/>
      <point x="35" y="415"/>
      <point x="35" y="286" type="curve" smooth="yes"/>
      <point x="35" y="159"/>
      <point x="33" y="76"/>
      <point x="29" y="1" type="curve"/>
      <point x="173" y="1" type="line"/>
      <point x="172" y="82"/>
      <point x="169" y="201"/>
      <point x="169" y="316" type="curve" smooth="yes"/>
      <point x="169" y="436"/>
      <point x="194" y="456"/>
      <point x="216" y="456" type="curve" smooth="yes"/>
      <point x="237" y="456"/>
      <point x="245" y="432"/>
      <point x="245" y="382" type="curve" smooth="yes"/>
      <point x="245" y="227" type="line" smooth="yes"/>
      <point x="246" y="104"/>
      <point x="247" y="41"/>
      <point x="241" y="-3" type="curve" smooth="yes"/>
      <point x="236" y="-43"/>
      <point x="217" y="-68"/>
      <point x="152" y="-68" type="curve"/>
    </contour>
  </outline>
</glyph>
<glyph name="OE" format="2">
  <advance width="654"/>
  <unicode hex="0152"/>
  <outline>
    <contour>
      <point x="228" y="-5" type="curve" smooth="yes"/>
      <point x="296" y="-5"/>
      <point x="319" y="0"/>
      <point x="379" y="0" type="curve" smooth="yes"/>
      <point x="624" y="0" type="line"/>
      <point x="623" y="95" type="line"/>
      <point x="432" y="99" type="line"/>
      <point x="431" y="181" type="line"/>
      <point x="619" y="184" type="line"/>
      <point x="621" y="293" type="line"/>
      <point x="430" y="295" type="line"/>
      <point x="430" y="341" type="line" smooth="yes"/>
      <point x="430" y="408"/>
      <point x="431" y="514"/>
      <point x="432" y="591" type="curve"/>
      <point x="612" y="592" type="line"/>
      <point x="612" y="693" type="line"/>
      <point x="397" y="693" type="line" smooth="yes"/>
      <point x="329" y="693"/>
      <point x="310" y="706"/>
      <point x="240" y="706" type="curve" smooth="yes"/>
      <point x="79" y="706"/>
      <point x="41" y="560"/>
      <point x="41" y="357" type="curve" smooth="yes"/>
      <point x="41" y="149"/>
      <point x="58" y="-5"/>
    </contour>
    <contour>
      <point x="239" y="111" type="curve" smooth="yes"/>
      <point x="184" y="111"/>
      <point x="189" y="212"/>
      <point x="189" y="346" type="curve" smooth="yes"/>
      <point x="189" y="473"/>
      <point x="183" y="591"/>
      <point x="243" y="591" type="curve" smooth="yes"/>
      <point x="255" y="591"/>
      <point x="269" y="589"/>
      <point x="286" y="584" type="curve"/>
      <point x="288" y="517"/>
      <point x="291" y="439"/>
      <point x="291" y="342" type="curve" smooth="yes"/>
      <point x="291" y="247"/>
      <point x="290" y="181"/>
      <point x="289" y="120" type="curve"/>
      <point x="269" y="114"/>
      <point x="253" y="111"/>
    </contour>
  </outline>
</glyph>
<glyph name="oe" format="2">
  <advance width="620"/>
  <unicode hex="0153"/>
  <outline>
    <contour>
      <point x="201" y="-10" type="curve" smooth="yes"/>
      <point x="293" y="-10"/>
      <point x="341" y="34"/>
      <point x="363" y="109" type="curve" smooth="yes"/>
      <point x="377" y="156"/>
      <point x="382" y="216"/>
      <point x="382" y="284" type="curve" smooth="yes"/>
      <point x="382" y="342"/>
      <point x="379" y="396"/>
      <point x="368" y="440" type="curve" smooth="yes"/>
      <point x="349" y="518"/>
      <point x="307" y="568"/>
      <point x="220" y="568" type="curve" smooth="yes"/>
      <point x="130" y="568"/>
      <point x="80" y="524"/>
      <point x="56" y="451" type="curve" smooth="yes"/>
      <point x="41" y="406"/>
      <point x="34" y="349"/>
      <point x="34" y="285" type="curve" smooth="yes"/>
      <point x="34" y="220"/>
      <point x="38" y="163"/>
      <point x="50" y="116" type="curve" smooth="yes"/>
      <point x="70" y="38"/>
      <point x="113" y="-10"/>
    </contour>
    <contour>
      <point x="209" y="94" type="curve" smooth="yes"/>
      <point x="187" y="94"/>
      <point x="178" y="117"/>
      <point x="174" y="158" type="curve" smooth="yes"/>
      <point x="171" y="189"/>
      <point x="171" y="227"/>
      <point x="171" y="278" type="curve" smooth="yes"/>
      <point x="171" y="330"/>
      <point x="170" y="369"/>
      <point x="173" y="402" type="curve" smooth="yes"/>
      <point x="177" y="444"/>
      <point x="186" y="468"/>
      <point x="209" y="468" type="curve" smooth="yes"/>
      <point x="230" y="468"/>
      <point x="238" y="446"/>
      <point x="242" y="401" type="curve" smooth="yes"/>
      <point x="245" y="369"/>
      <point x="245" y="332"/>
      <point x="245" y="278" type="curve" smooth="yes"/>
      <point x="245" y="226"/>
      <point x="246" y="187"/>
      <point x="243" y="155" type="curve" smooth="yes"/>
      <point x="239" y="116"/>
      <point x="230" y="94"/>
    </contour>
    <contour>
      <point x="428" y="-12" type="curve" smooth="yes"/>
      <point x="541" y="-12"/>
      <point x="596" y="45"/>
      <point x="596" y="145" type="curve" smooth="yes"/>
      <point x="596" y="158"/>
      <point x="595" y="173"/>
      <point x="593" y="188" type="curve"/>
      <point x="459" y="188" type="line"/>
      <point x="463" y="169"/>
      <point x="466" y="150"/>
      <point x="466" y="135" type="curve" smooth="yes"/>
      <point x="466" y="108"/>
      <point x="457" y="89"/>
      <point x="430" y="89" type="curve" smooth="yes"/>
      <point x="402" y="89"/>
      <point x="391" y="112"/>
      <point x="386" y="152" type="curve" smooth="yes"/>
      <point x="382" y="186"/>
      <point x="383" y="234"/>
      <point x="383" y="291" type="curve" smooth="yes"/>
      <point x="383" y="329"/>
      <point x="383" y="363"/>
      <point x="384" y="390" type="curve" smooth="yes"/>
      <point x="386" y="440"/>
      <point x="396" y="469"/>
      <point x="425" y="469" type="curve" smooth="yes"/>
      <point x="454" y="469"/>
      <point x="461" y="433"/>
      <point x="461" y="381" type="curve" smooth="yes"/>
      <point x="461" y="363"/>
      <point x="460" y="344"/>
      <point x="459" y="323" type="curve"/>
      <point x="588" y="241" type="line"/>
      <point x="593" y="283"/>
      <point x="596" y="325"/>
      <point x="596" y="361" type="curve" smooth="yes"/>
      <point x="596" y="487"/>
      <point x="557" y="564"/>
      <point x="432" y="564" type="curve" smooth="yes"/>
      <point x="335" y="564"/>
      <point x="286" y="512"/>
      <point x="262" y="427" type="curve" smooth="yes"/>
      <point x="250" y="384"/>
      <point x="246" y="332"/>
      <point x="246" y="275" type="curve" smooth="yes"/>
      <point x="246" y="210"/>
      <point x="252" y="153"/>
      <point x="267" y="106" type="curve" smooth="yes"/>
      <point x="291" y="32"/>
      <point x="340" y="-12"/>
    </contour>
    <contour>
      <point x="283" y="233" type="line"/>
      <point x="384" y="240"/>
      <point x="588" y="241"/>
      <point x="588" y="241" type="curve"/>
      <point x="559" y="339" type="line"/>
      <point x="279" y="337" type="line"/>
    </contour>
  </outline>
</glyph>
<glyph name="Schwa" format="2">
  <advance width="426"/>
  <unicode hex="018F"/>
  <outline>
    <contour>
      <point x="206" y="-15" type="curve" smooth="yes"/>
      <point x="306" y="-15"/>
      <point x="361" y="42"/>
      <point x="386" y="131" type="curve" smooth="yes"/>
      <point x="402" y="187"/>
      <point x="409" y="256"/>
      <point x="409" y="331" type="curve" smooth="yes"/>
      <point x="409" y="419"/>
      <point x="405" y="498"/>
      <point x="389" y="559" type="curve" smooth="yes"/>
      <point x="367" y="644"/>
      <point x="319" y="696"/>
      <point x="224" y="696" type="curve"/>
      <point x="88" y="696"/>
      <point x="32" y="636"/>
      <point x="32" y="520" type="curve" smooth="yes"/>
      <point x="32" y="505"/>
      <point x="33" y="488"/>
      <point x="35" y="470" type="curve"/>
      <point x="170" y="480" type="line"/>
      <point x="169" y="493"/>
      <point x="168" y="504"/>
      <point x="168" y="514" type="curve" smooth="yes"/>
      <point x="168" y="561"/>
      <point x="180" y="581"/>
      <point x="208" y="581" type="curve" smooth="yes"/>
      <point x="235" y="581"/>
      <point x="249" y="557"/>
      <point x="255" y="516" type="curve" smooth="yes"/>
      <point x="261" y="478"/>
      <point x="260" y="424"/>
      <point x="260" y="363" type="curve" smooth="yes"/>
      <point x="260" y="289"/>
      <point x="261" y="223"/>
      <point x="255" y="176" type="curve" smooth="yes"/>
      <point x="249" y="127"/>
      <point x="236" y="98"/>
      <point x="208" y="98" type="curve" smooth="yes"/>
      <point x="177" y="98"/>
      <point x="169" y="133"/>
      <point x="169" y="191" type="curve" smooth="yes"/>
      <point x="169" y="232"/>
      <point x="173" y="284"/>
      <point x="176" y="343" type="curve"/>
      <point x="36" y="343" type="line"/>
      <point x="31" y="292"/>
      <point x="28" y="246"/>
      <point x="28" y="204" type="curve" smooth="yes"/>
      <point x="28" y="67"/>
      <point x="65" y="-15"/>
    </contour>
    <contour>
      <point x="42" y="237" type="line"/>
      <point x="347" y="239" type="line"/>
      <point x="346" y="350" type="line"/>
      <point x="246" y="345"/>
      <point x="36" y="343"/>
      <point x="36" y="343" type="curve"/>
    </contour>
  </outline>
</glyph>
<glyph name="florin" format="2">
  <advance width="500"/>
  <unicode hex="0192"/>
  <outline>
    <contour>
      <point x="129" y="-163" type="curve" smooth="yes"/>
      <point x="207" y="-163"/>
      <point x="284" y="-120"/>
      <point x="290" y="-14" type="curve" smooth="yes"/>
      <point x="291" y="4"/>
      <point x="307" y="224"/>
      <point x="310" y="271" type="curve" smooth="yes"/>
      <point x="316" y="361"/>
      <point x="341" y="562"/>
      <point x="342" y="580" type="curve" smooth="yes"/>
      <point x="344" y="617"/>
      <point x="364" y="631"/>
      <point x="393" y="631" type="curve" smooth="yes"/>
      <point x="416" y="631"/>
      <point x="445" y="623"/>
      <point x="476" y="609" type="curve"/>
      <point x="501" y="699" type="line"/>
      <point x="454" y="715"/>
      <point x="411" y="723"/>
      <point x="374" y="723" type="curve" smooth="yes"/>
      <point x="278" y="723"/>
      <point x="222" y="678"/>
      <point x="214" y="564" type="curve" smooth="yes"/>
      <point x="211" y="529"/>
      <point x="193" y="310"/>
      <point x="191" y="274" type="curve" smooth="yes"/>
      <point x="183" y="127"/>
      <point x="172" y="46"/>
      <point x="167" y="-1" type="curve" smooth="yes"/>
      <point x="163" y="-47"/>
      <point x="146" y="-66"/>
      <point x="117" y="-66" type="curve" smooth="yes"/>
      <point x="95" y="-66"/>
      <point x="66" y="-55"/>
      <point x="30" y="-36" type="curve"/>
      <point x="-13" y="-122" type="line"/>
      <point x="32" y="-148"/>
      <point x="82" y="-163"/>
    </contour>
    <contour>
      <point x="132" y="439" type="line"/>
      <point x="180" y="443"/>
      <point x="242" y="442"/>
      <point x="294" y="443" type="curve" smooth="yes"/>
      <point x="307" y="443"/>
      <point x="418" y="443"/>
      <point x="446" y="443" type="curve"/>
      <point x="464" y="552" type="line"/>
      <point x="371" y="549"/>
      <point x="353" y="551"/>
      <point x="301" y="551" type="curve" smooth="yes"/>
      <point x="252" y="551"/>
      <point x="188" y="551"/>
      <point x="146" y="552" type="curve"/>
    </contour>
  </outline>
</glyph>
<glyph name="Nhookleft" format="2">
  <advance width="479"/>
  <unicode hex="019D"/>
  <outline>
    <contour>
      <point x="-33" y="-68" type="curve"/>
      <point x="-31" y="-167" type="line"/>
      <point x="111" y="-178"/>
      <point x="168" y="-127"/>
      <point x="170" y="4" type="curve" smooth="yes"/>
      <point x="171" y="60"/>
      <point x="171" y="139"/>
      <point x="171" y="223" type="curve" smooth="yes"/>
      <point x="171" y="264"/>
      <point x="170" y="307"/>
      <point x="170" y="349" type="curve"/>
      <point x="184" y="313"/>
      <point x="198" y="278"/>
      <point x="212" y="242" type="curve" smooth="yes"/>
      <point x="245" y="158"/>
      <point x="284" y="52"/>
      <point x="300" y="7" type="curve"/>
      <point x="435" y="14" type="line"/>
      <point x="437" y="123"/>
      <point x="437" y="274"/>
      <point x="439" y="416" type="curve" smooth="yes"/>
      <point x="441" y="533"/>
      <point x="441" y="642"/>
      <point x="444" y="715" type="curve"/>
      <point x="307" y="715" type="line"/>
      <point x="309" y="669"/>
      <point x="310" y="587"/>
      <point x="312" y="505" type="curve" smooth="yes"/>
      <point x="314" y="431"/>
      <point x="314" y="358"/>
      <point x="314" y="312" type="curve"/>
      <point x="306" y="333"/>
      <point x="286" y="390"/>
      <point x="264" y="454" type="curve" smooth="yes"/>
      <point x="229" y="556"/>
      <point x="186" y="678"/>
      <point x="177" y="704" type="curve"/>
      <point x="36" y="704" type="line"/>
      <point x="40" y="592"/>
      <point x="41" y="416"/>
      <point x="41" y="254" type="curve" smooth="yes"/>
      <point x="41" y="169"/>
      <point x="41" y="85"/>
      <point x="41" y="0" type="curve" smooth="yes"/>
      <point x="41" y="-40"/>
      <point x="32" y="-68"/>
    </contour>
  </outline>
</glyph>
<glyph name="uhorn" format="2">
  <advance width="393"/>
  <unicode hex="01B0"/>
  <anchor x="194" y="0" name="bottom"/>
  <anchor x="317" y="-1" name="ogonek"/>
  <anchor x="197" y="555" name="top"/>
  <anchor x="280" y="577" name="topright"/>
  <outline>
    <contour>
      <point x="131" y="-10" type="curve" smooth="yes"/>
      <point x="246" y="-10"/>
      <point x="298" y="130"/>
      <point x="300" y="311" type="curve"/>
      <point x="241" y="309" type="line"/>
      <point x="241" y="127"/>
      <point x="204" y="90"/>
      <point x="173" y="90" type="curve" smooth="yes"/>
      <point x="154" y="90"/>
      <point x="144" y="107"/>
      <point x="144" y="155" type="curve" smooth="yes"/>
      <point x="144" y="193"/>
      <point x="145" y="242"/>
      <point x="148" y="301" type="curve" smooth="yes"/>
      <point x="154" y="410"/>
      <point x="157" y="497"/>
      <point x="159" y="565" type="curve"/>
      <point x="27" y="559" type="line"/>
      <point x="27" y="475"/>
      <point x="26" y="390"/>
      <point x="25" y="317" type="curve" smooth="yes"/>
      <point x="24" y="239"/>
      <point x="23" y="173"/>
      <point x="23" y="132" type="curve" smooth="yes"/>
      <point x="23" y="34"/>
      <point x="63" y="-10"/>
    </contour>
    <contour>
      <point x="253" y="0" type="line"/>
      <point x="368" y="0" type="line"/>
      <point x="368" y="2"/>
      <point x="362" y="199"/>
      <point x="362" y="282" type="curve" smooth="yes"/>
      <point x="362" y="372"/>
      <point x="368" y="447"/>
      <point x="374" y="566" type="curve"/>
      <point x="241" y="568" type="line"/>
      <point x="241" y="532"/>
      <point x="241" y="390"/>
      <point x="241" y="309" type="curve" smooth="yes"/>
      <point x="241" y="246"/>
      <point x="242" y="173"/>
      <point x="243" y="112" type="curve"/>
    </contour>
    <contour>
      <point x="344" y="471" type="line"/>
      <point x="418" y="484"/>
      <point x="477" y="545"/>
      <point x="481" y="616" type="curve"/>
      <point x="482" y="647"/>
      <point x="483" y="694"/>
      <point x="484" y="722" type="curve"/>
      <point x="368" y="726" type="line"/>
      <point x="374" y="615" type="line"/>
      <point x="428" y="614" type="line"/>
      <point x="428" y="551"/>
      <point x="365" y="517"/>
      <point x="332" y="511" type="curve"/>
    </contour>
  </outline>
</glyph>
<glyph name="LJ" format="2">
  <advance width="736"/>
  <unicode hex="01C7"/>
  <outline>
    <contour>
      <point x="522" y="-3" type="curve" smooth="yes"/>
      <point x="675" y="-3"/>
      <point x="716" y="95"/>
      <point x="716" y="231" type="curve" smooth="yes"/>
      <point x="716" y="301"/>
      <point x="716" y="334"/>
      <point x="716" y="402" type="curve"/>
      <point x="716" y="492"/>
      <point x="716" y="606"/>
      <point x="718" y="699" type="curve"/>
      <point x="573" y="697" type="line"/>
      <point x="577" y="610"/>
      <point x="578" y="464"/>
      <point x="578" y="396" type="curve"/>
      <point x="579" y="311"/>
      <point x="579" y="297"/>
      <point x="579" y="247" type="curve" smooth="yes"/>
      <point x="579" y="166"/>
      <point x="577" y="110"/>
      <point x="525" y="110" type="curve" smooth="yes"/>
      <point x="493" y="110"/>
      <point x="480" y="128"/>
      <point x="480" y="194" type="curve" smooth="yes"/>
      <point x="480" y="224"/>
      <point x="483" y="258"/>
      <point x="486" y="298" type="curve"/>
      <point x="349" y="299" type="line"/>
      <point x="344" y="263"/>
      <point x="342" y="230"/>
      <point x="342" y="200" type="curve" smooth="yes"/>
      <point x="342" y="71"/>
      <point x="388" y="-3"/>
    </contour>
    <contour>
      <point x="36" y="-4" type="line"/>
      <point x="328" y="-1" type="line"/>
      <point x="328" y="97" type="line"/>
      <point x="104" y="100" type="line"/>
    </contour>
    <contour>
      <point x="36" y="-4" type="curve"/>
      <point x="182" y="3" type="line"/>
      <point x="181" y="99"/>
      <point x="180" y="258"/>
      <point x="180" y="343" type="curve"/>
      <point x="180" y="428"/>
      <point x="181" y="598"/>
      <point x="182" y="703" type="curve"/>
      <point x="32" y="696" type="line"/>
      <point x="35" y="619"/>
      <point x="40" y="470"/>
      <point x="40" y="345" type="curve"/>
      <point x="40" y="222"/>
      <point x="38" y="73"/>
    </contour>
  </outline>
</glyph>
<glyph name="nhookleft" format="2">
  <advance width="410"/>
  <unicode hex="0272"/>
  <outline>
    <contour>
      <point x="384" y="0" type="line"/>
      <point x="381" y="81"/>
      <point x="379" y="123"/>
      <point x="379" y="231" type="curve" smooth="yes"/>
      <point x="379" y="291"/>
      <point x="379" y="329"/>
      <point x="379" y="393" type="curve" smooth="yes"/>
      <point x="379" y="528"/>
      <point x="325" y="561"/>
      <point x="259" y="561" type="curve" smooth="yes"/>
      <point x="166" y="561"/>
      <point x="126" y="463"/>
      <point x="126" y="267" type="curve"/>
      <point x="169" y="316" type="line"/>
      <point x="169" y="436"/>
      <point x="194" y="456"/>
      <point x="216" y="456" type="curve" smooth="yes"/>
      <point x="237" y="456"/>
      <point x="245" y="432"/>
      <point x="245" y="382" type="curve" smooth="yes"/>
      <point x="245" y="319"/>
      <point x="245" y="287"/>
      <point x="245" y="227" type="curve" smooth="yes"/>
      <point x="245" y="116"/>
      <point x="243" y="79"/>
      <point x="239" y="1" type="curve"/>
    </contour>
    <contour>
      <point x="-53" y="-167" type="line"/>
      <point x="49" y="-178"/>
      <point x="166" y="-127"/>
      <point x="169" y="4" type="curve" smooth="yes"/>
      <point x="171" y="105"/>
      <point x="169" y="173"/>
      <point x="169" y="316" type="curve"/>
      <point x="169" y="331"/>
      <point x="164" y="451"/>
      <point x="161" y="562" type="curve"/>
      <point x="27" y="555" type="line"/>
      <point x="32" y="482"/>
      <point x="39" y="381"/>
      <point x="39" y="271" type="curve" smooth="yes"/>
      <point x="39" y="148"/>
      <point x="43" y="41"/>
      <point x="37" y="-3" type="curve" smooth="yes"/>
      <point x="32" y="-43"/>
      <point x="10" y="-68"/>
      <point x="-55" y="-68" type="curve"/>
    </contour>
  </outline>
</glyph>
<glyph name="primemod" format="2">
  <advance width="338"/>
  <unicode hex="02B9"/>
  <outline>
    <contour>
      <point x="156" y="516" type="line"/>
      <point x="154" y="513"/>
      <point x="196" y="572"/>
      <point x="224" y="603" type="curve" smooth="yes"/>
      <point x="252" y="638"/>
      <point x="285" y="669"/>
      <point x="283" y="667" type="curve"/>
      <point x="163" y="742" type="line"/>
      <point x="164" y="745"/>
      <point x="142" y="705"/>
      <point x="114" y="661" type="curve" smooth="yes"/>
      <point x="85" y="613"/>
      <point x="53" y="564"/>
      <point x="55" y="567" type="curve"/>
    </contour>
  </outline>
</glyph>
<glyph name="doubleprimemod" format="2">
  <advance width="598"/>
  <unicode hex="02BA"/>
  <outline>
    <contour>
      <point x="416" y="516" type="line"/>
      <point x="414" y="513"/>
      <point x="456" y="572"/>
      <point x="483" y="603" type="curve" smooth="yes"/>
      <point x="515" y="637"/>
      <point x="544" y="669"/>
      <point x="543" y="667" type="curve"/>
      <point x="423" y="742" type="line"/>
      <point x="424" y="745"/>
      <point x="401" y="705"/>
      <point x="374" y="661" type="curve" smooth="yes"/>
      <point x="345" y="613"/>
      <point x="313" y="564"/>
      <point x="314" y="567" type="curve"/>
    </contour>
    <contour>
      <point x="156" y="516" type="line"/>
      <point x="154" y="513"/>
      <point x="196" y="572"/>
      <point x="224" y="603" type="curve" smooth="yes"/>
      <point x="255" y="637"/>
      <point x="285" y="669"/>
      <point x="283" y="667" type="curve"/>
      <point x="163" y="742" type="line"/>
      <point x="165" y="745"/>
      <point x="142" y="705"/>
      <point x="115" y="661" type="curve" smooth="yes"/>
      <point x="85" y="613"/>
      <point x="53" y="564"/>
      <point x="55" y="567" type="curve"/>
    </contour>
  </outline>
</glyph>
<glyph name="apostrophemod" format="2">
  <advance width="209"/>
  <unicode hex="02BC"/>
  <outline>
    <contour>
      <point x="121" y="452" type="line"/>
      <point x="171" y="502"/>
      <point x="180" y="559"/>
      <point x="180" y="630" type="curve" smooth="yes"/>
      <point x="180" y="785" type="line"/>
      <point x="65" y="777" type="line"/>
      <point x="67" y="615" type="line"/>
      <point x="117" y="612" type="line"/>
      <point x="116" y="571"/>
      <point x="110" y="532"/>
      <point x="71" y="486" type="curve"/>
    </contour>
  </outline>
</glyph>
